<svg xmlns="http://www.w3.org/2000/svg" xmlns:xlink="http://www.w3.org/1999/xlink" width="1080" zoomAndPan="magnify" viewBox="0 0 810 809.999993" height="1080" preserveAspectRatio="xMidYMid meet" version="1.0"><defs><g/><clipPath id="cc46e21b4e"><path d="M 38.25 0 L 771.75 0 C 781.894531 0 791.625 4.03125 798.796875 11.203125 C 805.96875 18.375 810 28.105469 810 38.25 L 810 771.75 C 810 781.894531 805.96875 791.625 798.796875 798.796875 C 791.625 805.96875 781.894531 810 771.75 810 L 38.25 810 C 28.105469 810 18.375 805.96875 11.203125 798.796875 C 4.03125 791.625 0 781.894531 0 771.75 L 0 38.25 C 0 28.105469 4.03125 18.375 11.203125 11.203125 C 18.375 4.03125 28.105469 0 38.25 0 " clip-rule="nonzero"/></clipPath></defs><g clip-path="url(#cc46e21b4e)"><rect x="-81" width="972" fill="#0a192f" y="-80.999999" height="971.999992" fill-opacity="1"/></g><g fill="#4ddde0" fill-opacity="1"><g transform="translate(184.821944, 577.101638)"><g><path d="M 310.421875 0 L 243.15625 0 L 218.8125 -74.5625 L 94.921875 -74.5625 L 70.578125 0 L 4.875 0 L 116.59375 -323.46875 L 198.6875 -323.46875 Z M 153.765625 -255.984375 L 112.171875 -128.328125 L 201.125 -128.328125 L 159.296875 -255.984375 Z M 153.765625 -255.984375 "/></g></g><g transform="translate(500.109045, 577.101638)"><g><path d="M 62.390625 1.984375 C 54.578125 1.984375 47.679688 0.398438 41.703125 -2.765625 C 35.734375 -5.929688 31.160156 -10.316406 27.984375 -15.921875 C 24.816406 -21.535156 23.234375 -27.878906 23.234375 -34.953125 C 23.234375 -42.035156 24.816406 -48.378906 27.984375 -53.984375 C 31.160156 -59.585938 35.734375 -64.007812 41.703125 -67.25 C 47.679688 -70.5 54.578125 -72.125 62.390625 -72.125 C 70.359375 -72.125 77.328125 -70.535156 83.296875 -67.359375 C 89.273438 -64.191406 93.847656 -59.804688 97.015625 -54.203125 C 100.191406 -48.597656 101.78125 -42.253906 101.78125 -35.171875 C 101.78125 -24.410156 98.203125 -15.523438 91.046875 -8.515625 C 83.890625 -1.515625 74.335938 1.984375 62.390625 1.984375 Z M 62.390625 1.984375 "/></g></g></g></svg>