<svg xmlns="http://www.w3.org/2000/svg" xmlns:xlink="http://www.w3.org/1999/xlink" width="1080" zoomAndPan="magnify" viewBox="0 0 810 809.999993" height="1080" preserveAspectRatio="xMidYMid meet" version="1.0"><defs><g/><clipPath id="d4d5104883"><path d="M 762 30 L 810 30 L 810 806.945312 L 762 806.945312 Z M 762 30 " clip-rule="nonzero"/></clipPath></defs><path fill="#64ffda" d="M 100.703125 759.554688 C 99.246094 758.769531 97.839844 757.445312 96.335938 757.300781 C 90.679688 756.792969 84.988281 756.582031 79.300781 756.484375 C 77.175781 756.449219 75.03125 757.003906 72.875 757.300781 C 72.90625 757.546875 73.019531 758.230469 73.136719 758.917969 C 72.808594 758.949219 72.613281 758.984375 72.597656 758.96875 C 71.695312 754.40625 67.640625 756.433594 65.433594 756.222656 C 58.371094 755.535156 51.210938 755.960938 44.097656 755.796875 C 41.007812 755.730469 37.917969 755.339844 34.84375 754.945312 C 32.195312 754.617188 30.851562 755.339844 31.539062 758.476562 L 29.023438 758.476562 C 29.480469 757.511719 29.953125 756.5 30.773438 754.75 C 24.378906 754.421875 18.3125 754.585938 12.410156 753.636719 C 8.304688 752.96875 4.429688 750.808594 0.507812 749.191406 C 0.210938 749.078125 0.0664062 748.015625 0.210938 747.472656 C 0.914062 744.957031 6.769531 740.738281 9.238281 740.671875 C 13.75 740.558594 18.261719 740.25 22.777344 740.152344 C 26.945312 740.050781 31.113281 740.199219 35.285156 740.050781 C 38.0625 739.953125 40.84375 739.546875 43.722656 738.335938 C 42.738281 738.058594 41.644531 737.976562 40.8125 737.453125 C 40.074219 736.980469 37.476562 736.800781 40.058594 734.886719 C 40.648438 734.445312 39.976562 732.171875 39.746094 730.765625 C 39.484375 729.148438 39.042969 727.546875 38.621094 725.664062 C 38.128906 725.894531 37.476562 726.207031 36.789062 726.515625 C 32.257812 722.199219 33.175781 716.25 32.210938 710.902344 C 31.933594 709.398438 32.4375 707.765625 32.617188 705.964844 C 28.074219 705.507812 30.410156 700.785156 29.808594 698.039062 C 28.269531 691.039062 27.664062 683.832031 26.945312 676.6875 C 26.816406 675.429688 27.925781 674.054688 28.628906 672.371094 C 26.175781 671.667969 26.210938 669.214844 26.308594 666.4375 C 26.390625 664.230469 25.621094 662.003906 25.441406 659.78125 C 25.34375 658.492188 25.636719 657.148438 25.195312 655.808594 C 25.816406 654.796875 26.4375 653.78125 27.058594 652.769531 L 24.410156 652.769531 C 24.328125 651.886719 24.214844 650.660156 24.117188 649.433594 C 25.441406 648.828125 26.636719 648.273438 27.828125 647.71875 L 27.664062 647.160156 C 26.636719 647.324219 25.605469 647.472656 24.445312 647.652344 C 23.839844 644.496094 23.25 641.390625 22.644531 638.285156 L 23.773438 637.910156 L 25.671875 644.351562 C 26.011719 644.234375 26.355469 644.121094 26.699219 644.007812 C 26.878906 641.097656 27.042969 638.1875 27.222656 635.160156 L 22.464844 635.160156 C 24.199219 634.246094 24.984375 633.820312 25.292969 633.65625 C 24.3125 630.0625 23.398438 626.695312 22.480469 623.34375 C 22.351562 622.851562 21.925781 622.117188 22.105469 621.9375 C 25.703125 618.226562 22.972656 614.921875 21.894531 611.210938 C 20.78125 607.335938 20.78125 603.121094 20.535156 599.03125 C 20.308594 595.304688 20.371094 591.5625 20.339844 587.816406 C 20.339844 587.179688 20.191406 586.296875 20.535156 585.9375 C 22.515625 583.894531 22.382812 582.046875 20.371094 580.132812 C 20.109375 579.886719 20.339844 579.136719 20.339844 578.203125 C 21.289062 578.613281 21.992188 578.925781 23.234375 579.445312 C 23.234375 577.796875 23.234375 576.308594 23.234375 574.820312 C 22.449219 575.292969 21.664062 575.753906 20.667969 576.355469 L 20.667969 569.441406 C 21.550781 570.75 22.074219 571.535156 22.597656 572.320312 C 23.054688 572.320312 23.496094 572.320312 23.953125 572.304688 C 21.058594 567.332031 24.589844 563.328125 24.820312 558.929688 C 25.097656 553.421875 24.28125 547.847656 24.164062 542.304688 C 24.035156 535.828125 24.164062 529.355469 24.148438 522.882812 C 24.148438 522.554688 23.984375 522.226562 23.121094 521.835938 C 22.90625 523.308594 22.695312 524.761719 22.480469 526.234375 L 21.8125 526.527344 C 21.222656 525.136719 19.769531 523.257812 20.210938 522.425781 C 21.910156 519.316406 19.457031 516.570312 19.949219 513.859375 C 20.585938 510.328125 18.804688 506.5 21.515625 503.164062 C 22.121094 502.429688 21.253906 500.535156 21.140625 499.175781 C 21.058594 498.230469 19.40625 496.085938 22.480469 497.28125 C 22.679688 497.347656 23.101562 496.984375 23.332031 496.742188 C 24.984375 494.878906 24.101562 486.179688 22.121094 484.726562 C 24.542969 483.367188 24.738281 477.988281 22.824219 476.09375 C 21.828125 475.113281 21.550781 473.296875 21.15625 471.808594 C 20.863281 470.699219 20.878906 469.519531 20.730469 468.113281 L 22.597656 468.113281 C 21.648438 466.578125 20.847656 465.285156 19.769531 463.554688 L 24.035156 463.554688 C 24.101562 459.988281 26.960938 455.757812 20.550781 453.402344 C 22.238281 452.585938 23.25 452.09375 24.558594 451.457031 C 24.296875 449.445312 24.035156 447.371094 23.691406 444.800781 C 23.722656 444.769531 24.378906 444.066406 25.015625 443.363281 C 24.789062 443.117188 24.574219 442.890625 24.347656 442.644531 C 23.332031 443.234375 22.300781 443.820312 20.863281 444.640625 C 21.730469 439.523438 19.113281 434.160156 24.019531 429.386719 C 25.210938 428.226562 23.136719 423.679688 21.648438 420.867188 C 22.136719 419.886719 22.613281 418.90625 23.121094 417.894531 C 23.789062 418.136719 24.460938 418.367188 25.210938 418.644531 C 25.261719 418.269531 25.390625 417.992188 25.308594 417.894531 C 24.183594 416.421875 23.003906 414.984375 22.058594 413.789062 C 22.058594 407.707031 21.992188 401.445312 22.089844 395.183594 C 22.15625 390.65625 22.480469 386.144531 22.644531 381.617188 C 22.808594 377.089844 22.792969 372.558594 23.054688 368.046875 C 23.265625 364.207031 23.660156 360.378906 24.164062 356.570312 C 24.410156 354.738281 27.011719 353.742188 25.308594 350.914062 C 24.625 349.769531 26.816406 346.746094 24.066406 345.175781 C 24.476562 344.621094 24.851562 344.03125 25.328125 343.523438 C 26.683594 342.070312 27.828125 340.792969 24.984375 339.570312 C 24.347656 339.289062 24.035156 337.835938 23.90625 336.871094 C 23.789062 335.972656 24.117188 335.023438 24.265625 333.992188 C 24.507812 333.976562 25.066406 333.929688 24.507812 333.976562 C 25.179688 331.625 25.785156 329.742188 26.226562 327.832031 C 26.421875 326.996094 26.40625 326.046875 26.257812 325.199219 C 26.011719 323.761719 23.609375 322.484375 26.046875 320.832031 C 26.226562 320.71875 25.769531 318.953125 25.210938 318.609375 C 22.515625 316.960938 23.644531 315.832031 25.933594 314.636719 C 25.066406 313.640625 24.363281 312.824219 23.691406 312.023438 C 23.824219 311.710938 23.921875 311.300781 24.019531 311.285156 C 26.195312 311.253906 26.894531 311.007812 25.832031 308.359375 C 24.753906 305.710938 25.082031 302.492188 24.707031 298.796875 C 24.804688 299.042969 24.542969 298.421875 24.28125 297.78125 C 28.253906 296.703125 24.949219 293.890625 25.492188 291.945312 C 26.09375 289.722656 25.066406 287.089844 24.984375 284.621094 C 24.902344 282.53125 25.210938 280.4375 25.246094 278.34375 C 25.359375 272.753906 25.359375 267.164062 25.554688 261.585938 C 25.589844 260.703125 26.292969 259.855469 26.128906 259.101562 C 26.128906 257.433594 26.160156 255.75 26.128906 254.082031 C 26.09375 252.90625 25.964844 251.730469 25.914062 250.550781 C 25.800781 247.886719 25.636719 245.222656 25.636719 242.574219 C 25.636719 240.058594 24.984375 237.066406 26.09375 235.136719 C 28.402344 231.148438 25.816406 227.597656 26.175781 223.90625 C 26.375 221.859375 26.734375 219.816406 27.058594 217.578125 C 27.273438 216.890625 28.089844 215.679688 27.78125 215.109375 C 25.621094 211.203125 26.714844 207.292969 27.273438 203.320312 C 27.566406 201.214844 27.648438 199.070312 27.796875 196.945312 C 28.269531 189.769531 28.761719 182.578125 29.152344 175.382812 C 29.234375 173.847656 28.742188 172.277344 28.84375 170.738281 C 29.183594 165.199219 29.5625 159.65625 30.132812 154.128906 C 30.707031 148.472656 31.539062 142.851562 32.210938 137.191406 C 32.472656 134.96875 32.292969 132.648438 32.78125 130.492188 C 34.988281 120.761719 34.335938 110.871094 34.988281 101.046875 C 35.496094 93.445312 37.230469 85.925781 38.195312 78.339844 C 38.703125 74.351562 38.539062 70.296875 39.027344 66.308594 C 39.8125 59.882812 40.761719 53.457031 41.921875 47.097656 C 42.558594 43.597656 40.8125 41.195312 37.214844 40.835938 C 32.832031 40.410156 28.484375 39.609375 23.578125 38.890625 C 26.160156 33.757812 26.863281 28.511719 31.835938 24.863281 C 31.539062 27.167969 31.359375 28.722656 31.230469 29.6875 C 35.792969 29.6875 40.140625 29.605469 44.488281 29.71875 C 46.371094 29.769531 48.398438 30.898438 49.558594 28.3125 C 49.671875 28.085938 50.882812 28.003906 51.273438 28.296875 C 54.285156 30.457031 57.554688 28.070312 60.644531 28.933594 C 61.917969 29.292969 63.375 29.246094 64.714844 29.097656 C 66.90625 28.851562 69.0625 28.363281 71.253906 28.003906 C 72.136719 27.855469 73.070312 27.609375 73.9375 27.742188 C 86.332031 29.800781 98.496094 26.875 110.726562 25.84375 C 114.46875 25.519531 118.179688 25.273438 121.941406 25.125 C 123.773438 25.058594 126.976562 22.363281 127.15625 22.609375 C 130.035156 26.546875 133.550781 23.164062 136.640625 23.605469 C 137.914062 23.785156 140.546875 25.09375 140.566406 21.789062 C 141.121094 21.855469 141.691406 21.90625 142.25 21.96875 C 145.042969 22.296875 147.875 23.035156 150.636719 22.835938 C 154.886719 22.511719 159.089844 21.546875 163.996094 20.726562 C 163.945312 20.648438 164.46875 21.414062 165.058594 22.25 C 165.5 22.019531 165.90625 21.9375 166.121094 21.691406 C 166.578125 21.167969 166.890625 20.089844 167.3125 20.058594 C 170.550781 19.894531 173.789062 19.976562 177.027344 19.828125 C 177.746094 19.796875 178.433594 19.160156 179.136719 18.78125 C 178.660156 18.277344 178.269531 17.410156 177.730469 17.3125 C 176.304688 17.050781 174.820312 17.035156 173.363281 17.066406 C 168.476562 17.164062 163.585938 17.261719 158.695312 17.457031 C 153.921875 17.65625 149.132812 17.851562 144.375 18.257812 C 133.140625 19.207031 121.941406 20.320312 110.707031 21.269531 C 108.078125 21.496094 105.410156 21.300781 102.761719 21.300781 L 102.714844 20.089844 C 104.675781 19.992188 106.652344 19.894531 108.617188 19.765625 C 109.484375 19.714844 110.367188 19.699219 111.199219 19.46875 C 120.242188 17.015625 129.59375 17.3125 138.796875 16.363281 C 143.917969 15.839844 149.066406 15.691406 154.167969 15.070312 C 158.550781 14.53125 162.851562 13.324219 167.230469 12.882812 C 171.089844 12.503906 175.03125 12.929688 178.921875 12.734375 C 183.617188 12.503906 188.273438 11.820312 192.96875 11.636719 C 203.316406 11.261719 213.667969 11.097656 224.035156 10.804688 C 227.664062 10.707031 231.308594 10.59375 234.921875 10.363281 C 241.445312 9.9375 247.953125 9.316406 254.476562 8.988281 C 259.039062 8.761719 263.847656 9.675781 268.148438 8.582031 C 271.761719 7.664062 274.867188 7.699219 278.429688 8.125 C 281.882812 8.53125 285.476562 7.40625 289.027344 7.09375 C 293.34375 6.703125 297.675781 6.359375 302.007812 6.160156 C 307.550781 5.917969 313.226562 6.457031 318.589844 5.410156 C 321.480469 4.855469 323.820312 3.480469 326.5 5.621094 C 326.664062 5.753906 327.746094 4.347656 328.414062 4.347656 C 334.578125 4.347656 340.742188 4.65625 346.90625 4.574219 C 350.421875 4.527344 353.9375 3.710938 357.453125 3.578125 C 360.902344 3.433594 364.351562 3.808594 367.804688 3.773438 C 375.535156 3.726562 383.285156 3.316406 391.019531 3.511719 C 399.980469 3.742188 408.925781 4.445312 417.882812 4.9375 C 418.097656 4.9375 418.324219 4.804688 418.539062 4.722656 C 418.539062 4.574219 418.621094 4.363281 418.570312 4.332031 C 418.210938 4.132812 417.820312 3.972656 417.492188 3.824219 C 426.894531 4.152344 436.214844 4.527344 445.550781 4.804688 C 452.890625 5.015625 460.214844 5.148438 467.554688 5.277344 C 474.667969 5.410156 481.78125 5.441406 488.894531 5.589844 C 500.175781 5.835938 511.441406 6.308594 522.722656 6.375 C 531.207031 6.421875 539.710938 5.835938 548.214844 5.800781 C 553.757812 5.785156 559.316406 6.375 564.859375 6.441406 C 573.359375 6.539062 581.878906 6.390625 590.382812 6.375 C 592.128906 6.375 593.863281 6.503906 595.613281 6.503906 C 609.152344 6.441406 622.707031 6.113281 636.242188 6.359375 C 645.1875 6.523438 654.148438 7.222656 663.042969 8.1875 C 675.058594 9.480469 687.042969 11.066406 698.996094 12.945312 C 703.542969 13.664062 707.925781 15.511719 712.355469 16.886719 C 719.089844 18.945312 725.796875 21.085938 732.546875 23.082031 C 733.660156 23.410156 735.523438 22.738281 735.996094 23.34375 C 737.09375 24.765625 737.550781 26.664062 738.582031 29.132812 C 734.953125 28.347656 732.582031 28.035156 730.375 27.300781 C 727.101562 26.222656 726.351562 27.527344 726.957031 30.699219 C 729.996094 28.753906 731.550781 30.113281 732.285156 33.152344 C 730.714844 34.328125 729.164062 35.492188 727.625 36.652344 C 731.222656 39.59375 735.03125 42.519531 738.566406 45.773438 C 739.367188 46.507812 739.757812 48.894531 739.1875 49.632812 C 737.945312 51.25 735.949219 52.3125 734.132812 53.703125 C 734.347656 53.882812 735.050781 54.519531 736.242188 55.582031 C 734.96875 56.136719 733.953125 57.019531 733.054688 56.921875 C 721.28125 55.5 709.511719 53.914062 697.738281 52.410156 C 696.886719 52.296875 696.003906 52.507812 695.136719 52.527344 C 691.050781 52.65625 690.578125 52.003906 692.015625 48.503906 C 687.535156 47.164062 683.25 44.761719 678.265625 45.773438 C 673.621094 46.722656 669.125 44.253906 664.578125 44.84375 C 662.765625 47.734375 665.347656 48.308594 666.804688 49.125 C 667.34375 49.417969 668.570312 48.453125 670.464844 47.652344 C 670.757812 47.933594 671.886719 49.011719 673 50.074219 C 672.804688 50.398438 672.605469 50.726562 672.410156 51.054688 C 667.949219 49.484375 662.160156 53.097656 658.644531 47.230469 C 660.066406 46.476562 661.210938 45.871094 662.894531 44.988281 C 659.789062 44.5 657.171875 44.089844 654.539062 43.679688 C 654.574219 43.566406 654.605469 43.453125 654.636719 43.339844 C 652.988281 43.535156 650.78125 43.15625 649.847656 44.074219 C 648.539062 45.363281 648.179688 47.636719 647.410156 49.484375 C 647.019531 49.371094 646.644531 49.273438 646.25 49.15625 C 646.542969 47.589844 646.839844 46.035156 647.265625 43.84375 L 635.574219 43.84375 C 635.523438 44.089844 635.476562 44.335938 635.425781 44.582031 C 636.277344 45.003906 637.125 45.445312 638.171875 45.96875 C 636.570312 46.804688 637.125 50.792969 633.726562 48.847656 C 630.078125 46.769531 633.53125 45.511719 635.476562 44.023438 C 633.054688 43.484375 631.601562 43.175781 630.210938 42.863281 C 630.113281 44.269531 630.160156 45.921875 629.816406 47.492188 C 629.671875 48.160156 628.773438 49.15625 628.199219 49.175781 C 622.835938 49.257812 617.457031 49.222656 612.09375 49.074219 C 611.359375 49.058594 610.65625 48.273438 609.757812 47.734375 C 607.582031 51.101562 605.339844 48.144531 603.101562 48.210938 C 602.007812 48.355469 600.828125 48.832031 599.832031 48.585938 C 595.203125 47.441406 590.625 48.796875 586.046875 48.601562 C 584.183594 48.519531 582.371094 47.703125 580.898438 47.308594 C 579.328125 47.75 577.855469 48.390625 576.320312 48.519531 C 574.292969 48.683594 572.214844 48.570312 570.1875 48.375 C 567.554688 48.113281 564.957031 47.507812 562.324219 47.308594 C 561.308594 47.230469 560.132812 48.292969 559.21875 48.078125 C 557.304688 47.636719 555.503906 46.6875 552.890625 45.625 C 555.554688 44.875 557.597656 44.285156 560.394531 43.484375 C 553.558594 40.984375 552.9375 43.140625 552.269531 47.980469 C 550.414062 47.960938 549.359375 46.742188 549.097656 44.335938 C 546.398438 48.667969 541.296875 49.714844 538.550781 46.820312 C 536.621094 47.390625 534.804688 48.453125 533.105469 48.324219 C 530.015625 48.078125 526.992188 47.113281 524.292969 46.542969 C 522.378906 46.707031 520.597656 46.933594 518.800781 47 C 516.476562 47.082031 514.171875 47.050781 511.851562 47 C 508.023438 46.917969 504.214844 46.769531 500.386719 46.671875 C 499.800781 46.671875 499.210938 46.933594 498.640625 46.867188 C 497.445312 46.738281 496.269531 46.476562 494.304688 46.117188 C 492.996094 47.523438 486.898438 47.570312 484.921875 45.691406 C 483.023438 46.167969 481.519531 46.902344 480.03125 46.867188 C 473.820312 46.707031 467.589844 46.460938 461.394531 45.886719 C 459.953125 45.757812 458.660156 44.1875 457.042969 43.125 C 456.652344 43.960938 456.242188 44.824219 456.078125 45.203125 C 455.210938 44.988281 454.328125 44.480469 453.921875 44.726562 C 452.449219 45.609375 451.664062 46.117188 450.46875 44.039062 C 449.964844 43.175781 447.21875 43.617188 445.515625 43.699219 C 444.078125 43.5 442.640625 43.257812 441.183594 43.109375 C 439.222656 42.914062 437.257812 42.667969 435.296875 42.667969 C 434.039062 42.667969 432.796875 43.125 431.519531 43.257812 C 431.03125 43.304688 430.492188 42.996094 429.984375 42.898438 C 427.777344 42.457031 425.570312 41.785156 423.34375 41.703125 C 422.460938 41.671875 421.546875 43.011719 420.46875 43.859375 C 419.828125 42.832031 419.226562 41.800781 418.421875 40.507812 C 417.640625 41.636719 417.015625 42.503906 416.394531 43.386719 C 416.394531 43.027344 416.394531 42.667969 416.414062 42.324219 C 412.257812 42.046875 408.105469 41.703125 403.9375 41.492188 C 397.953125 41.179688 391.96875 40.769531 385.984375 40.789062 C 383.089844 40.789062 380.292969 39.59375 377.121094 41.246094 C 375.175781 42.257812 371.972656 40.753906 369.324219 40.542969 C 363.894531 40.085938 358.386719 39.070312 353.039062 39.59375 C 349.914062 39.90625 346.777344 39.25 343.75 40.101562 C 343.082031 40.28125 342.574219 41.113281 342.394531 41.277344 C 341.28125 40.804688 340.398438 40.117188 339.5 40.085938 C 335.609375 39.96875 331.699219 39.921875 327.792969 40.101562 C 326.796875 40.148438 325.847656 41.507812 324.867188 41.523438 C 323.296875 41.574219 321.710938 41 320.09375 40.691406 C 319.992188 41.015625 319.796875 41.605469 319.421875 42.714844 C 318.996094 41.832031 318.71875 40.933594 318.554688 40.949219 C 316.429688 41.179688 314.320312 41.492188 312.226562 41.882812 C 310.789062 42.160156 309.351562 43.011719 307.992188 42.863281 C 306.421875 42.699219 304.933594 41.703125 303.398438 41.113281 C 303.085938 41 302.628906 40.902344 302.351562 41.03125 C 294.585938 45.167969 286.066406 43.535156 277.90625 43.859375 C 260.085938 44.5625 242.230469 44.792969 224.394531 44.84375 C 213.601562 44.875 202.8125 44.15625 192.003906 43.878906 C 186.933594 43.746094 181.832031 43.960938 176.765625 43.761719 C 175.046875 43.699219 173.378906 42.585938 171.664062 42.4375 C 169.277344 42.257812 166.660156 42.015625 164.46875 42.765625 C 161.101562 43.925781 158.273438 42.601562 155.246094 41.898438 C 154.886719 41.816406 154.445312 41.621094 154.183594 41.753906 C 146.433594 45.90625 138.113281 43.191406 130.066406 43.8125 C 123.917969 44.269531 117.738281 44.351562 111.574219 44.382812 C 108.960938 44.402344 106.328125 43.679688 103.710938 43.679688 C 96.566406 43.679688 89.421875 44.023438 82.273438 44.023438 C 74.050781 44.023438 65.808594 43.84375 57.585938 43.746094 C 56.964844 43.746094 56.34375 43.84375 54.90625 43.976562 C 55.347656 48.78125 55.769531 53.375 56.210938 57.96875 C 57.472656 71.375 58.746094 84.765625 59.972656 98.171875 C 60.121094 99.820312 60.121094 101.488281 60.121094 103.15625 C 60.136719 109.726562 60.136719 116.300781 60.152344 122.871094 C 60.152344 127.988281 59.664062 133.171875 60.234375 138.222656 C 62.457031 158.003906 62.71875 177.851562 63.277344 197.714844 C 63.765625 215.386719 65.042969 233.027344 65.433594 250.699219 C 65.910156 271.65625 65.828125 292.632812 65.941406 313.609375 C 65.972656 319.558594 66.007812 325.527344 65.710938 331.460938 C 65.566406 334.433594 64.207031 337.378906 64.160156 340.335938 C 64.078125 344.703125 65.5 349.230469 64.765625 353.414062 C 63.585938 360.054688 66.695312 366.65625 63.75 373.410156 C 62.328125 376.695312 63.78125 381.175781 63.78125 385.132812 C 63.78125 387.222656 63.375 389.300781 63.261719 391.394531 C 62.800781 399.617188 62.195312 407.839844 62.015625 416.078125 C 61.804688 425.804688 62.179688 435.550781 61.902344 445.277344 C 61.65625 453.367188 60.855469 461.445312 60.25 469.519531 C 60.054688 472.203125 59.464844 474.851562 59.417969 477.53125 C 59.253906 485.296875 59.402344 493.0625 59.203125 500.828125 C 59.074219 506.058594 58.273438 511.289062 58.289062 516.523438 C 58.289062 520.660156 59.566406 524.8125 59.449219 528.945312 C 59.269531 535.125 58.339844 541.289062 57.734375 547.453125 C 57.539062 549.480469 57.226562 551.523438 57.257812 553.550781 C 57.257812 553.960938 58.601562 554.335938 59.335938 554.746094 C 58.402344 557.558594 56.261719 560.320312 59.972656 562.722656 C 60.429688 563.015625 60.167969 564.601562 60.054688 565.566406 C 59.972656 566.285156 59.367188 566.972656 59.417969 567.660156 C 59.746094 573.316406 60.234375 578.972656 60.449219 584.644531 C 60.480469 585.363281 59.203125 586.132812 58.453125 586.96875 C 59.941406 588.734375 61.199219 590.941406 59.484375 593.832031 C 59.140625 594.421875 59.613281 595.5 59.710938 596.367188 C 60.054688 599.359375 60.5625 602.351562 60.710938 605.359375 C 60.9375 609.820312 60.9375 614.285156 60.972656 618.75 C 60.972656 620.660156 60.789062 622.574219 60.789062 624.488281 C 60.757812 629.164062 60.789062 633.820312 60.789062 638.726562 C 60.742188 638.726562 61.230469 638.726562 62.980469 638.726562 C 61.167969 639.640625 60.347656 640.066406 58.941406 640.769531 C 59.859375 640.964844 60.609375 640.964844 60.675781 641.160156 C 61.445312 643.613281 62.476562 646.082031 62.71875 648.601562 C 63.359375 655.515625 63.75 662.480469 64.042969 669.429688 C 64.144531 671.683594 63.421875 673.988281 63.554688 676.246094 C 63.683594 678.320312 64.421875 680.363281 64.976562 682.410156 C 65.351562 683.765625 65.859375 685.074219 66.332031 686.429688 C 65.15625 685.921875 63.914062 685.007812 63.503906 685.285156 C 62.539062 685.941406 61.984375 687.199219 60.742188 688.949219 C 62.898438 688.472656 63.914062 688.261719 64.925781 688.03125 C 64.617188 689.78125 64.355469 691.53125 63.996094 693.265625 C 63.898438 693.722656 63.503906 694.113281 63.046875 694.882812 C 66.742188 695.683594 67.757812 697.957031 67.152344 701.355469 C 66.382812 705.671875 65.910156 710.035156 65.269531 714.597656 C 66.351562 715.316406 67.640625 716.167969 69.40625 717.34375 C 67.722656 718.277344 66.644531 718.863281 65.566406 719.453125 C 65.628906 719.714844 65.695312 719.976562 65.777344 720.238281 C 66.59375 720.15625 67.429688 720.058594 69.261719 719.878906 C 67.640625 721.136719 66.675781 721.875 65.710938 722.625 C 66.054688 722.625 66.398438 722.625 66.726562 722.609375 C 66.464844 726.367188 66.59375 730.210938 65.84375 733.855469 C 65.304688 736.40625 65.910156 738.402344 68.621094 738.335938 C 71.550781 738.269531 74.476562 737.78125 77.417969 737.582031 C 81.949219 737.273438 86.476562 737.011719 91.023438 736.800781 C 97.351562 736.503906 103.679688 736.324219 109.988281 736 C 119.113281 735.523438 128.253906 735 137.375 734.460938 C 149.882812 733.710938 162.390625 733.007812 174.867188 732.058594 C 178.675781 731.765625 182.40625 730.421875 186.199219 730.160156 C 192.214844 729.738281 198.265625 729.867188 204.296875 729.65625 C 206.734375 729.574219 209.15625 729.214844 211.589844 728.9375 C 216.300781 728.414062 220.976562 727.726562 225.683594 727.332031 C 231.472656 726.84375 237.277344 726.679688 243.066406 726.222656 C 249.753906 725.699219 256.421875 724.980469 263.109375 724.390625 C 270.402344 723.753906 277.695312 722.953125 285.003906 722.640625 C 288.992188 722.476562 293.015625 723.359375 297.039062 723.441406 C 299.03125 723.476562 301.320312 722.003906 302.988281 722.59375 C 305.574219 723.492188 307.910156 720.859375 310.722656 722.953125 C 312 723.898438 315.300781 721.90625 317.722656 721.59375 C 321.367188 721.136719 324.933594 719.925781 328.742188 721.742188 C 330.132812 722.414062 332.453125 720.808594 334.367188 720.761719 C 338.828125 720.648438 343.308594 720.941406 347.773438 720.910156 C 353.234375 720.875 358.710938 720.695312 364.171875 720.515625 C 369.289062 720.351562 374.410156 720.058594 379.527344 719.945312 C 381.617188 719.894531 383.746094 720.449219 385.820312 720.289062 C 390.054688 719.945312 394.257812 719.304688 398.476562 718.800781 C 398.738281 718.765625 399.03125 718.652344 399.246094 718.734375 C 402.941406 720.207031 406.519531 718.816406 410.152344 718.390625 C 410.410156 718.359375 410.691406 718.308594 410.917969 718.390625 C 419.617188 720.910156 428.316406 717.785156 437.015625 718.308594 C 443.929688 718.71875 450.878906 718.75 457.8125 719.09375 C 458.742188 719.144531 459.625 720.109375 460.851562 720.84375 C 462.914062 718.113281 465.429688 718.308594 468.390625 720.695312 C 469.257812 721.398438 471.316406 721.398438 472.445312 720.890625 C 478.59375 718.03125 484.496094 720.007812 490.511719 721.234375 C 491.671875 721.480469 492.996094 720.792969 494.242188 720.746094 C 495.484375 720.695312 496.742188 720.910156 498.015625 721.921875 C 498.6875 721.433594 499.359375 720.941406 500.453125 720.140625 C 500.566406 721.25 500.632812 721.890625 500.714844 722.625 C 504.230469 722.167969 507.828125 721.496094 511.457031 721.316406 C 513.273438 721.234375 515.691406 720.1875 516.886719 723.082031 C 517.066406 723.492188 519.453125 722.984375 520.792969 722.496094 C 525.027344 724.210938 529.261719 725.976562 533.972656 722.886719 C 536.128906 721.464844 537.421875 722.347656 538.027344 724.996094 C 538.335938 724.097656 538.648438 723.214844 539.121094 721.875 C 539.367188 722.96875 539.53125 723.605469 539.777344 724.683594 C 540.90625 723.671875 541.789062 722.886719 543.0625 721.742188 C 543.554688 722.917969 543.945312 723.867188 544.339844 724.78125 L 554.722656 724.78125 C 554.328125 724.195312 554.019531 723.703125 553.378906 722.722656 C 557.515625 723.050781 561.113281 723.328125 565.070312 723.65625 C 564.089844 724.359375 563.371094 724.882812 562.128906 725.78125 L 566.28125 725.78125 C 566.246094 724.996094 566.214844 724.226562 566.167969 723.359375 C 566.707031 723.492188 567.132812 723.523438 567.132812 723.589844 C 567.3125 725.894531 568.046875 726.253906 570.695312 726.207031 C 580.734375 725.976562 590.804688 726.433594 600.863281 726.710938 C 608.171875 726.910156 615.480469 727.332031 622.789062 727.398438 C 624.457031 727.398438 626.972656 728.414062 627.726562 725.46875 C 627.726562 725.4375 629.035156 725.566406 629.558594 725.894531 C 630.128906 726.253906 630.667969 727.464844 630.929688 727.382812 C 631.910156 727.070312 632.761719 726.367188 633.398438 725.976562 C 645.21875 728.035156 657.269531 727.511719 669.515625 727.546875 C 669.976562 726.941406 670.726562 725.945312 671.496094 724.929688 L 672.246094 725.386719 C 671.90625 726.125 671.5625 726.859375 670.679688 728.691406 C 674.078125 727.855469 676.742188 727.1875 679.394531 726.546875 C 680.277344 726.335938 681.175781 726.140625 682.058594 725.945312 C 682.1875 726.648438 682.304688 727.351562 682.597656 729 C 685.769531 723.964844 689.90625 725.632812 693.894531 726.484375 C 694.304688 726.566406 694.453125 727.578125 694.894531 727.824219 C 695.546875 728.183594 696.902344 728.59375 697.035156 728.378906 C 698.734375 725.664062 700.8125 726.746094 703.035156 727.429688 C 703.769531 727.660156 704.800781 727.007812 705.683594 726.746094 C 706.175781 726.597656 706.960938 726.15625 707.089844 726.320312 C 709.671875 729.261719 713.386719 725.847656 716.117188 727.921875 C 716.621094 728.3125 717.652344 728.804688 717.964844 728.574219 C 720.234375 726.957031 722.246094 727.351562 724.519531 728.675781 C 725.453125 729.214844 727.265625 731.699219 728.132812 728.363281 C 733.414062 728.675781 738.726562 728.773438 743.976562 729.425781 C 745.742188 729.636719 747.199219 732.042969 749.011719 729.179688 C 749.390625 728.574219 751.875 728.707031 752.984375 729.296875 C 757.285156 731.519531 761.800781 731.289062 766.378906 731.09375 C 767.734375 731.027344 769.109375 731.371094 770.644531 731.550781 C 770.9375 732.566406 771.59375 733.675781 771.496094 734.707031 C 771.398438 735.703125 770.742188 737.027344 769.925781 737.484375 C 767.863281 738.628906 764.90625 738.792969 763.546875 740.394531 C 761.0625 743.339844 758.003906 745.136719 753.65625 746.722656 C 757.023438 747.636719 759.410156 748.292969 761.800781 748.945312 C 761.898438 749.421875 762.011719 749.878906 762.109375 750.351562 C 760.179688 751.300781 758.136719 752.085938 756.355469 753.277344 C 754.933594 754.226562 753.851562 755.648438 752.039062 757.445312 C 754.785156 757.789062 756.582031 758.019531 758.496094 758.246094 C 755.0625 764.492188 715.722656 771.898438 712.0625 768.300781 C 707.238281 769.070312 703.214844 770.199219 699.175781 770.214844 C 693.667969 770.230469 688.171875 771.523438 682.597656 769.921875 C 680.292969 769.25 677.511719 770.3125 674.945312 770.425781 C 673.785156 770.476562 672.625 770.132812 671.363281 769.953125 C 670.613281 770.265625 669.433594 771.148438 668.289062 771.097656 C 665.347656 770.984375 662.421875 770.410156 659.476562 770.132812 C 658.792969 770.066406 658.039062 770.347656 657.367188 770.605469 C 654.65625 771.671875 652.1875 771.882812 651.023438 769.757812 C 646.707031 770.246094 642.914062 770.867188 639.105469 771.046875 C 635.980469 771.195312 632.828125 770.804688 629.214844 770.625 C 629.277344 770.183594 629.214844 770.722656 629.148438 771.082031 C 626.335938 771.308594 623.328125 771.851562 620.398438 771.621094 C 619.058594 771.523438 617.832031 769.871094 616.984375 769.25 C 616.035156 770.199219 615.039062 771.882812 614.398438 771.769531 C 609.363281 770.789062 603.445312 774.335938 598.949219 768.921875 C 598.71875 769.789062 598.492188 770.707031 598.34375 771.210938 C 595.238281 770.902344 592.308594 770.671875 589.382812 770.296875 C 587.242188 770.035156 585.132812 769.332031 583.007812 769.300781 C 580.683594 769.265625 578.363281 769.871094 576.023438 769.984375 C 575.242188 770.019531 574.4375 769.414062 573.621094 769.152344 C 572.953125 768.941406 571.675781 768.613281 571.660156 768.644531 C 569.859375 774.203125 569.078125 769.363281 568.09375 768.300781 C 565.886719 768.726562 563.878906 769.121094 561.359375 769.59375 C 561.457031 769.824219 561.179688 769.203125 561.015625 768.84375 C 559.25 769.203125 557.417969 769.347656 555.75 769.96875 C 553.316406 770.867188 552.691406 769.511719 552.023438 767.664062 C 551.910156 767.355469 550.160156 767.175781 550.042969 767.386719 C 547.722656 772.03125 544.175781 769.511719 540.90625 769.152344 C 538.941406 768.941406 536.914062 769.414062 534.9375 769.28125 C 524.046875 768.5625 513.175781 767.730469 502.285156 766.996094 C 501.058594 766.914062 499.800781 767.289062 498.574219 767.207031 C 493.667969 766.929688 488.78125 766.535156 483.875 766.257812 C 478.9375 765.980469 473.949219 765.359375 469.042969 765.734375 C 465.609375 765.996094 466.414062 762.449219 464.058594 761.632812 C 463.796875 762.582031 463.566406 763.382812 463.273438 764.425781 C 462.175781 759.703125 459.773438 763.496094 458.1875 763.644531 C 454.738281 763.96875 451.828125 763.644531 448.394531 762.464844 C 445.5 761.484375 441.3125 758.804688 437.75 762.417969 C 437.210938 762.957031 435.609375 762.808594 434.628906 762.515625 C 430.375 761.257812 426.027344 762.058594 421.726562 761.714844 C 417.378906 761.371094 412.996094 761.09375 408.628906 761.175781 C 402.515625 761.273438 396.21875 762.695312 390.332031 761.664062 C 386.882812 761.058594 383.449219 763.644531 380.230469 761.140625 C 379.707031 760.75 378.347656 761.484375 377.367188 761.617188 C 376.320312 761.746094 375.09375 762.140625 374.246094 761.761719 C 370.777344 760.210938 367.34375 761.140625 363.847656 761.386719 C 360.59375 761.597656 357.289062 761.140625 354.003906 761.078125 C 349.621094 760.996094 345.15625 760.488281 340.855469 761.109375 C 333.972656 762.105469 327.203125 762.058594 320.355469 761.238281 C 319.390625 761.125 318.328125 762.417969 317.28125 762.480469 C 315.285156 762.597656 314.925781 761.355469 314.777344 759.425781 C 314.597656 756.941406 313.632812 754.488281 312.832031 752.101562 C 312.652344 751.578125 311.671875 751.332031 311.050781 750.972656 C 310.738281 751.578125 310.378906 752.167969 310.136719 752.804688 C 309.546875 754.242188 309.023438 755.714844 308.449219 757.183594 C 309.773438 757.039062 311.230469 756.875 312.539062 756.726562 C 312.945312 757.96875 313.796875 759.179688 313.550781 760.078125 C 313.207031 761.273438 312.082031 763.070312 311.179688 763.136719 C 304.542969 763.644531 297.660156 764.902344 291.300781 763.675781 C 286.359375 762.710938 281.457031 766.519531 276.925781 763.003906 C 272.855469 766.144531 268.050781 764.378906 263.652344 764.707031 C 255.132812 765.328125 246.53125 764.902344 237.964844 765.082031 C 227.550781 765.308594 217.132812 765.882812 206.71875 765.980469 C 200.179688 766.046875 193.621094 765.410156 187.082031 765.277344 C 183.8125 765.210938 180.542969 765.671875 177.269531 765.6875 C 174.3125 765.6875 171.367188 765.292969 168.410156 765.277344 C 166.167969 765.277344 163.945312 765.605469 161.429688 765.800781 C 162.933594 761.941406 167.3125 760.160156 172.203125 760.863281 C 171.1875 757.496094 161.296875 755.746094 156 758.230469 C 157.714844 760.339844 159.398438 762.417969 161.085938 764.476562 L 160.527344 765.867188 C 153.285156 765.980469 146.042969 766.324219 138.796875 766.160156 C 131.246094 765.980469 123.660156 765.589844 116.152344 764.738281 C 109.464844 763.984375 102.535156 764.65625 96.042969 762.546875 C 96.109375 762.058594 96.191406 761.566406 96.253906 761.058594 C 97.875 761.289062 99.507812 761.5 101.273438 761.746094 C 101.046875 760.832031 100.847656 760.09375 100.667969 759.375 C 103.480469 759.375 106.308594 759.375 109.742188 759.375 C 108.761719 758.589844 107.929688 757.414062 106.933594 757.25 C 104.59375 756.875 102.027344 756.597656 100.734375 759.457031 Z M 328.90625 753.734375 C 329.019531 753.671875 329.117188 753.574219 329.25 753.554688 C 329.363281 753.539062 329.59375 753.621094 329.59375 753.636719 C 329.394531 756.644531 331.128906 757.578125 333.027344 757.953125 C 333.089844 755.582031 333.207031 753.621094 333.171875 751.675781 C 333.171875 751.285156 332.648438 750.628906 332.273438 750.546875 C 331.765625 750.433594 330.949219 750.582031 330.65625 750.941406 C 329.96875 751.808594 329.511719 752.871094 328.9375 753.816406 C 327.335938 753.574219 325.71875 753.066406 324.164062 753.230469 C 323.707031 753.277344 323.265625 755.191406 323.183594 756.269531 C 323.148438 756.695312 324.539062 757.675781 324.636719 757.59375 C 326.125 756.382812 327.5 755.058594 328.90625 753.753906 Z M 320.695312 13.648438 C 320.910156 14.320312 321.105469 14.972656 321.320312 15.644531 C 322.691406 15.070312 324.066406 14.484375 325.421875 13.910156 L 323.460938 9.546875 C 323.117188 9.613281 322.789062 9.675781 322.445312 9.742188 C 322.316406 10.835938 322.316406 11.980469 322.003906 13.027344 C 321.890625 13.386719 321.058594 13.535156 320.550781 13.796875 C 318.929688 10.117188 314.253906 9.269531 311.820312 12.308594 C 311.34375 12.898438 311.441406 14.320312 311.820312 15.070312 C 312.0625 15.5625 313.992188 15.808594 314.011719 15.757812 C 315.335938 12.097656 318.390625 14.074219 320.695312 13.664062 Z M 470.679688 757.316406 C 469.894531 755.960938 469.40625 754.175781 468.226562 753.328125 C 466.753906 752.25 463.339844 751.105469 463.191406 751.382812 C 461.03125 755.175781 459.429688 752.410156 457.46875 750.859375 C 457.109375 752.542969 456.796875 753.996094 456.585938 754.996094 C 455.488281 754.195312 454.425781 753.425781 453.363281 752.65625 C 453.054688 753.113281 452.726562 753.574219 452.417969 754.046875 C 455.082031 755.796875 457.761719 757.546875 460.429688 759.3125 C 460.589844 759.015625 460.753906 758.722656 460.902344 758.429688 C 460.738281 757.855469 460.574219 757.300781 460.640625 757.527344 C 462.980469 757.644531 465.773438 756.972656 467.246094 758.050781 C 469.339844 759.589844 469.746094 758.691406 470.566406 757.234375 L 475.324219 757.234375 C 474.097656 755.109375 473.019531 753.246094 471.9375 751.398438 L 470.957031 752.003906 C 470.859375 753.785156 470.761719 755.550781 470.664062 757.316406 Z M 346.449219 757.316406 C 345.058594 750.433594 342.65625 749.257812 336.410156 752.460938 C 335.707031 752.820312 334.644531 753.816406 334.757812 754.175781 C 335.085938 755.160156 335.886719 756.644531 336.640625 756.742188 C 339.910156 757.136719 343.246094 757.105469 346.546875 757.234375 C 349.523438 757.480469 352.480469 757.871094 355.457031 757.9375 C 360.65625 758.050781 365.855469 757.96875 371.074219 757.96875 C 371.660156 756.613281 372.609375 755.699219 373.640625 755.601562 C 374.832031 755.5 376.074219 756.253906 377.320312 756.367188 C 377.644531 756.402344 378.054688 755.417969 378.429688 754.914062 C 379.230469 755.894531 380.03125 756.875 380.867188 757.871094 C 381.570312 757.546875 382.402344 756.792969 383.222656 756.808594 C 388.078125 756.859375 392.933594 757.167969 397.789062 757.21875 C 400.894531 757.25 403.90625 756.941406 407.058594 757.871094 C 409.511719 758.589844 412.40625 757.9375 415.070312 757.644531 C 415.742188 757.578125 416.3125 756.5625 416.414062 756.480469 C 418.082031 756.792969 419.324219 757.085938 420.582031 757.234375 C 423.882812 757.660156 427.238281 755.304688 430.507812 757.445312 C 430.898438 757.707031 431.585938 758.019531 431.847656 757.855469 C 435.230469 755.699219 438.339844 755.011719 440.53125 759.390625 C 440.972656 758.3125 441.347656 757.414062 441.722656 756.5 C 443.667969 757.464844 445.613281 758.429688 448.507812 759.851562 C 447.347656 756.1875 446.449219 753.328125 445.550781 750.484375 C 445.207031 750.433594 444.847656 750.382812 444.503906 750.335938 C 443.554688 752.378906 442.605469 754.421875 441.65625 756.449219 C 441.152344 755.175781 440.726562 753.867188 440.136719 752.625 C 438.761719 749.746094 437.242188 749.664062 435.183594 752.148438 C 434.707031 752.722656 433.546875 753.292969 432.941406 753.113281 C 430.851562 752.476562 428.90625 751.429688 426.828125 750.710938 C 426.15625 750.484375 425.308594 750.777344 424.539062 750.875 C 422.542969 751.152344 419.207031 752.265625 418.800781 751.578125 C 417.148438 748.863281 413.960938 750.351562 413.503906 750.644531 C 411.113281 752.214844 409.414062 750.222656 407.4375 750.15625 C 406.734375 750.140625 406.015625 749.648438 405.328125 749.679688 C 401.484375 749.8125 397.640625 749.941406 393.832031 750.253906 C 390.136719 750.546875 386.523438 749.078125 382.632812 751.234375 C 380.71875 752.296875 378.773438 752.410156 378.496094 754.996094 C 378.203125 754.734375 377.808594 754.535156 377.628906 754.226562 C 375.699219 750.824219 373.476562 748.652344 369.421875 751.59375 C 368.765625 752.066406 367.179688 752.199219 366.609375 751.742188 C 362.113281 748.195312 357.011719 751.660156 352.300781 750.417969 C 351.386719 750.171875 349.671875 752.003906 348.707031 753.164062 C 347.722656 754.355469 347.183594 755.925781 346.449219 757.332031 Z M 362.882812 10.445312 C 362.472656 9.9375 361.835938 8.941406 361.703125 9.007812 C 356.71875 11.359375 350.667969 7.257812 345.941406 11.867188 C 347.316406 12.800781 348.769531 13.796875 350.355469 14.890625 C 350.78125 14.140625 351.207031 13.402344 351.140625 13.519531 L 362.554688 13.519531 C 362.734375 12.226562 362.863281 11.261719 362.996094 10.3125 C 363.550781 11.671875 364.109375 13.011719 364.628906 14.304688 C 367.703125 13.878906 370.484375 13.503906 373.265625 13.125 C 373.183594 12.996094 373.082031 12.863281 373.003906 12.734375 C 379.085938 13.273438 385.167969 13.796875 391.332031 14.335938 C 392.882812 13.042969 394.488281 11.703125 395.253906 11.066406 C 396.890625 11.851562 397.871094 12.503906 398.949219 12.78125 C 400.0625 13.0625 401.289062 12.800781 402.417969 13.027344 C 403.96875 13.355469 405.472656 14.269531 406.996094 14.285156 C 408.925781 14.304688 410.886719 13.273438 412.800781 13.402344 C 416.65625 13.648438 420.484375 14.46875 424.34375 14.808594 C 425.339844 14.890625 426.433594 14.105469 427.417969 13.746094 C 427.335938 12.601562 427.269531 11.671875 427.203125 10.789062 C 425.144531 10.429688 422.984375 9.824219 420.828125 9.726562 C 412.601562 9.351562 404.394531 10.738281 396.136719 9.757812 C 391.707031 9.234375 387.195312 9.429688 382.714844 9.496094 C 380.097656 9.546875 377.5 9.988281 374.898438 10.234375 C 373.542969 10.363281 372.183594 10.558594 370.828125 10.574219 C 368.179688 10.574219 365.546875 10.476562 362.898438 10.429688 Z M 664.253906 762.285156 C 665.363281 763.054688 666.394531 764.117188 667.621094 764.492188 C 668.371094 764.722656 670.21875 763.921875 670.21875 763.578125 C 670.238281 761.730469 669.535156 760.128906 667.308594 759.964844 C 666.6875 759.914062 666.066406 759.980469 665.460938 759.933594 C 663.582031 759.769531 662.011719 758.3125 659.691406 759.769531 C 658.710938 760.375 656.011719 758.167969 654.050781 757.332031 C 653.753906 757.203125 652.96875 757.609375 652.789062 757.96875 C 652.121094 759.277344 651.597656 760.667969 650.761719 762.644531 C 649.75 762.058594 648.410156 761.042969 646.886719 760.4375 C 645.171875 759.753906 643.324219 759.328125 641.492188 758.984375 C 639.988281 758.707031 638.417969 758.707031 637.667969 758.640625 C 636.277344 759.097656 634.496094 759.769531 634.445312 759.671875 C 633.464844 757.445312 632.007812 758.394531 630.324219 758.558594 C 628.445312 758.738281 626.433594 757.480469 624.519531 757.578125 C 621.21875 757.773438 617.949219 758.542969 614.859375 759.03125 C 614.957031 759.292969 615.382812 760.40625 615.789062 761.519531 C 613.027344 758.949219 610.117188 757.660156 606.421875 757.886719 C 602.90625 758.101562 599.375 758.050781 595.859375 757.9375 C 590.542969 757.773438 585.246094 757.367188 579.949219 757.265625 C 578.738281 757.25 576.484375 758.589844 576.433594 758.476562 C 574.800781 755.078125 572.050781 757.90625 569.976562 757.265625 C 568.898438 756.941406 567.671875 757.121094 566.558594 756.890625 C 560.835938 755.679688 556.894531 758.214844 556.8125 762.582031 C 558.578125 763.464844 559.96875 764.707031 561.425781 764.769531 C 564.710938 764.902344 568.03125 764.429688 571.347656 764.265625 C 572.085938 764.230469 572.835938 764.589844 573.574219 764.625 C 577.511719 764.769531 581.4375 764.933594 585.378906 764.984375 C 590.25 765.050781 595.140625 764.984375 600.011719 765 C 601.238281 765 602.496094 765.195312 603.691406 765 C 606.78125 764.492188 610.164062 762.726562 612.8125 763.496094 C 615.414062 764.265625 617.703125 765.097656 620.480469 764.789062 C 622.3125 764.589844 624.226562 765.179688 626.105469 765.210938 C 628.28125 765.246094 630.457031 764.96875 632.628906 764.96875 C 641.886719 764.96875 651.140625 764.96875 660.394531 765.03125 C 662.960938 765.050781 664.546875 764.265625 664.269531 762.285156 Z M 705.421875 757.316406 C 703.347656 757.316406 701.679688 761.5 700.304688 757.105469 C 699.226562 757.691406 697.886719 758.789062 697.574219 758.558594 C 693.847656 755.664062 690.527344 759.015625 687.027344 759.113281 C 686.339844 759.132812 685.65625 759.816406 684.984375 760.195312 C 683.710938 757.773438 682.402344 759.472656 680.996094 760.0625 C 680.097656 760.4375 678.96875 760.667969 678.035156 760.472656 C 676.582031 760.160156 675.207031 758.933594 673.816406 758.984375 C 670.335938 759.113281 671.789062 761.84375 671.398438 763.773438 C 680.734375 765.179688 689.613281 765.03125 698.328125 762.808594 C 698.308594 762.433594 698.292969 762.058594 698.261719 761.679688 C 699.324219 762.433594 700.386719 763.183594 701.597656 764.050781 C 702.871094 761.8125 704.097656 759.671875 705.421875 757.332031 Z M 578.394531 23.671875 C 578.394531 24.078125 578.394531 24.488281 578.394531 24.898438 L 642.882812 24.898438 L 642.882812 23.621094 C 621.382812 22.671875 599.878906 22.902344 578.394531 23.671875 Z M 628.117188 15.007812 C 625.683594 14.125 623.34375 12.488281 621.121094 12.621094 C 612.894531 13.09375 604.753906 12.847656 596.578125 12.144531 C 595.613281 12.0625 594.535156 13.402344 593.503906 14.089844 C 593.699219 14.402344 593.878906 14.695312 594.078125 15.007812 L 628.132812 15.007812 Z M 733.121094 758.574219 C 734.183594 761.125 736.601562 761.828125 739.414062 759.980469 C 740.316406 759.390625 741.523438 759.015625 742.605469 758.984375 C 745.726562 758.851562 748.847656 758.933594 751.761719 758.933594 C 752.101562 757.085938 752.363281 755.664062 752.742188 753.605469 C 749.730469 754.324219 746.707031 754.375 744.566406 755.761719 C 742.261719 757.265625 741.132812 757.578125 740.152344 754.976562 C 737.8125 756.171875 735.621094 757.285156 733.105469 758.574219 Z M 697.851562 18.734375 C 700.535156 23.851562 704.472656 23.898438 708.269531 24.40625 C 710.359375 24.683594 712.40625 25.160156 714.480469 25.550781 C 713.992188 23.996094 712.910156 22.609375 711.488281 21.808594 C 710.800781 21.429688 709.511719 22.152344 708.480469 22.363281 C 708.59375 22.183594 708.726562 22.003906 708.839844 21.808594 C 705.503906 20.875 702.167969 19.945312 697.851562 18.734375 Z M 305.933594 758.558594 C 305.574219 756.140625 305.246094 753.980469 305 752.378906 C 302.269531 752.378906 299.996094 752.328125 297.707031 752.410156 C 297.183594 752.429688 296.238281 752.851562 296.21875 753.148438 C 296.15625 754.015625 296.269531 755.566406 296.644531 755.679688 C 298.328125 756.171875 300.128906 756.253906 302.222656 756.515625 L 302.222656 758.789062 C 303.511719 758.707031 304.625 758.625 305.917969 758.542969 Z M 410.445312 22.804688 C 405.996094 20.449219 385.671875 20.464844 383.726562 22.804688 Z M 57.878906 732.058594 C 54.855469 734.753906 51.929688 737.355469 49.265625 739.726562 C 52.074219 739.546875 55.214844 739.332031 58.714844 739.105469 C 58.402344 736.421875 58.109375 734.003906 57.878906 732.058594 Z M 302.597656 16.722656 C 304.738281 15.773438 306.457031 15.121094 308.074219 14.269531 C 308.875 13.84375 309.511719 13.09375 310.234375 12.488281 C 309.660156 11.835938 308.910156 10.558594 308.53125 10.65625 C 307.648438 10.886719 306.929688 11.785156 306.277344 12.308594 C 304.984375 11.636719 303.710938 10.984375 301.84375 10.019531 C 302.125 12.457031 302.304688 14.125 302.597656 16.722656 Z M 330.097656 14.5 L 331.144531 14.320312 C 331.195312 13.714844 331.257812 13.09375 331.339844 12.046875 C 334.25 12.929688 336.902344 13.730469 339.8125 14.628906 C 339.679688 13.09375 339.53125 11.539062 339.449219 10.445312 C 337.292969 10.445312 335.332031 10.414062 333.367188 10.445312 C 332.042969 10.476562 330.71875 10.65625 329.378906 10.753906 C 329.625 12 329.871094 13.242188 330.097656 14.484375 Z M 290.269531 13.222656 C 290.335938 13.617188 290.417969 14.007812 290.480469 14.386719 C 291.398438 14.710938 292.3125 15.152344 293.261719 15.351562 C 294.292969 15.578125 295.402344 15.808594 296.417969 15.660156 C 297.21875 15.546875 297.96875 14.890625 298.707031 14.433594 C 299.359375 14.027344 300.226562 13.664062 300.539062 13.042969 C 300.699219 12.71875 299.914062 11.394531 299.574219 11.394531 C 298.558594 11.394531 297.527344 11.800781 296.53125 12.128906 C 295.550781 12.441406 294.632812 13.011719 293.652344 13.175781 C 292.558594 13.355469 291.414062 13.222656 290.285156 13.222656 Z M 321.121094 753.507812 C 321.300781 753.277344 322.023438 752.394531 322.511719 751.789062 L 316.96875 751.789062 C 316.757812 753.050781 316.460938 754.734375 316.054688 757.121094 C 317.785156 757.039062 319.324219 757.121094 320.761719 756.761719 C 321.074219 756.679688 320.976562 755.011719 321.140625 753.492188 Z M 154.839844 762.238281 C 153.53125 757.285156 149.835938 756.597656 145.535156 759.71875 C 148.65625 760.570312 151.308594 761.273438 154.839844 762.238281 Z M 291.742188 751.578125 C 291.332031 751.578125 290.941406 751.5625 290.53125 751.546875 C 289.910156 753.066406 289.304688 754.601562 288.894531 755.582031 C 291.085938 756.710938 292.65625 757.527344 294.242188 758.328125 C 294.488281 758.199219 294.75 758.085938 294.996094 757.953125 C 293.914062 755.828125 292.835938 753.6875 291.742188 751.5625 Z M 275.03125 753.246094 C 274.835938 753.589844 274.636719 753.933594 274.441406 754.257812 C 276.257812 755.5 278.070312 756.742188 279.886719 757.988281 C 280.34375 757.054688 281.441406 755.84375 281.160156 755.238281 C 279.871094 752.347656 277.007812 754.324219 275.03125 753.246094 Z M 550.550781 763.152344 C 552.089844 763.527344 553.691406 763.9375 555.621094 764.410156 C 555.144531 761.699219 554.820312 759.816406 554.34375 757.039062 C 552.839844 759.472656 551.890625 761.011719 550.550781 763.152344 Z M 550.550781 763.152344 " fill-opacity="1" fill-rule="nonzero"/><g clip-path="url(#d4d5104883)"><path fill="#64ffda" d="M 772.148438 34.96875 C 770.710938 35.507812 769.582031 35.949219 768.453125 36.375 C 768.617188 36.847656 768.78125 37.320312 768.960938 37.796875 C 769.992188 37.601562 771.035156 37.386719 773.015625 36.996094 C 772.066406 38.367188 771.511719 39.203125 770.875 40.117188 C 773.703125 40.871094 774.519531 43.09375 775.074219 46.214844 C 775.941406 51.023438 778.117188 55.566406 779.195312 60.355469 C 780.03125 64.132812 779.929688 68.105469 780.453125 71.964844 C 780.863281 74.988281 781.714844 77.964844 782.1875 80.988281 C 783.707031 90.976562 785.292969 100.949219 786.585938 110.972656 C 787.8125 120.5 788.582031 130.097656 789.757812 139.628906 C 791.671875 155.191406 794.042969 170.707031 795.644531 186.304688 C 796.691406 196.554688 796.578125 206.917969 797.261719 217.21875 C 797.882812 226.816406 798.964844 236.394531 799.667969 245.976562 C 800.304688 254.605469 800.8125 263.253906 801.21875 271.917969 C 801.859375 285.113281 802.347656 298.304688 802.953125 311.5 C 803.28125 318.789062 803.917969 326.082031 804.066406 333.371094 C 804.292969 345.40625 804.277344 357.4375 804.277344 369.484375 C 804.277344 373.277344 802.921875 377.449219 804.097656 380.765625 C 806.386719 387.175781 802.347656 393.679688 804.261719 398.976562 C 806.09375 404.0625 804.816406 408.460938 805.011719 413.054688 C 805.472656 423.222656 804.949219 433.441406 804.929688 443.640625 C 804.929688 449.902344 805.191406 456.148438 805.144531 462.410156 C 805.09375 467.707031 804.769531 473.003906 804.589844 478.316406 C 804.375 484.203125 804.113281 490.105469 804 495.988281 C 803.851562 503.902344 803.804688 511.8125 803.753906 519.726562 C 803.722656 525.171875 803.820312 530.597656 803.738281 536.042969 C 803.625 543.480469 803.3125 550.917969 803.261719 558.359375 C 803.261719 560.515625 804.488281 562.820312 804.066406 564.816406 C 803.214844 568.871094 804.128906 572.726562 804.34375 576.683594 C 804.425781 578.121094 803.785156 579.578125 803.769531 581.03125 C 803.574219 592.460938 803.214844 603.902344 803.363281 615.332031 C 803.542969 628.851562 804.292969 642.355469 804.539062 655.875 C 804.6875 663.640625 804.261719 671.421875 804.195312 679.203125 C 804.195312 681.246094 804.734375 683.292969 804.816406 685.351562 C 805.0625 691.382812 805.308594 697.417969 805.371094 703.449219 C 805.453125 712.210938 805.191406 720.992188 805.4375 729.738281 C 805.601562 735.949219 806.550781 742.128906 806.746094 748.339844 C 806.894531 752.558594 806.273438 756.808594 806.191406 761.058594 C 806.175781 762.105469 806.894531 763.167969 807.320312 764.199219 C 807.84375 765.472656 808.414062 766.734375 808.984375 768.007812 C 808.234375 768.300781 808.121094 768.351562 808.003906 768.382812 L 807.5 766.996094 C 807.269531 767.011719 807.058594 767.042969 806.828125 767.058594 C 807.023438 768.402344 806.878906 769.9375 807.515625 771.015625 C 808.804688 773.238281 810 782.785156 808.167969 784.011719 C 804.179688 786.679688 805.339844 789.539062 806.597656 792.890625 C 806.859375 793.609375 805.714844 794.753906 805.550781 795.765625 C 805.308594 797.289062 805.519531 798.890625 805.257812 800.410156 C 804.898438 802.386719 804.507812 805.871094 803.707031 806 C 800.695312 806.476562 801.253906 803.515625 800.8125 801.605469 C 800.125 798.613281 799.386719 795.636719 798.570312 792.285156 C 797.605469 792.5625 796.476562 792.90625 795.382812 793.21875 C 795.414062 792.695312 795.464844 792.15625 795.5625 790.617188 C 794.5 792.316406 793.960938 793.183594 793.453125 793.984375 C 793.0625 793.347656 792.683594 792.367188 792.441406 792.398438 C 790.574219 792.628906 789.167969 795.554688 786.847656 793.332031 C 786.652344 793.789062 786.457031 794.246094 785.980469 795.375 C 784.671875 790.632812 779.800781 788.164062 780.863281 782.65625 C 781.222656 780.839844 778.738281 778.113281 778.769531 776.867188 C 778.851562 772.960938 774.160156 771.050781 775.957031 766.113281 C 777.460938 761.941406 775.648438 756.53125 775.140625 751.691406 C 774.632812 746.886719 774.011719 742.097656 773.277344 737.324219 C 772.867188 734.640625 772.148438 731.992188 771.59375 729.441406 C 771.054688 729.328125 771.59375 729.441406 772.328125 729.605469 C 772.328125 727.332031 772.359375 724.996094 772.3125 722.65625 C 772.3125 722.085938 771.984375 721.023438 771.839844 721.039062 C 767.179688 721.269531 769.253906 718.34375 769.613281 716.296875 C 769.890625 714.664062 770.773438 713.257812 768.226562 712.144531 C 767.277344 711.738281 767.40625 708.632812 767.242188 706.75 C 767.144531 705.574219 767.390625 704.378906 767.488281 703.1875 C 767.128906 703.121094 766.769531 703.054688 766.410156 702.976562 C 767.0625 702.222656 767.71875 701.46875 768.386719 700.71875 C 766.277344 699.394531 765.820312 696.550781 767.128906 694.539062 C 767.570312 693.851562 767.898438 692.28125 767.570312 692.019531 C 764.429688 689.519531 766.230469 687.394531 768.160156 685.023438 C 764.90625 683.128906 764.59375 681.230469 768.519531 679.546875 C 764.789062 675.933594 765.476562 671.40625 765.394531 666.960938 C 765.296875 661.238281 764.789062 655.53125 764.59375 649.828125 C 764.480469 646.246094 764.59375 642.664062 764.59375 639.085938 C 764.59375 637.695312 764.449219 636.289062 764.511719 634.898438 C 764.546875 634.230469 764.871094 633.574219 765.117188 632.921875 C 765.363281 632.25 766 631.074219 765.917969 631.027344 C 761.699219 628.425781 765.3125 626.152344 766.394531 623.488281 C 765.296875 623.144531 764.300781 622.835938 763.746094 622.65625 C 763.746094 618.894531 763.710938 615.445312 763.777344 611.996094 C 763.777344 611.308594 764.105469 610.589844 764.449219 609.953125 C 765.101562 608.742188 765.855469 607.597656 766.574219 606.4375 C 766.277344 606.226562 766 606.011719 765.707031 605.800781 C 765.25 606.109375 764.808594 606.40625 763.859375 607.042969 C 763.859375 603.5625 763.941406 600.257812 763.84375 596.972656 C 763.726562 593.148438 762.976562 589.257812 763.386719 585.496094 C 764.039062 579.464844 761.421875 573.085938 765.199219 567.332031 C 765.460938 566.941406 764.398438 565.683594 763.875 564.699219 C 766.738281 563.949219 766.097656 561.53125 765.835938 558.78125 C 765.542969 555.792969 766.195312 552.71875 766.261719 549.675781 C 766.296875 548.550781 765.625 547.421875 765.625 546.292969 C 765.691406 540.863281 765.933594 535.4375 766 530.011719 C 766.050781 525.578125 765.871094 521.164062 765.902344 516.734375 C 765.902344 514.234375 766.179688 511.734375 766.277344 509.230469 C 766.539062 501.726562 766.917969 494.222656 766.949219 486.71875 C 766.949219 482.140625 766.296875 477.582031 766.117188 473.003906 C 765.96875 469.015625 766 465.027344 766.082031 461.035156 C 766.230469 452.796875 766.574219 444.542969 766.574219 436.300781 C 766.574219 432.410156 767.078125 428.570312 765.625 424.5625 C 764.757812 422.175781 766.425781 418.875 766.964844 415.996094 C 767.03125 415.621094 767.226562 415.246094 767.210938 414.867188 C 767.160156 409.03125 767.144531 403.179688 767.015625 397.34375 C 766.917969 392.570312 766.34375 387.78125 766.589844 383.023438 C 766.898438 377.039062 768.027344 371.105469 768.421875 365.121094 C 768.746094 360.234375 768.46875 355.296875 768.550781 350.390625 C 768.617188 346.597656 769.402344 342.691406 768.746094 339.03125 C 768.324219 336.609375 768.371094 334.304688 768.257812 331.949219 C 768.125 329.417969 768.042969 326.898438 767.964844 324.363281 C 767.703125 316.207031 766.589844 307.953125 767.441406 299.890625 C 768.371094 291.160156 766.589844 282.675781 766.882812 274.078125 C 767.097656 267.71875 767.703125 261.359375 767.75 255 C 767.78125 250.847656 766.410156 246.578125 766.964844 242.542969 C 768.109375 234.300781 767 226.144531 767.046875 217.953125 C 767.113281 206.511719 766.605469 195.066406 766.425781 183.605469 C 766.296875 174.566406 766.328125 165.523438 766.195312 156.484375 C 766 143.0625 765.738281 129.65625 765.511719 116.234375 C 765.25 101.554688 765.101562 86.855469 764.691406 72.175781 C 764.527344 66.128906 763.746094 60.09375 763.320312 54.046875 C 762.976562 49.191406 762.46875 44.320312 762.566406 39.464844 C 762.601562 37.617188 763.808594 35.492188 765.117188 34.085938 C 766.574219 32.53125 768.746094 31.648438 771.101562 30.175781 C 771.65625 32.746094 772 34.296875 772.148438 34.96875 Z M 771.96875 41.375 C 769.679688 45.644531 771.316406 53.128906 774.894531 54.847656 C 773.914062 50.335938 772.984375 46.019531 771.96875 41.375 Z M 771.96875 41.375 " fill-opacity="1" fill-rule="nonzero"/></g><path fill="#64ffda" d="M 101.488281 21.609375 C 92.214844 23.539062 82.683594 23.097656 73.300781 24.046875 C 73.265625 23.671875 73.21875 23.292969 73.183594 22.917969 C 82.535156 22.101562 91.871094 21.300781 101.226562 20.484375 C 101.308594 20.859375 101.40625 21.234375 101.488281 21.609375 Z M 101.488281 21.609375 " fill-opacity="1" fill-rule="nonzero"/><path fill="#64ffda" d="M 53.761719 758.558594 C 55.871094 758.558594 57.226562 758.476562 58.566406 758.609375 C 59.058594 758.65625 59.664062 759.082031 59.90625 759.507812 C 60.085938 759.832031 59.808594 760.847656 59.679688 760.863281 C 58.011719 760.976562 56.3125 761.140625 54.675781 760.894531 C 54.265625 760.832031 54.070312 759.390625 53.777344 758.574219 Z M 53.761719 758.558594 " fill-opacity="1" fill-rule="nonzero"/><path fill="#64ffda" d="M 61.902344 757.609375 C 64.273438 758.886719 65.957031 759.785156 68.394531 761.09375 C 65.925781 761.386719 64.207031 761.597656 62.097656 761.84375 C 62.050781 760.636719 61.984375 759.472656 61.902344 757.609375 Z M 61.902344 757.609375 " fill-opacity="1" fill-rule="nonzero"/><g fill="#64ffda" fill-opacity="1"><g transform="translate(184.821944, 577.101638)"><g><path d="M 310.421875 0 L 243.15625 0 L 218.8125 -74.5625 L 94.921875 -74.5625 L 70.578125 0 L 4.875 0 L 116.59375 -323.46875 L 198.6875 -323.46875 Z M 153.765625 -255.984375 L 112.171875 -128.328125 L 201.125 -128.328125 L 159.296875 -255.984375 Z M 153.765625 -255.984375 "/></g></g><g transform="translate(500.109045, 577.101638)"><g><path d="M 62.390625 1.984375 C 54.578125 1.984375 47.679688 0.398438 41.703125 -2.765625 C 35.734375 -5.929688 31.160156 -10.316406 27.984375 -15.921875 C 24.816406 -21.535156 23.234375 -27.878906 23.234375 -34.953125 C 23.234375 -42.035156 24.816406 -48.378906 27.984375 -53.984375 C 31.160156 -59.585938 35.734375 -64.007812 41.703125 -67.25 C 47.679688 -70.5 54.578125 -72.125 62.390625 -72.125 C 70.359375 -72.125 77.328125 -70.535156 83.296875 -67.359375 C 89.273438 -64.191406 93.847656 -59.804688 97.015625 -54.203125 C 100.191406 -48.597656 101.78125 -42.253906 101.78125 -35.171875 C 101.78125 -24.410156 98.203125 -15.523438 91.046875 -8.515625 C 83.890625 -1.515625 74.335938 1.984375 62.390625 1.984375 Z M 62.390625 1.984375 "/></g></g></g></svg>