<svg version="1.1" id="Laag_1" xmlns="http://www.w3.org/2000/svg" x="0" y="0" viewBox="0 0 2500 2246" xml:space="preserve" fill="#53c1de" class="w-auto mx-auto h-auto block React"><path d="M1963.1 778c-23.5-8.1-47.2-15.5-71-22.4 4-16.1 7.6-32.2 11-48.4 53.8-261 18.6-471.3-101.4-540.5-115.1-66.4-303.4 2.8-493.5 168.3-18.7 16.3-37.1 33.2-54.9 50.4-12-11.5-24.2-22.7-36.6-33.8-199.3-176.9-399-251.5-518.9-182.1-115 66.6-149.1 264.2-100.7 511.6 4.8 24.5 10.3 48.9 16.3 73.1-28.3 8-55.6 16.6-81.7 25.7-233.7 81.5-382.8 209.2-382.8 341.6 0 136.8 160.1 273.9 403.5 357.1 19.7 6.7 39.6 12.9 59.7 18.7-6.5 26.1-12.3 52.4-17.3 78.8-46.2 243.1-10.1 436 104.6 502.2 118.5 68.3 317.3-1.9 510.9-171.1 15.3-13.4 30.7-27.6 46-42.4 19.4 18.7 39.3 36.8 59.6 54.4 187.5 161.4 372.7 226.5 487.3 160.2 118.4-68.5 156.8-275.8 106.9-528.1-3.8-19.3-8.3-38.9-13.2-59 14-4.1 27.7-8.4 41-12.8 253-83.8 417.5-219.3 417.5-357.9 0-133-154-261.5-392.3-343.6zM1370 406.1c162.9-141.8 315.2-197.7 384.5-157.7 73.9 42.6 102.6 214.5 56.2 439.8-3 14.7-6.4 29.3-9.9 43.9-91.5-21.1-190.9-36.8-295-46.6-60.6-86.3-123.5-164.8-186.5-232.8 16.4-16 33.4-31.5 50.7-46.6zm-569.6 828.5c20 38.5 40.8 76.6 62.6 114.2 22.2 38.3 45.3 76.1 69.3 113.3-72.3-8.1-140.4-19-203.4-32.7 19.4-63 43.4-128.3 71.5-194.8zm-.2-221.7c-27.4-65.1-50.9-129.1-70.1-190.9 63-14.1 130.1-25.6 200-34.3-23.4 36.5-46 73.6-67.6 111.2-21.6 37.4-42.4 75.5-62.3 114zm50.2 110.8c29-60.5 60.3-119.8 93.9-177.9 33.5-58.1 69.2-114.9 107-170.3 65.6-5 132.9-7.6 200.9-7.6 68.3 0 135.7 2.6 201.3 7.6 37.4 55.3 72.9 111.9 106.3 169.7 33.6 58 65.3 117 95.1 177-29.5 60.6-61.1 120.2-94.8 178.6-33.4 58.1-68.7 115-105.9 170.8-65.5 4.7-133.1 7.1-202.1 7.1-68.7 0-135.5-2.1-199.8-6.3-38.1-55.6-74.1-112.7-107.8-171.1-33.6-57.8-65-117.1-94.1-177.6zm791.3 224.4c22.2-38.5 43.5-77.5 64-116.9 29.5 67.2 54.4 132.3 74.1 194.1-64 14.6-133.1 26.4-205.8 35.1 23.3-37 45.8-74.4 67.7-112.3zm63.1-335.2c-20.4-38.7-41.6-77-63.5-114.8-21.6-37.3-43.9-74.1-67.1-110.3 70.4 8.9 137.9 20.7 201.2 35.2-19 60.9-42.7 124.6-70.6 189.9zm-451.6-492.8c43.5 47.1 87 99.7 129.8 156.8-86.9-4.1-173.9-4.1-260.8-.1 42.9-56.6 86.8-109.1 131-156.7zM744.9 251.2c73.8-42.7 237.1 18.2 409.1 171 11 9.8 22 20 33.1 30.6-64.1 68.8-127.4 147.2-188 232.6-103.8 9.6-203.1 25.1-294.4 45.8-5.6-22.5-10.7-45.2-15.2-68-41.5-212-13.9-371.9 55.4-412zM637.3 1406.4c-18.3-5.2-36.5-10.9-54.5-17.1-107.6-36.8-196.4-84.6-257.4-136.7-54.7-46.9-82.4-93.4-82.4-131.2 0-80.3 119.8-182.8 319.6-252.5 25.1-8.7 50.4-16.7 75.9-23.9 27.6 89.8 63.8 183.7 107.5 278.7-44.1 96.4-80.8 191.8-108.7 282.7zm510.8 429.6c-85.6 74.8-171.4 127.9-247 154.6-67.9 24-122 24.7-154.7 5.8-69.6-40.1-98.5-195.1-59.1-403 4.7-24.6 10.1-49 16.1-73.3 90.4 20 190.4 34.4 297.4 43 61 85.9 125 164.9 189.4 234-13.7 13.5-27.8 26.4-42.1 38.9zm107.7-106.5c-44.7-48.2-89.2-101.5-132.8-158.9 42.2 1.7 85.3 2.5 129.1 2.5 45 0 89.4-1 133.2-3-43 58.5-86.4 111.9-129.5 159.4zm572.4 131.2c-13.1 70.8-39.6 118.1-72.2 137-69.5 40.3-218.3-12.1-378.6-150.1-18.4-15.8-36.9-32.7-55.5-50.6 62.2-68 124.3-147.1 185-234.9 106.7-9.5 207.5-24.9 298.8-46.1 4.5 18.2 8.5 36 11.9 53.4 22 111.6 25.2 212.4 10.6 291.3zm80-470.8c-12.1 4-24.5 7.9-37.1 11.6-27.9-88.4-65.6-182.4-111.7-279.5 44-94.8 80.2-187.6 107.4-275.5 22.6 6.5 44.5 13.4 65.6 20.7 204.2 70.3 328.7 174.2 328.7 254.3 0 85.3-134.5 196-352.9 268.4z"></path> <path d="M1252.1 924.4c108.8 0 197 88.2 197 197s-88.2 197-197 197-197-88.2-197-197 88.2-197 197-197"></path></svg>