<?xml version="1.0" encoding="utf-8"?>
<!-- Generator: Adobe Illustrator 26.0.1, SVG Export Plug-In . SVG Version: 6.00 Build 0)  -->
<svg version="1.1" id="Layer_2_00000083071137282717477560000003018808544326357664_"
	 xmlns="http://www.w3.org/2000/svg" xmlns:xlink="http://www.w3.org/1999/xlink" x="0px" y="0px" viewBox="0 0 1183.6 268.5"
	 style="enable-background:new 0 0 1183.6 268.5;" xml:space="preserve">
<style type="text/css">
	.st0{fill:url(#SVGID_1_);}
	.st1{fill:url(#SVGID_00000104670168861758130160000013285654348625164471_);}
	.st2{fill:url(#SVGID_00000091711627574283533760000004008456670997696411_);}
	.st3{fill:url(#SVGID_00000098920398143371791520000000366637536656801200_);}
	.st4{fill:url(#SVGID_00000026874640402754501440000002421401328367118224_);}
	.st5{fill:url(#SVGID_00000129165113827766177300000005822826345931945621_);}
	.st6{display:none;opacity:0.2;}
	.st7{display:inline;}
	.st8{display:none;opacity:0.15;}
	.st9{fill:none;}
	.st10{fill:#FFFFFF;}
	.st11{display:none;fill:#FFFFFF;enable-background:new    ;}
	.st12{font-family:'ArialMT';}
	.st13{font-size:24px;}
	.st14{fill:#1A181E;}
</style>
<g>
	
		<linearGradient id="SVGID_1_" gradientUnits="userSpaceOnUse" x1="-6838.6777" y1="2911.0906" x2="-6874.771" y2="2802.6106" gradientTransform="matrix(-0.9958 -9.184929e-02 -9.184929e-02 0.9958 -6431.2363 -3424.2593)">
		<stop  offset="0" style="stop-color:#136BE6"/>
		<stop  offset="0.19" style="stop-color:#006BE6"/>
		<stop  offset="0.84" style="stop-color:#0000D0"/>
	</linearGradient>
	<path class="st0" d="M143.6,1c41.1,3,79.9,24.2,94.8,51.7c-9.8-14-35.5-21.2-53.2-20.1c-21.8,1.4-41.8,13.5-59.6,23.7
		c-20.8,12-42.4,21-67.8,20.1c-14-0.5-35.6-11.3-27.5-28.6c1.1-2.4,2.8-4.5,4.6-6.5C60.7,14.1,100.5-2.2,143.6,1z"/>
	
		<linearGradient id="SVGID_00000034087406657408427430000002431572240874293650_" gradientUnits="userSpaceOnUse" x1="238.2052" y1="3214.7395" x2="371.6279" y2="3326.6951" gradientTransform="matrix(0.9997 -2.373425e-02 2.373425e-02 0.9997 -243.1316 -3212.4976)">
		<stop  offset="0" style="stop-color:#0341DD"/>
		<stop  offset="9.000000e-02" style="stop-color:#136BE6;stop-opacity:0.97"/>
		<stop  offset="0.21" style="stop-color:#136BE6;stop-opacity:0.93"/>
		<stop  offset="0.31" style="stop-color:#136BE6;stop-opacity:0.91"/>
		<stop  offset="0.39" style="stop-color:#136BE6"/>
		<stop  offset="0.6744" style="stop-color:#136BE6"/>
		<stop  offset="1" style="stop-color:#003ADC"/>
	</linearGradient>
	<path style="fill:url(#SVGID_00000034087406657408427430000002431572240874293650_);" d="M129.7,0.6c-41,0.6-84.2,22.6-99.1,46.5
		c11.1-13.5,37.2-19,54.7-17c21.7,2.4,40.5,15.5,57.3,26.5c19.6,12.9,40.4,22.9,65.8,23.3c14,0.2,36.6-9.6,30.1-27.2
		c-0.9-2.4-2.4-4.6-4-6.7C213.3,17.4,173.1,0,129.7,0.6z"/>
</g>
<g>
	
		<linearGradient id="SVGID_00000038381086431448551050000011922226088737676712_" gradientUnits="userSpaceOnUse" x1="-7692.9614" y1="-735.27" x2="-7729.061" y2="-843.7667" gradientTransform="matrix(0.4184 0.9083 0.9083 -0.4184 4005.9075 6850.4639)">
		<stop  offset="0" style="stop-color:#136BE6"/>
		<stop  offset="0.19" style="stop-color:#006BE6"/>
		<stop  offset="0.84" style="stop-color:#0000D0"/>
	</linearGradient>
	<path style="fill:url(#SVGID_00000038381086431448551050000011922226088737676712_);" d="M15.5,193.4c-18-37.1-19-81.3-2.6-107.9
		c-7.2,15.5-0.6,41.3,9.2,56.1c12.1,18.2,32.6,29.4,50.3,39.8c20.8,12,39.4,26.2,51.3,48.7c6.6,12.4,8,36.5-11,38.1
		c-2.6,0.2-5.3-0.2-7.9-0.7C68.3,258.6,34.3,232.3,15.5,193.4z"/>
	
		<linearGradient id="SVGID_00000160884658970576530840000005896129691507442048_" gradientUnits="userSpaceOnUse" x1="1507.7783" y1="-308.7831" x2="1641.2128" y2="-196.8175" gradientTransform="matrix(-0.5204 -0.8539 0.8539 -0.5204 1095.3021 1385.4823)">
		<stop  offset="0" style="stop-color:#0341DD"/>
		<stop  offset="9.000000e-02" style="stop-color:#136BE6;stop-opacity:0.97"/>
		<stop  offset="0.21" style="stop-color:#136BE6;stop-opacity:0.93"/>
		<stop  offset="0.31" style="stop-color:#136BE6;stop-opacity:0.91"/>
		<stop  offset="0.39" style="stop-color:#136BE6"/>
		<stop  offset="0.6744" style="stop-color:#136BE6"/>
		<stop  offset="1" style="stop-color:#003ADC"/>
	</linearGradient>
	<path style="fill:url(#SVGID_00000160884658970576530840000005896129691507442048_);" d="M22.1,205.6c21,35.2,61.7,61.6,89.8,62.6
		c-17.2-2.9-35.1-22.7-42.1-38.9c-8.8-20-6.8-42.8-5.7-62.9c1.4-23.4-0.4-46.4-12.7-68.6c-6.8-12.2-26.6-26.9-38.6-12.5
		c-1.6,2-2.8,4.4-3.8,6.8C-5.1,124.8-0.1,168.3,22.1,205.6z"/>
</g>
<g>
	
		<linearGradient id="SVGID_00000166635069907071059430000001390250162995672714_" gradientUnits="userSpaceOnUse" x1="-10428.9053" y1="1830.8641" x2="-10465.0322" y2="1722.2855" gradientTransform="matrix(0.5774 -0.8165 -0.8165 -0.5774 7685.5913 -7325.7715)">
		<stop  offset="0" style="stop-color:#136BE6"/>
		<stop  offset="0.19" style="stop-color:#006BE6"/>
		<stop  offset="0.84" style="stop-color:#0000D0"/>
	</linearGradient>
	<path style="fill:url(#SVGID_00000166635069907071059430000001390250162995672714_);" d="M240.7,210.7
		c-23.1,34.1-60.9,57.1-92.2,56.2c17-1.5,36.1-20.1,44-36c9.7-19.6,9.2-42.9,9.3-63.5c0-24,3-47.2,16.5-68.8
		c7.4-11.9,27.6-25.2,38.5-9.5c1.5,2.2,2.5,4.7,3.3,7.2C270.8,132.3,265,174.9,240.7,210.7z"/>
	
		<linearGradient id="SVGID_00000169556327672295879750000015017398549881746094_" gradientUnits="userSpaceOnUse" x1="3929.3486" y1="2556.0454" x2="4062.7773" y2="2668.0063" gradientTransform="matrix(-0.4793 0.8776 -0.8776 -0.4793 4408.0454 -2072.5767)">
		<stop  offset="0" style="stop-color:#0341DD"/>
		<stop  offset="9.000000e-02" style="stop-color:#136BE6;stop-opacity:0.97"/>
		<stop  offset="0.21" style="stop-color:#136BE6;stop-opacity:0.93"/>
		<stop  offset="0.31" style="stop-color:#136BE6;stop-opacity:0.91"/>
		<stop  offset="0.39" style="stop-color:#136BE6"/>
		<stop  offset="0.6744" style="stop-color:#136BE6"/>
		<stop  offset="1" style="stop-color:#003ADC"/>
	</linearGradient>
	<path style="fill:url(#SVGID_00000169556327672295879750000015017398549881746094_);" d="M248,198.8c20-35.8,22.5-84.2,9.3-109.1
		c6.1,16.4-2.1,41.7-12.6,55.9c-12.9,17.6-33.7,27.3-51.6,36.4c-21,10.5-40,23.5-53.1,45.3c-7.2,12-10,36.5,8.5,39.7
		c2.5,0.4,5.2,0.2,7.8-0.1C191.6,262.8,226.8,236.7,248,198.8z"/>
</g>
<g class="st6">
	<path class="st7" d="M223.9,34.4l-0.1-0.1C195.6,10.6,164.7,0.6,128,0.1c-0.4,0-0.7,0-1.1,0c3.8-0.2,5.8-0.2,9.7-0.1
		c-0.9,0-1.3,0-2.3,0c-4.1-0.1-6.1,0-9.9,0.2c-0.1,0-0.2,0-0.3,0C127.9,0,129.9,0,134,0c-1.1,0-1.6,0-2.7,0c-4.2,0-6.3,0.1-10.3,0.4
		c-0.1,0-0.2,0-0.3,0c4-0.4,6.1-0.5,10.3-0.5c-1.1,0-1.6,0-2.6,0.1c-4.4,0-6.6,0.2-10.6,0.7c-0.1,0-0.2,0-0.3,0
		c4.1-0.5,6.2-0.7,10.7-0.7c-1.1,0-1.6,0.1-2.6,0.1c-4.6,0.1-6.8,0.3-11,0.9c-0.1,0-0.2,0-0.3,0c4.1-0.6,6.4-0.8,11-0.9
		c-1.1,0.1-1.6,0.1-2.6,0.2c-4.7,0.1-7.1,0.4-11.3,1.1c-0.1,0-0.2,0-0.3,0c4.2-0.8,6.6-1,11.3-1.2c-1,0.1-1.6,0.1-2.6,0.3
		c-4.9,0.2-7.3,0.5-11.6,1.4c-0.1,0-0.2,0-0.3,0.1c4.3-0.9,6.7-1.2,11.7-1.4c-1,0.1-1.5,0.2-2.6,0.3c-5.1,0.3-7.6,0.6-11.9,1.6
		c-0.1,0-0.2,0-0.3,0.1c4.4-1,6.9-1.4,12-1.7c-1,0.1-1.5,0.2-2.5,0.4c-5.2,0.4-7.8,0.7-12.3,1.9c-0.1,0-0.2,0-0.3,0.1
		c4.4-1.2,7.1-1.6,12.3-1.9c-1,0.2-1.5,0.2-2.5,0.4c-5.4,0.4-8.1,0.9-12.6,2.2c-0.1,0-0.2,0.1-0.3,0.1c4.5-1.3,7.2-1.8,12.6-2.2
		c-1,0.2-1.5,0.3-2.5,0.5c-5.6,0.5-8.3,1-12.9,2.4c-0.1,0-0.2,0.1-0.3,0.1c4.6-1.5,7.3-2,12.9-2.5c-1,0.2-1.5,0.3-2.5,0.5
		c-5.7,0.6-8.6,1.1-13.2,2.7C92,6,91.8,6,91.4,6.2c4.7-1.7,7.5-2.2,13.3-2.8c-1,0.2-1.5,0.3-2.4,0.6c-6,0.6-8.9,1.2-13.6,3
		c-0.1,0-0.2,0.1-0.3,0.1C93.1,5.3,96.1,4.7,102,4c-1,0.2-1.4,0.4-2.4,0.7C93.5,5.4,90.5,6.1,85.7,8c-0.1,0-0.2,0.1-0.3,0.1
		c4.8-2,7.8-2.6,14-3.4c-1,0.3-1.5,0.5-2.4,0.8C90.7,6.3,87.7,7,82.8,9.1c-0.1,0.1-0.2,0.1-0.3,0.1c4.9-2.1,8-2.8,14.3-3.7
		c-0.9,0.3-1.4,0.4-2.3,0.8C88,7.2,84.8,8,79.9,10.2c-0.1,0.1-0.2,0.1-0.3,0.1c5-2.3,8.1-3.1,14.6-4c-0.9,0.3-1.3,0.5-2.3,0.8
		C85.2,8.2,82,9,77,11.4c-0.1,0.1-0.2,0.1-0.3,0.1c5-2.4,8.3-3.3,14.9-4.3c-1,0.4-1.4,0.5-2.4,0.9c-6.8,1.1-10.1,2-15.2,4.6
		c-0.1,0.1-0.2,0.1-0.3,0.1c5.1-2.6,8.4-3.5,15.2-4.6c-1,0.4-1.4,0.6-2.4,1c-6.9,1.2-10.3,2.1-15.5,4.9c-0.1,0.1-0.2,0.1-0.3,0.1
		c5.2-2.8,8.6-3.7,15.5-4.9c-0.9,0.4-1.4,0.6-2.3,1c-7.1,1.3-10.5,2.3-15.8,5.2c-0.1,0.1-0.2,0.1-0.3,0.2c5.2-2.9,8.7-4,15.8-5.3
		c-0.9,0.4-1.4,0.6-2.3,1.1c-7.2,1.4-10.8,2.5-16.1,5.6c-0.1,0.1-0.2,0.1-0.3,0.2c5.3-3.1,8.8-4.2,16.1-5.6
		c-0.9,0.4-1.4,0.7-2.3,1.1c-7.4,1.5-11,2.7-16.3,5.9c-0.1,0.1-0.2,0.1-0.3,0.2c5.4-3.3,9-4.5,16.4-5.9c-0.9,0.5-1.3,0.7-2.2,1.2
		c-7.5,1.6-11.2,2.8-16.6,6.2c-0.4,0.2-0.6,0.4-1,0.6c5.4-3.5,9.2-4.8,16.7-6.4c-0.8,0.4-1.1,0.6-1.9,1.1c-7.7,1.7-11.5,3-17,6.7
		c-0.1,0.1-0.2,0.1-0.3,0.2c5.5-3.6,9.3-5,17-6.7c-0.9,0.5-1.3,0.8-2.1,1.3c-7.8,1.8-11.7,3.2-17.2,7c-0.1,0.1-0.2,0.1-0.3,0.2
		c5.5-3.8,9.4-5.2,17.3-7c-0.8,0.5-1.3,0.8-2.1,1.4c-8,1.9-11.9,3.4-17.5,7.4c-0.1,0.1-0.2,0.1-0.3,0.2c5.6-4,9.5-5.5,17.5-7.4
		c-0.8,0.5-1.2,0.8-2,1.4c-8.1,2-12.1,3.6-17.8,7.7c-0.1,0.1-0.2,0.1-0.3,0.2c5.7-4.2,9.6-5.7,17.8-7.8c-0.8,0.6-1.2,0.9-2,1.4
		C56,24,52,25.7,46.3,30c-0.1,0.1-0.2,0.1-0.2,0.2c5.7-4.4,9.8-6,18.1-8.1c-0.8,0.6-1.2,0.9-2,1.5c-8.4,2.2-12.5,3.9-18.3,8.5
		c-0.1,0.1-0.2,0.1-0.2,0.2c5.8-4.6,9.9-6.3,18.3-8.5c-0.8,0.6-1.2,0.9-1.9,1.5c-8.6,2.4-12.7,4.1-18.5,8.9
		c-0.1,0.1-0.1,0.1-0.2,0.2c5.8-4.8,10-6.5,18.6-8.9c-0.8,0.6-1.1,0.9-1.8,1.6c-8.7,2.5-13,4.3-18.8,9.3c-0.1,0.1-0.1,0.1-0.2,0.2
		c5.8-5,10.1-6.8,18.8-9.3c-0.7,0.6-1.1,1-1.8,1.6c-8.8,2.6-13.1,4.5-19,9.7c-0.1,0.1-0.1,0.1-0.2,0.2c5.9-5.1,10.2-7.1,19-9.7
		c-0.7,0.7-1,1-1.7,1.7c-9,2.7-13.3,4.7-19.3,10.1c-0.1,0.1-0.1,0.2-0.2,0.2c5.9-5.3,10.3-7.3,19.3-10.1c-0.6,0.6-0.9,0.9-1.5,1.6
		c-9.1,2.8-13.5,4.9-19.5,10.4c-0.3,0.3-0.4,0.5-0.7,0.9C47,29.4,82.7,24.9,102,33.4c15.2,6.6,30.4,16.7,46.4,26.2
		c9.5,5.7,32.7,17.9,53.2,19.2c24.5,1.5,46.6-10.2,33.3-32.7l-0.1-0.1c4.1,7.8,6.2,12.4,2.9,18.6c-0.2-0.4-0.3-0.6-0.5-0.9
		c3.2-6,2.7-11-2.7-18l0,0c5.4,6.9,5.9,12,2.6,17.9c-0.2-0.4-0.4-0.6-0.6-1.1c3.2-5.7,2.8-10.5-2.3-17.2l0,0
		c5.1,6.6,5.6,11.4,2.3,17.1c-0.2-0.4-0.4-0.6-0.6-1.1c3.2-5.4,2.9-10-2-16.4l0,0c4.8,6.3,5.2,10.9,2,16.3c-0.2-0.4-0.3-0.6-0.6-1
		c3.3-5.1,2.9-9.6-1.7-15.5l0,0c4.6,6,4.9,10.4,1.6,15.5c-0.2-0.4-0.3-0.6-0.6-1c3.3-4.8,3-9.1-1.3-14.8l0,0
		c4.3,5.7,4.6,9.9,1.3,14.7c-0.2-0.4-0.3-0.6-0.6-1c3.3-4.6,3.1-8.6-1-14l0,0c4,5.3,4.2,9.3,1,13.9c-0.2-0.4-0.3-0.6-0.6-1
		c3.3-4.3,3.1-8.1-0.7-13.2l0,0c3.8,5,3.9,8.8,0.6,13.1c-0.2-0.4-0.3-0.6-0.6-1c3.3-4,3.2-7.6-0.4-12.4l0,0
		c3.5,4.7,3.6,8.3,0.3,12.3c-0.2-0.4-0.3-0.6-0.6-1c3.2-3.8,3.2-7.2-0.1-11.6l0,0c3.3,4.4,3.3,7.8,0,11.5c-0.2-0.4-0.3-0.6-0.6-1
		c3.2-3.5,3.3-6.7,0.2-10.8l0,0c3,4.1,3,7.3-0.3,10.8l-0.5-0.9c3.2-3.2,3.3-6.3,0.5-10.2l-0.1-0.1c2.8,3.8,2.6,6.7-0.6,9.9
		c-0.2-0.4-0.3-0.6-0.6-1c3.2-2.9,3.4-5.7,0.9-9.2l0,0c2.5,3.5,2.3,6.2-0.9,9.1c-0.2-0.4-0.3-0.6-0.5-1c3.2-2.7,3.4-5.2,1.2-8.5l0,0
		c2.3,3.2,2,5.8-1.2,8.4c-0.2-0.4-0.3-0.6-0.5-1c3.2-2.4,3.5-4.8,1.4-7.7l0,0c2,2.9,1.7,5.3-1.5,7.6c-0.2-0.4-0.3-0.6-0.5-1
		c3.2-2.1,3.5-4.3,1.7-7l0,0c1.8,2.6,1.4,4.8-1.8,6.9c-0.2-0.4-0.3-0.6-0.5-1c3.2-1.9,3.6-3.9,2-6.2l0,0c1.5,2.3,1.1,4.3-2,6.1
		c-0.2-0.4-0.3-0.6-0.5-1c3.1-1.6,3.6-3.5,2.3-5.5l0,0c1.3,2,0.8,3.8-2.3,5.4c-0.2-0.4-0.3-0.6-0.5-1c3.1-1.4,3.6-3,2.6-4.8l0,0
		c1.1,1.7,0.5,3.3-2.6,4.7c-0.2-0.4-0.3-0.6-0.5-1c3.1-1.1,3.7-2.6,2.8-4l0,0c0.8,1.4,0.2,2.9-2.9,4c-0.2-0.4-0.3-0.6-0.6-0.9
		c3.1-0.9,3.7-2.2,3.1-3.3l0,0c0.6,1.2-0.1,2.4-3.1,3.3c-0.2-0.4-0.3-0.6-0.5-0.9c3.1-0.6,3.7-1.7,3.4-2.6l0,0
		c0.3,0.9-0.4,1.9-3.4,2.5c-0.2-0.4-0.3-0.6-0.5-0.9c3-0.4,3.8-1.3,3.6-1.9l-0.1-0.1c0,0.5-0.7,1.4-3.8,1.7
		c-0.2-0.4-0.3-0.6-0.5-0.9c3-0.1,3.8-0.8,4-1.1l0,0c-0.2,0.3-1,0.9-4,1c-0.2-0.4-0.3-0.5-0.5-0.9c3,0.1,3.8-0.3,4.2-0.4l0,0
		c-0.4,0-1.3,0.5-4.3,0.3c-0.2-0.4-0.3-0.5-0.5-0.9c3,0.4,3.9,0.1,4.5,0.3l0,0c-0.7-0.3-1.6,0-4.5-0.4c-0.2-0.4-0.3-0.5-0.5-0.9
		c2.9,0.6,3.9,0.5,4.8,1l0,0c-0.9-0.5-1.9-0.4-4.8-1c-0.2-0.4-0.3-0.5-0.5-0.9c2.9,0.8,3.9,0.9,5,1.7l0,0c-1.1-0.8-2.1-0.9-5.1-1.7
		c-0.2-0.4-0.3-0.5-0.5-0.9c2.9,1,3.9,1.3,5.3,2.3l0,0c-1.4-1.1-2.4-1.3-5.3-2.4c-0.2-0.4-0.3-0.5-0.5-0.9c2.9,1.3,4,1.7,5.5,3l0,0
		c-1.6-1.3-2.7-1.7-5.6-3c-0.2-0.3-0.3-0.5-0.5-0.9c2.8,1.5,4,2.1,5.8,3.6l0,0c-1.8-1.6-3-2.2-5.8-3.7c-0.2-0.4-0.3-0.5-0.5-0.9
		c2.8,1.7,4,2.5,6,4.3l0,0c-2-1.8-3.2-2.6-6-4.3c-0.2-0.4-0.3-0.5-0.5-0.9c2.8,1.9,4,2.8,6.2,4.9l0,0c-2.3-2.1-3.5-3-6.3-5
		c-0.2-0.3-0.3-0.5-0.5-0.7C220.2,31,221.5,32,223.9,34.4L223.9,34.4z M142.4,45.7c0.3-0.7,0.5-1,0.8-1.6c7,4.5,10.4,6.7,17.5,10.6
		c-0.2,0.7-0.3,1.1-0.6,1.8C152.9,52.6,149.5,50.3,142.4,45.7L142.4,45.7z M160.1,56.7c-0.2,0.7-0.3,1.1-0.5,1.8
		c-7.4-4-10.8-6.2-18-11c0.3-0.7,0.4-1,0.8-1.7C149.4,50.5,152.8,52.8,160.1,56.7L160.1,56.7z M143.3,43.9c0.3-0.7,0.5-1,0.8-1.6
		c6.9,4.5,10.2,6.6,17.2,10.4c-0.2,0.7-0.4,1.1-0.6,1.8C153.6,50.6,150.3,48.4,143.3,43.9z M144.2,42.1c0.3-0.6,0.5-1,0.8-1.6
		c6.8,4.4,10.1,6.5,17,10.2c-0.2,0.7-0.4,1-0.6,1.8C154.4,48.7,151.1,46.5,144.2,42.1z M145.1,40.3c0.3-0.6,0.5-0.9,0.9-1.6
		c6.7,4.3,9.9,6.3,16.7,10c-0.2,0.7-0.4,1-0.6,1.7C155.1,46.8,151.9,44.7,145.1,40.3L145.1,40.3z M146.1,38.6
		c0.4-0.6,0.5-0.9,0.9-1.5c6.6,4.2,9.7,6.2,16.4,9.8c-0.3,0.7-0.4,1-0.6,1.7C155.9,44.9,152.7,42.8,146.1,38.6z M147,36.9
		c0.4-0.6,0.5-0.9,0.9-1.5c6.5,4.1,9.6,6.1,16.1,9.6c-0.3,0.7-0.4,1-0.7,1.7C156.8,43.1,153.6,41,147,36.9L147,36.9z M148.1,35.2
		c0.3-0.5,0.5-0.8,0.8-1.3c6.4,4,9.4,6,15.9,9.5c-0.2,0.6-0.4,0.9-0.6,1.4C157.6,41.2,154.5,39.3,148.1,35.2z M149.2,33.3
		c0.4-0.6,0.6-0.9,1-1.4c6.2,3.9,9.2,5.8,15.5,9.2c-0.3,0.7-0.4,1-0.7,1.6C158.6,39.2,155.6,37.3,149.2,33.3L149.2,33.3z
		 M150.3,31.7c0.4-0.6,0.6-0.9,1-1.4c6.1,3.8,9,5.6,15.2,9c-0.3,0.6-0.4,1-0.7,1.6C159.5,37.5,156.5,35.6,150.3,31.7L150.3,31.7z
		 M151.4,30.2c0.4-0.5,0.6-0.8,1-1.4c6,3.7,8.9,5.5,14.9,8.8c-0.3,0.6-0.4,0.9-0.7,1.6C160.4,35.8,157.5,34,151.4,30.2L151.4,30.2z
		 M152.6,28.6c0.4-0.5,0.6-0.8,1-1.3c5.9,3.6,8.7,5.3,14.6,8.5c-0.3,0.6-0.5,0.9-0.8,1.5C161.4,34.1,158.5,32.3,152.6,28.6z
		 M153.7,27.2c0.4-0.5,0.6-0.8,1.1-1.3c5.8,3.5,8.5,5.2,14.3,8.3c-0.3,0.6-0.5,0.9-0.8,1.5C162.4,32.5,159.6,30.7,153.7,27.2
		L153.7,27.2z M154.9,25.7c0.4-0.5,0.6-0.8,1.1-1.3c5.6,3.3,8.3,5,14,8c-0.3,0.6-0.5,0.9-0.8,1.5C163.4,30.8,160.6,29.1,154.9,25.7
		L154.9,25.7z M156.1,24.3c0.4-0.5,0.6-0.7,1-1.2c5.5,3.2,8.2,4.8,13.7,7.8c-0.3,0.6-0.4,0.9-0.8,1.4
		C164.4,29.3,161.7,27.6,156.1,24.3z M157.2,22.9c0.4-0.5,0.6-0.7,1-1.2c5.4,3.1,8,4.6,13.4,7.5c-0.3,0.6-0.5,0.8-0.8,1.4
		C165.4,27.7,162.7,26.2,157.2,22.9L157.2,22.9z M158.4,21.6c0.4-0.5,0.6-0.7,1.1-1.1c5.3,3,7.8,4.5,13.1,7.2
		c-0.3,0.5-0.5,0.8-0.8,1.4C166.4,26.3,163.8,24.7,158.4,21.6z M159.6,20.4c0.4-0.5,0.6-0.7,1.1-1.1c5.1,2.9,7.6,4.3,12.7,7
		c-0.3,0.5-0.5,0.8-0.8,1.4C167.4,24.8,164.8,23.3,159.6,20.4L159.6,20.4z M160.8,19.1c0.4-0.4,0.6-0.6,1.1-1.1
		c5,2.7,7.4,4.1,12.4,6.7c-0.3,0.5-0.5,0.8-0.8,1.3C168.3,23.4,165.9,22,160.8,19.1L160.8,19.1z M162.3,17.6c0.4-0.4,0.7-0.6,1.1-1
		c4.9,2.6,7.2,3.9,12,6.4c-0.3,0.5-0.5,0.8-0.8,1.3C169.6,21.7,167.2,20.3,162.3,17.6L162.3,17.6z M163.5,16.5
		c0.4-0.4,0.7-0.6,1.1-1c4.7,2.5,7,3.7,11.7,6.1c-0.3,0.5-0.5,0.8-0.8,1.3C170.7,20.3,168.3,19,163.5,16.5L163.5,16.5z M164.7,15.3
		c0.4-0.4,0.7-0.6,1.1-1c4.6,2.3,6.8,3.5,11.4,5.8c-0.3,0.5-0.5,0.7-0.8,1.2C171.7,19,169.4,17.8,164.7,15.3L164.7,15.3z M166,14.3
		c0.5-0.4,0.7-0.6,1.1-0.9c4.5,2.2,6.6,3.3,11,5.5c-0.3,0.5-0.5,0.7-0.9,1.2C172.8,17.7,170.6,16.6,166,14.3L166,14.3z M167.3,13.2
		c0.5-0.4,0.7-0.6,1.2-0.9c4.3,2.1,6.4,3.1,10.7,5.2c-0.4,0.5-0.5,0.7-0.9,1.2C173.9,16.5,171.7,15.4,167.3,13.2L167.3,13.2z
		 M168.6,12.2c0.5-0.4,0.7-0.5,1.2-0.9c4.2,1.9,6.2,2.9,10.4,4.8c-0.4,0.5-0.5,0.7-0.9,1.1C175,15.3,172.9,14.2,168.6,12.2
		L168.6,12.2z M169.9,11.2c0.5-0.3,0.7-0.5,1.2-0.8c4.1,1.8,6.1,2.7,10,4.5c-0.4,0.4-0.5,0.7-0.9,1.1
		C176.1,14.1,174.1,13.1,169.9,11.2L169.9,11.2z M171.2,10.3c0.5-0.3,0.7-0.5,1.2-0.8c3.9,1.6,5.9,2.5,9.7,4.2
		c-0.4,0.4-0.5,0.6-0.9,1.1C177.2,13,175.3,12.1,171.2,10.3L171.2,10.3z M172.6,9.4c0.5-0.3,0.7-0.5,1.2-0.8
		c3.8,1.5,5.7,2.3,9.4,3.9c-0.4,0.4-0.6,0.6-0.9,1.1C178.4,11.9,176.5,11,172.6,9.4L172.6,9.4z M172.1,9.2c-3.9-1.6-5.9-2.3-10-3.7
		c0.6-0.2,0.9-0.3,1.5-0.4c3.9,1.2,5.9,1.9,9.7,3.4C172.9,8.8,172.6,8.9,172.1,9.2z M172,9.3c-0.5,0.3-0.7,0.5-1.2,0.8
		c-4.1-1.7-6.1-2.6-10.3-4c0.6-0.2,0.9-0.3,1.5-0.5C166.1,7,168.1,7.7,172,9.3L172,9.3z M170.7,10.2c-0.5,0.3-0.7,0.5-1.2,0.8
		c-4.2-1.9-6.3-2.8-10.6-4.4c0.6-0.2,0.9-0.3,1.5-0.5C164.5,7.6,166.6,8.4,170.7,10.2L170.7,10.2z M169.3,11.1
		c-0.5,0.3-0.7,0.5-1.2,0.9c-4.3-2-6.5-3-11-4.7c0.6-0.2,0.9-0.3,1.5-0.6C163,8.3,165.1,9.2,169.3,11.1L169.3,11.1z M168,12.1
		c-0.5,0.4-0.7,0.5-1.2,0.9c-4.5-2.2-6.7-3.2-11.3-5c0.6-0.2,0.9-0.4,1.5-0.6C161.5,9.1,163.6,10,168,12.1L168,12.1z M166.7,13.1
		c-0.5,0.4-0.7,0.6-1.2,0.9c-4.6-2.3-6.9-3.4-11.6-5.4c0.6-0.3,0.9-0.4,1.4-0.6C160,9.9,162.2,10.9,166.7,13.1z M165.4,14.1
		c-0.5,0.4-0.7,0.6-1.1,1c-4.7-2.4-7.1-3.6-11.9-5.7c0.6-0.3,0.9-0.4,1.4-0.7C158.5,10.7,160.8,11.8,165.4,14.1L165.4,14.1z
		 M164.1,15.2c-0.4,0.4-0.7,0.6-1.1,1c-4.9-2.6-7.2-3.8-12.2-6c0.6-0.3,0.9-0.4,1.4-0.7C157,11.6,159.4,12.8,164.1,15.2z
		 M162.8,16.3c-0.4,0.4-0.7,0.6-1.1,1c-5-2.7-7.4-4-12.6-6.3c0.6-0.3,0.8-0.5,1.4-0.8C155.6,12.5,158,13.7,162.8,16.3L162.8,16.3z
		 M161.3,17.8c-0.4,0.4-0.7,0.6-1.1,1.1c-5.1-2.9-7.6-4.2-12.9-6.7c0.6-0.3,0.8-0.5,1.4-0.8C153.8,13.7,156.3,15,161.3,17.8
		L161.3,17.8z M160.1,18.9c-0.4,0.4-0.6,0.6-1.1,1.1c-5.3-3-7.8-4.4-13.3-7c0.5-0.3,0.8-0.5,1.4-0.8
		C152.4,14.7,154.9,16.1,160.1,18.9L160.1,18.9z M158.9,20.2c-0.4,0.4-0.6,0.7-1.1,1.1c-5.4-3.1-8-4.6-13.6-7.3
		c0.5-0.4,0.8-0.5,1.3-0.9C151,15.8,153.6,17.2,158.9,20.2z M157.7,21.4c-0.4,0.5-0.6,0.7-1,1.2c-5.5-3.2-8.2-4.8-13.9-7.6
		c0.5-0.4,0.8-0.6,1.3-0.9C149.7,16.8,152.3,18.3,157.7,21.4L157.7,21.4z M156.5,22.7c-0.4,0.5-0.6,0.7-1,1.2
		c-5.6-3.3-8.3-4.9-14.2-7.8c0.6-0.4,0.8-0.6,1.3-0.9C148.3,18,151,19.5,156.5,22.7L156.5,22.7z M155.4,24.1
		c-0.4,0.5-0.7,0.8-1.1,1.3c-5.8-3.4-8.5-5.1-14.5-8.1c0.5-0.4,0.8-0.6,1.4-1C147,19.1,149.7,20.7,155.4,24.1L155.4,24.1z
		 M154.2,25.5c-0.4,0.5-0.6,0.8-1.1,1.3c-5.9-3.5-8.7-5.3-14.8-8.4c0.5-0.4,0.8-0.6,1.3-1.1C145.6,20.4,148.4,22,154.2,25.5
		L154.2,25.5z M153,26.9c-0.4,0.5-0.6,0.8-1.1,1.3c-6-3.7-8.9-5.4-15.1-8.6c0.5-0.5,0.8-0.7,1.3-1.1C144.3,21.7,147.1,23.4,153,26.9
		L153,26.9z M151.8,28.4c-0.4,0.5-0.6,0.8-1,1.4c-6.1-3.8-9.1-5.6-15.4-8.9c0.5-0.5,0.8-0.7,1.3-1.1C142.9,23,145.8,24.8,151.8,28.4
		L151.8,28.4z M150.7,29.9c-0.4,0.6-0.6,0.8-1,1.4c-6.2-3.9-9.2-5.7-15.7-9.1c0.5-0.5,0.8-0.7,1.3-1.2
		C141.6,24.4,144.5,26.2,150.7,29.9L150.7,29.9z M149.5,31.5c-0.4,0.6-0.6,0.9-1,1.4c-6.4-4-9.4-5.9-15.9-9.4
		c0.5-0.5,0.7-0.7,1.2-1.2C140.3,25.8,143.3,27.6,149.5,31.5L149.5,31.5z M148.2,33.5c-0.3,0.5-0.5,0.8-0.8,1.3
		c-6.5-4.1-9.6-6-16.3-9.6c0.4-0.4,0.6-0.6,1-1.1C138.8,27.6,141.8,29.5,148.2,33.5z M147.3,34.9c-0.4,0.6-0.6,0.9-0.9,1.5
		c-6.6-4.2-9.7-6.2-16.5-9.8c0.5-0.5,0.7-0.8,1.2-1.3C137.7,28.9,140.8,30.8,147.3,34.9L147.3,34.9z M146.2,36.6
		c-0.4,0.6-0.5,0.9-0.9,1.5c-6.7-4.3-9.9-6.3-16.8-10.1c0.4-0.5,0.7-0.8,1.1-1.3C136.5,30.4,139.6,32.4,146.2,36.6z M145.2,38.3
		c-0.4,0.6-0.5,0.9-0.9,1.5c-6.8-4.4-10-6.5-17.1-10.3c0.4-0.5,0.7-0.8,1.1-1.4C135.3,31.9,138.5,34,145.2,38.3z M144.3,40
		c-0.3,0.6-0.5,0.9-0.8,1.6c-6.9-4.5-10.2-6.6-17.3-10.5c0.4-0.6,0.6-0.8,1.1-1.4C134.2,33.5,137.4,35.6,144.3,40L144.3,40z
		 M143.3,41.8c-0.3,0.6-0.5,1-0.8,1.6c-7-4.5-10.3-6.7-17.6-10.7c0.4-0.6,0.6-0.9,1.1-1.4C133.1,35.2,136.4,37.3,143.3,41.8
		L143.3,41.8z M142.4,43.6c-0.3,0.7-0.5,1-0.8,1.6c-7.1-4.6-10.5-6.9-17.8-10.9c0.4-0.6,0.6-0.9,1-1.5
		C132.1,36.8,135.4,39,142.4,43.6L142.4,43.6z M141.5,45.4c-0.3,0.7-0.5,1-0.8,1.7c-7.2-4.7-10.6-7-18.1-11.1c0.4-0.6,0.6-0.9,1-1.5
		C131,38.5,134.4,40.8,141.5,45.4L141.5,45.4z M140.7,47.3c-0.3,0.7-0.4,1-0.7,1.7c-7.3-4.8-10.8-7.1-18.3-11.3
		c0.4-0.6,0.6-0.9,0.9-1.5C130,40.3,133.5,42.5,140.7,47.3L140.7,47.3z M141.5,47.8c7.2,4.7,10.6,7,18,11c-0.2,0.7-0.3,1.1-0.5,1.8
		c-7.5-4-10.9-6.3-18.2-11.1C141,48.8,141.2,48.4,141.5,47.8L141.5,47.8z M160.2,59.1c7.4,3.9,11.2,5.7,19.1,8.4
		c-0.1,0.8-0.1,1.2-0.2,1.9c-8.1-2.7-11.9-4.5-19.4-8.5C160,60.2,160.1,59.9,160.2,59.1L160.2,59.1z M160.3,58.9
		c0.2-0.7,0.3-1.1,0.5-1.8c7.3,3.9,11,5.6,18.8,8.3c-0.1,0.8-0.1,1.1-0.2,1.9C171.5,64.6,167.7,62.9,160.3,58.9z M160.9,56.9
		c0.2-0.7,0.3-1.1,0.5-1.8c7.2,3.8,10.8,5.5,18.5,8.3c-0.1,0.8-0.2,1.1-0.3,1.9C171.9,62.5,168.1,60.8,160.9,56.9z M161.5,54.9
		c0.2-0.7,0.3-1.1,0.6-1.8c7.1,3.8,10.6,5.5,18.2,8.2c-0.1,0.7-0.2,1.1-0.3,1.9C172.3,60.4,168.6,58.7,161.5,54.9L161.5,54.9z
		 M162.1,52.9c0.2-0.7,0.3-1.1,0.6-1.8c6.9,3.7,10.5,5.4,17.9,8.1c-0.1,0.7-0.2,1.1-0.3,1.8C172.7,58.4,169.1,56.7,162.1,52.9
		L162.1,52.9z M162.8,50.9c0.2-0.7,0.4-1,0.6-1.7c6.8,3.7,10.3,5.3,17.5,8c-0.1,0.7-0.2,1.1-0.3,1.8
		C173.2,56.3,169.7,54.6,162.8,50.9L162.8,50.9z M163.4,49c0.2-0.7,0.4-1,0.6-1.7c6.7,3.6,10.1,5.2,17.2,7.9
		c-0.1,0.7-0.2,1.1-0.3,1.8C173.7,54.3,170.2,52.6,163.4,49L163.4,49z M164.1,47.1c0.3-0.7,0.4-1,0.6-1.7c6.6,3.5,9.9,5.2,16.9,7.8
		c-0.1,0.7-0.2,1.1-0.4,1.8C174.2,52.3,170.8,50.7,164.1,47.1z M164.8,45.2c0.2-0.6,0.3-0.9,0.6-1.4c6.5,3.5,9.8,5.1,16.6,7.7
		c-0.1,0.6-0.2,0.9-0.3,1.5C174.7,50.3,171.4,48.7,164.8,45.2L164.8,45.2z M165.7,43.1c0.3-0.7,0.4-1,0.7-1.6
		c6.3,3.4,9.5,5,16.2,7.6c-0.2,0.7-0.2,1-0.4,1.7C175.4,48.2,172.1,46.6,165.7,43.1z M166.5,41.3c0.3-0.7,0.4-1,0.7-1.6
		c6.2,3.3,9.3,4.9,15.8,7.4c-0.2,0.7-0.2,1-0.4,1.7C175.9,46.2,172.7,44.7,166.5,41.3L166.5,41.3z M167.2,39.5
		c0.3-0.6,0.4-1,0.7-1.6c6.1,3.2,9.1,4.8,15.5,7.3c-0.2,0.7-0.2,1-0.4,1.7C176.5,44.3,173.4,42.8,167.2,39.5L167.2,39.5z
		 M168.1,37.7c0.3-0.6,0.4-0.9,0.8-1.6c5.9,3.2,8.9,4.7,15.1,7.2c-0.2,0.7-0.3,1-0.4,1.7C177.2,42.5,174.1,41,168.1,37.7L168.1,37.7
		z M168.9,36c0.3-0.6,0.5-0.9,0.8-1.5c5.8,3.1,8.7,4.6,14.8,7c-0.2,0.7-0.3,1-0.4,1.7C177.8,40.7,174.8,39.2,168.9,36L168.9,36z
		 M169.7,34.3c0.3-0.6,0.5-0.9,0.8-1.5c5.6,3,8.5,4.5,14.4,6.9c-0.2,0.7-0.3,1-0.5,1.6C178.4,38.9,175.5,37.4,169.7,34.3L169.7,34.3
		z M170.6,32.6c0.3-0.6,0.4-0.9,0.7-1.5c5.5,2.9,8.3,4.3,14,6.8c-0.2,0.6-0.2,0.9-0.4,1.6C179.1,37.1,176.2,35.6,170.6,32.6
		L170.6,32.6z M171.4,31c0.3-0.6,0.4-0.9,0.7-1.4c5.4,2.9,8.1,4.2,13.7,6.6c-0.2,0.6-0.3,0.9-0.4,1.6C179.7,35.4,176.9,34,171.4,31z
		 M172.3,29.5c0.3-0.6,0.4-0.8,0.8-1.4c5.2,2.8,7.9,4.1,13.3,6.4c-0.2,0.6-0.3,0.9-0.4,1.5C180.3,33.6,177.6,32.3,172.3,29.5
		L172.3,29.5z M173.1,27.9c0.3-0.5,0.5-0.8,0.8-1.4c5.1,2.7,7.7,4,12.9,6.3c-0.2,0.6-0.3,0.9-0.4,1.5C181,32,178.3,30.7,173.1,27.9
		L173.1,27.9z M174,26.4c0.3-0.5,0.5-0.8,0.8-1.3c5,2.6,7.5,3.8,12.6,6.1c-0.2,0.6-0.3,0.9-0.5,1.5C181.6,30.3,179.1,29.1,174,26.4
		L174,26.4z M175.1,24.5c0.3-0.5,0.5-0.8,0.8-1.3c4.8,2.5,7.2,3.7,12.1,5.9c-0.2,0.6-0.3,0.9-0.5,1.5
		C182.5,28.3,180,27.1,175.1,24.5L175.1,24.5z M175.9,23.1c0.3-0.5,0.5-0.8,0.8-1.3c4.7,2.4,7,3.5,11.8,5.7
		c-0.2,0.6-0.3,0.9-0.5,1.4C183.2,26.7,180.7,25.5,175.9,23.1L175.9,23.1z M176.9,21.7c0.3-0.5,0.5-0.8,0.8-1.2
		c4.5,2.3,6.8,3.4,11.4,5.5c-0.2,0.6-0.3,0.9-0.5,1.4C183.9,25.2,181.5,24,176.9,21.7z M177.8,20.3c0.3-0.5,0.5-0.7,0.8-1.2
		c4.4,2.2,6.6,3.2,11,5.3c-0.2,0.5-0.3,0.8-0.5,1.4C184.6,23.7,182.3,22.5,177.8,20.3z M178.7,18.9c0.3-0.5,0.5-0.7,0.9-1.2
		c4.3,2.1,6.4,3.1,10.6,5.1c-0.2,0.5-0.3,0.8-0.5,1.4C185.3,22.1,183.1,21.1,178.7,18.9L178.7,18.9z M179.7,17.6
		c0.3-0.5,0.5-0.7,0.9-1.2c4.1,2,6.2,3,10.2,4.9c-0.2,0.5-0.3,0.8-0.5,1.4C186,20.7,183.9,19.6,179.7,17.6z M180.6,16.3
		c0.4-0.5,0.5-0.7,0.9-1.1c4,1.8,5.9,2.8,9.9,4.7c-0.2,0.5-0.3,0.8-0.5,1.3C186.7,19.2,184.7,18.3,180.6,16.3L180.6,16.3z M181.6,15
		c0.4-0.4,0.5-0.7,0.9-1.1c3.8,1.7,5.7,2.6,9.5,4.4c-0.2,0.5-0.3,0.8-0.5,1.3C187.5,17.8,185.6,16.9,181.6,15L181.6,15z M182.6,13.8
		c0.4-0.4,0.5-0.6,0.9-1.1c3.7,1.6,5.5,2.5,9.1,4.2c-0.2,0.5-0.3,0.8-0.5,1.3C188.3,16.4,186.4,15.5,182.6,13.8z M183.6,12.6
		c0.4-0.4,0.5-0.6,0.9-1c3.5,1.5,5.3,2.3,8.7,4c-0.2,0.5-0.3,0.7-0.6,1.3C189.1,15.1,187.2,14.2,183.6,12.6L183.6,12.6z M183.2,12.4
		c-3.7-1.6-5.5-2.4-9.3-3.8c0.5-0.3,0.7-0.4,1.2-0.7c3.7,1.3,5.5,2,9,3.5C183.8,11.8,183.6,12,183.2,12.4z M173.5,8.4
		c-3.8-1.4-5.7-2.1-9.6-3.3c0.6-0.2,0.9-0.2,1.5-0.4c3.8,1.1,5.7,1.7,9.3,3C174.2,8,174,8.2,173.5,8.4L173.5,8.4z M163.4,5
		c-3.9-1.2-5.9-1.7-10.1-2.6c0.8,0,1.1-0.1,1.9-0.1c4,0.8,5.9,1.2,9.7,2.3C164.4,4.8,164,4.8,163.4,5L163.4,5z M163.2,5
		c-0.6,0.2-0.9,0.2-1.5,0.4c-4.1-1.3-6.2-1.9-10.4-2.9c0.8-0.1,1.1-0.1,1.9-0.2C157.3,3.3,159.3,3.8,163.2,5L163.2,5z M161.5,5.5
		c-0.6,0.2-0.9,0.3-1.5,0.5c-4.2-1.5-6.4-2.1-10.8-3.2c0.7-0.1,1.1-0.1,1.9-0.2C155.3,3.6,157.4,4.2,161.5,5.5L161.5,5.5z M159.8,6
		c-0.6,0.2-0.9,0.3-1.5,0.5c-4.4-1.6-6.6-2.3-11.2-3.4c0.7-0.1,1.1-0.2,1.8-0.3C153.4,3.9,155.6,4.6,159.8,6z M158.2,6.6
		c-0.6,0.2-0.9,0.3-1.5,0.5c-4.5-1.7-6.8-2.5-11.5-3.7c0.7-0.1,1.1-0.2,1.8-0.3C151.5,4.3,153.8,5,158.2,6.6L158.2,6.6z M156.5,7.2
		c-0.6,0.2-0.9,0.3-1.5,0.6c-4.6-1.8-7-2.7-11.9-4c0.7-0.2,1.1-0.2,1.8-0.3C149.7,4.7,152,5.5,156.5,7.2L156.5,7.2z M154.8,7.9
		c-0.6,0.2-0.9,0.4-1.5,0.6c-4.8-2-7.2-2.9-12.2-4.2c0.7-0.2,1.1-0.2,1.8-0.4C147.8,5.2,150.2,6,154.8,7.9L154.8,7.9z M153.2,8.6
		c-0.6,0.3-0.9,0.4-1.4,0.7c-4.9-2.1-7.4-3-12.6-4.5c0.7-0.2,1.1-0.3,1.8-0.4C146,5.7,148.4,6.6,153.2,8.6L153.2,8.6z M151.6,9.3
		c-0.6,0.3-0.9,0.4-1.4,0.7c-5-2.2-7.6-3.2-13-4.7c0.7-0.2,1-0.3,1.7-0.5C144.1,6.2,146.7,7.2,151.6,9.3L151.6,9.3z M150,10.1
		c-0.6,0.3-0.9,0.4-1.4,0.7c-5.2-2.3-7.8-3.4-13.3-5c0.7-0.2,1-0.3,1.7-0.5C142.4,6.9,145,7.9,150,10.1L150,10.1z M148.1,11.1
		c-0.6,0.3-0.8,0.5-1.4,0.8c-5.3-2.4-8.1-3.6-13.7-5.3c0.7-0.2,1-0.3,1.7-0.6C140.2,7.7,142.9,8.8,148.1,11.1L148.1,11.1z M146.5,12
		c-0.6,0.3-0.8,0.5-1.4,0.8c-5.4-2.6-8.3-3.8-14.1-5.5c0.7-0.2,1-0.4,1.7-0.6C138.4,8.4,141.2,9.5,146.5,12L146.5,12z M145,12.9
		c-0.5,0.3-0.8,0.5-1.3,0.9c-5.6-2.7-8.5-3.9-14.4-5.7c0.6-0.3,1-0.4,1.6-0.7C136.7,9.2,139.5,10.3,145,12.9L145,12.9z M143.5,13.9
		c-0.5,0.4-0.8,0.5-1.3,0.9c-5.7-2.8-8.6-4.1-14.8-5.9c0.7-0.3,1-0.4,1.6-0.7C135,10,137.9,11.2,143.5,13.9z M142,14.9
		c-0.5,0.4-0.8,0.5-1.3,0.9c-5.8-2.9-8.9-4.2-15.1-6.2c0.7-0.3,1-0.5,1.6-0.8C133.4,10.8,136.3,12.1,142,14.9L142,14.9z M140.6,15.9
		c-0.6,0.4-0.8,0.6-1.4,1c-6-3-9-4.4-15.4-6.4c0.7-0.3,1-0.5,1.7-0.8C131.7,11.7,134.7,13,140.6,15.9z M139,17.1
		c-0.6,0.4-0.8,0.6-1.4,1c-6.1-3.1-9.2-4.5-15.8-6.6c0.7-0.4,1-0.5,1.7-0.9C130,12.7,133.1,14.1,139,17.1L139,17.1z M137.5,18.2
		c-0.5,0.4-0.8,0.6-1.3,1.1c-6.2-3.2-9.4-4.6-16.1-6.7c0.7-0.4,1-0.6,1.6-0.9C128.3,13.7,131.4,15.2,137.5,18.2L137.5,18.2z
		 M136,19.5c-0.5,0.5-0.8,0.7-1.3,1.1c-6.3-3.3-9.6-4.8-16.4-6.9c0.6-0.4,0.9-0.6,1.6-1C126.6,14.8,129.8,16.3,136,19.5z
		 M134.6,20.7c-0.5,0.5-0.8,0.7-1.3,1.2c-6.5-3.4-9.8-4.9-16.8-7.1c0.6-0.4,0.9-0.6,1.6-1C124.9,15.9,128.2,17.4,134.6,20.7
		L134.6,20.7z M133.2,22c-0.5,0.5-0.8,0.7-1.2,1.2c-6.6-3.4-10-5-17.1-7.3c0.6-0.4,0.9-0.6,1.5-1.1C123.3,17.1,126.7,18.6,133.2,22
		L133.2,22z M131.4,23.7c-0.4,0.4-0.6,0.6-1.1,1.1c-6.7-3.5-10.2-5.2-17.5-7.5c0.5-0.4,0.8-0.6,1.3-1
		C121.4,18.6,124.8,20.2,131.4,23.7z M130.3,24.9c-0.5,0.5-0.7,0.8-1.2,1.3c-6.8-3.6-10.4-5.3-17.8-7.6c0.6-0.5,0.9-0.7,1.5-1.1
		C120,19.7,123.5,21.4,130.3,24.9L130.3,24.9z M128.9,26.3c-0.5,0.5-0.7,0.8-1.2,1.3c-6.9-3.7-10.6-5.4-18.1-7.8
		c0.6-0.5,0.8-0.7,1.4-1.2C118.5,21,122.1,22.7,128.9,26.3L128.9,26.3z M127.7,27.8c-0.4,0.5-0.7,0.8-1.1,1.4
		c-7.1-3.8-10.7-5.5-18.4-7.9c0.6-0.5,0.8-0.7,1.4-1.2C117.1,22.4,120.7,24.1,127.7,27.8L127.7,27.8z M126.4,29.3
		c-0.4,0.5-0.7,0.8-1.1,1.4c-7.2-3.9-10.9-5.6-18.7-8.1c0.5-0.5,0.8-0.8,1.4-1.2C115.7,23.8,119.3,25.5,126.4,29.3z M125.2,30.9
		c-0.4,0.6-0.6,0.8-1.1,1.4c-7.3-3.9-11.1-5.8-19-8.2c0.5-0.5,0.8-0.8,1.3-1.3C114.3,25.2,118,27,125.2,30.9L125.2,30.9z M124,32.4
		c-0.4,0.6-0.6,0.9-1,1.5c-7.4-4-11.2-5.9-19.3-8.4c0.5-0.5,0.8-0.8,1.3-1.3C112.9,26.7,116.7,28.5,124,32.4L124,32.4z M122.9,34
		c-0.4,0.6-0.6,0.9-1,1.5c-7.5-4.1-11.4-6-19.5-8.5c0.5-0.5,0.7-0.8,1.2-1.4C111.6,28.2,115.5,30,122.9,34z M121.8,35.7
		c-0.4,0.6-0.6,0.9-0.9,1.5c-7.6-4.2-11.6-6.1-19.8-8.6c0.5-0.6,0.7-0.8,1.2-1.4C110.4,29.7,114.3,31.6,121.8,35.7L121.8,35.7z
		 M120.7,37.4c-0.4,0.6-0.5,0.9-0.9,1.5c-7.7-4.2-11.7-6.2-20.1-8.8c0.5-0.6,0.7-0.9,1.2-1.4C109.2,31.3,113.1,33.2,120.7,37.4z
		 M121.5,37.8c7.6,4.2,11,6.5,18.3,11.3c-0.3,0.7-0.4,1-0.7,1.7c-7.4-4.9-10.9-7.2-18.6-11.5C121,38.7,121.1,38.4,121.5,37.8z
		 M140.6,49.6c7.3,4.8,10.8,7.1,18.3,11.1c-0.2,0.8-0.3,1.1-0.5,1.9c-7.6-4.1-11.1-6.4-18.5-11.3C140.2,50.7,140.4,50.3,140.6,49.6z
		 M159.7,61.2c7.5,4,11.3,5.8,19.4,8.5c-0.1,0.8-0.1,1.2-0.2,1.9c-8.2-2.7-12.1-4.5-19.6-8.5C159.4,62.3,159.5,62,159.7,61.2
		L159.7,61.2z M179.9,70c8.1,2.7,12.3,3.6,21.2,4.5c0.1,0.7,0.1,1.1,0.1,1.9c-9.1-0.8-13.3-1.8-21.5-4.5
		C179.8,71.1,179.8,70.7,179.9,70L179.9,70z M179.9,69.7c0.1-0.8,0.1-1.2,0.2-1.9c8,2.7,12.1,3.7,20.8,4.6c0,0.7,0.1,1.1,0.1,1.8
		C192.2,73.4,188,72.4,179.9,69.7L179.9,69.7z M180.2,67.6c0.1-0.8,0.1-1.1,0.2-1.9c7.8,2.7,11.9,3.7,20.5,4.7
		c0,0.7,0.1,1.1,0.1,1.8C192.2,71.2,188.1,70.2,180.2,67.6z M180.4,65.5c0.1-0.8,0.1-1.1,0.2-1.9c7.7,2.6,11.7,3.7,20.1,4.7
		c0,0.7,0.1,1.1,0.1,1.8C192.3,69.2,188.3,68.1,180.4,65.5L180.4,65.5z M180.7,63.4c0.1-0.8,0.2-1.1,0.3-1.9
		c7.6,2.6,11.5,3.7,19.7,4.8c0,0.7,0,1.1,0.1,1.8C192.4,67.1,188.4,66,180.7,63.4L180.7,63.4z M181,61.3c0.1-0.7,0.2-1.1,0.3-1.8
		c7.4,2.6,11.2,3.7,19.3,4.9c0,0.7,0,1.1,0.1,1.8C192.5,65,188.6,63.9,181,61.3z M181.3,59.3c0.1-0.7,0.2-1.1,0.3-1.8
		c7.3,2.6,11,3.7,18.9,4.9c0,0.7,0,1.1,0.1,1.8C192.6,62.9,188.7,61.9,181.3,59.3L181.3,59.3z M181.7,57.2c0.1-0.7,0.2-1.1,0.3-1.8
		c7.1,2.6,10.8,3.7,18.5,4.9c0,0.7,0,1.1,0,1.8C192.7,60.9,188.9,59.9,181.7,57.2L181.7,57.2z M182,55.2c0.1-0.7,0.2-1.1,0.3-1.8
		c7,2.6,10.6,3.7,18.1,5c0,0.7,0,1,0,1.8C192.8,58.9,189.1,57.8,182,55.2z M182.4,53.2c0.1-0.6,0.2-0.9,0.3-1.5
		c6.9,2.6,10.4,3.6,17.8,5c0,0.6,0,0.9,0,1.5C193,56.9,189.4,55.8,182.4,53.2L182.4,53.2z M182.9,51c0.1-0.7,0.2-1,0.4-1.7
		c6.7,2.6,10.1,3.6,17.3,5c0,0.7,0,1,0,1.7C193.2,54.7,189.7,53.6,182.9,51L182.9,51z M183.3,49.1c0.1-0.7,0.2-1,0.4-1.7
		c6.5,2.5,9.9,3.6,16.8,5.1c0,0.7,0,1,0,1.7C193.3,52.7,189.9,51.6,183.3,49.1z M183.7,47.2c0.2-0.7,0.2-1,0.4-1.7
		c6.4,2.5,9.6,3.6,16.4,5.1c0,0.7,0,1,0,1.7C193.5,50.7,190.2,49.7,183.7,47.2L183.7,47.2z M184.1,45.3c0.2-0.7,0.2-1,0.4-1.7
		c6.2,2.5,9.4,3.5,16,5.1c0,0.7,0,1,0,1.7C193.7,48.8,190.5,47.8,184.1,45.3z M184.6,43.4c0.2-0.7,0.2-1,0.4-1.7
		c6.1,2.5,9.1,3.5,15.6,5.1c0,0.7,0,1,0,1.7C194,47,190.8,45.9,184.6,43.4L184.6,43.4z M185.1,41.6c0.2-0.7,0.3-1,0.4-1.6
		c5.9,2.4,8.9,3.5,15.1,5.1c0,0.7,0,1-0.1,1.6C194.2,45.1,191.1,44,185.1,41.6z M185.6,39.7c0.2-0.7,0.2-1,0.4-1.6
		c5.7,2.4,8.7,3.5,14.7,5.1c0,0.6,0,1,0,1.6C194.4,43.2,191.4,42.2,185.6,39.7L185.6,39.7z M186,38c0.2-0.6,0.2-0.9,0.4-1.6
		c5.6,2.4,8.4,3.4,14.3,5.1c0,0.6,0,0.9,0,1.6C194.7,41.4,191.7,40.4,186,38z M186.5,36.2c0.2-0.6,0.2-0.9,0.4-1.5
		c5.4,2.3,8.2,3.4,13.9,5c0,0.6,0,0.9,0,1.6C194.9,39.6,192,38.6,186.5,36.2z M186.9,34.5c0.2-0.6,0.3-0.9,0.4-1.5
		c5.3,2.3,7.9,3.3,13.4,5c0,0.6,0,0.9-0.1,1.5C195.1,37.9,192.3,36.8,186.9,34.5L186.9,34.5z M187.4,32.8c0.2-0.6,0.3-0.9,0.4-1.5
		c5.1,2.2,7.7,3.3,13,5c0,0.6,0,0.9-0.1,1.5C195.3,36.1,192.7,35.1,187.4,32.8z M188,30.7c0.2-0.6,0.3-0.9,0.5-1.5
		c4.9,2.2,7.4,3.2,12.4,4.9c0,0.6,0,0.9-0.1,1.5C195.7,34,193.1,33,188,30.7L188,30.7z M188.6,29.1c0.2-0.6,0.3-0.9,0.5-1.5
		c4.7,2.1,7.1,3.1,12,4.9c0,0.6,0,0.9-0.1,1.5C195.9,32.3,193.4,31.3,188.6,29.1z M189.1,27.5c0.2-0.6,0.3-0.9,0.5-1.4
		c4.6,2.1,6.9,3.1,11.6,4.8c0,0.6-0.1,0.9-0.1,1.5C196.2,30.6,193.8,29.6,189.1,27.5L189.1,27.5z M189.6,25.9
		c0.2-0.6,0.3-0.9,0.5-1.4c4.4,2,6.6,3,11.1,4.8c0,0.6-0.1,0.9-0.1,1.5C196.5,29,194.2,28,189.6,25.9L189.6,25.9z M190.1,24.3
		c0.2-0.6,0.3-0.8,0.5-1.4c4.2,2,6.4,2.9,10.6,4.7c0,0.6-0.1,0.9-0.1,1.4C196.7,27.3,194.5,26.4,190.1,24.3L190.1,24.3z M190.7,22.8
		c0.2-0.5,0.3-0.8,0.5-1.4c4.1,1.9,6.1,2.9,10.2,4.6c0,0.6-0.1,0.9-0.1,1.4C197,25.7,194.9,24.8,190.7,22.8L190.7,22.8z M191.3,21.3
		c0.2-0.5,0.3-0.8,0.5-1.3c3.9,1.9,5.9,2.8,9.8,4.6c0,0.6-0.1,0.8-0.1,1.4C197.4,24.2,195.3,23.2,191.3,21.3L191.3,21.3z
		 M191.8,19.8c0.2-0.5,0.3-0.8,0.5-1.3c3.8,1.8,5.6,2.7,9.3,4.5c0,0.5-0.1,0.8-0.1,1.4C197.7,22.6,195.7,21.6,191.8,19.8L191.8,19.8
		z M192.4,18.3c0.2-0.5,0.3-0.8,0.5-1.3c3.6,1.7,5.3,2.6,8.8,4.4c-0.1,0.5-0.1,0.8-0.1,1.4C198,21,196.1,20.1,192.4,18.3L192.4,18.3
		z M193,16.9c0.2-0.5,0.3-0.8,0.5-1.3c3.4,1.7,5.1,2.5,8.4,4.3c-0.1,0.5-0.1,0.8-0.1,1.4C198.3,19.5,196.5,18.6,193,16.9L193,16.9z
		 M193.6,15.5c0.2-0.4,0.3-0.6,0.4-1.1c3.3,1.6,4.9,2.4,8,4.2c0,0.5,0,0.7-0.1,1.1C198.6,18,197,17.1,193.6,15.5L193.6,15.5z
		 M193.2,15.3c-3.4-1.6-5.1-2.4-8.6-3.9c0.3-0.4,0.4-0.5,0.8-0.9c3.4,1.4,5.1,2.2,8.3,3.8C193.5,14.7,193.4,14.9,193.2,15.3
		L193.2,15.3z M184.2,11.2c-3.5-1.5-5.3-2.2-9-3.5c0.4-0.2,0.6-0.4,1-0.6c3.6,1.2,5.3,1.8,8.7,3.2C184.7,10.7,184.5,10.9,184.2,11.2
		z M174.9,7.6c-3.7-1.3-5.5-1.9-9.3-3c0.5-0.1,0.8-0.2,1.3-0.3c3.7,0.9,5.5,1.5,9.1,2.7C175.5,7.3,175.3,7.4,174.9,7.6L174.9,7.6z
		 M165.2,4.5c-3.8-1-5.7-1.5-9.7-2.3c0.7,0,1,0,1.6,0c3.8,0.7,5.7,1.1,9.4,2C165.9,4.4,165.7,4.4,165.2,4.5L165.2,4.5z M155.1,2.2
		c-3.9-0.8-5.9-1-10-1.5c0.8,0,1.1,0,1.9,0.1c3.9,0.4,5.9,0.7,9.7,1.4C156,2.1,155.7,2.1,155.1,2.2L155.1,2.2z M154.8,2.2
		c-0.8,0-1.1,0-1.9,0.1c-4.1-0.9-6.2-1.2-10.4-1.6c0.9,0,1.4,0,2.3,0C148.9,1.1,150.9,1.4,154.8,2.2L154.8,2.2z M152.7,2.3
		c-0.8,0-1.1,0.1-1.9,0.2c-4.3-0.9-6.4-1.3-10.8-1.7c0.9,0,1.3,0,2.2,0C146.5,1.1,148.6,1.4,152.7,2.3z M150.6,2.5
		c-0.8,0.1-1.1,0.1-1.9,0.2c-4.4-1-6.6-1.4-11.2-1.9c0.9-0.1,1.3-0.1,2.2-0.1C144.2,1.2,146.3,1.5,150.6,2.5z M148.5,2.7
		c-0.8,0.1-1.1,0.1-1.9,0.2c-4.6-1.1-6.9-1.5-11.5-2c0.9-0.1,1.3-0.1,2.2-0.1C141.9,1.3,144.1,1.7,148.5,2.7L148.5,2.7z M146.5,3
		c-0.7,0.1-1.1,0.2-1.8,0.3c-4.7-1.2-7.1-1.6-11.9-2.1c0.9-0.1,1.3-0.1,2.2-0.2C139.6,1.5,141.9,1.8,146.5,3z M144.4,3.3
		c-0.7,0.1-1.1,0.2-1.8,0.3c-4.9-1.3-7.3-1.7-12.3-2.2c0.9-0.1,1.3-0.2,2.2-0.2C137.3,1.7,139.7,2.1,144.4,3.3z M142.4,3.7
		c-0.7,0.2-1.1,0.2-1.8,0.4c-5-1.3-7.5-1.8-12.7-2.3c0.8-0.1,1.3-0.2,2.1-0.3C135,2,137.5,2.4,142.4,3.7z M140.4,4.1
		c-0.7,0.2-1.1,0.2-1.8,0.4c-5.2-1.4-7.8-1.9-13.1-2.4c0.8-0.1,1.3-0.2,2.1-0.4C132.8,2.3,135.3,2.8,140.4,4.1z M138.4,4.6
		c-0.7,0.2-1.1,0.3-1.8,0.5c-5.4-1.5-8-2-13.4-2.5c0.8-0.2,1.2-0.2,2.1-0.4C130.6,2.7,133.2,3.2,138.4,4.6L138.4,4.6z M136.4,5.1
		c-0.7,0.2-1.1,0.3-1.7,0.5c-5.5-1.6-8.2-2.1-13.8-2.6c0.8-0.2,1.2-0.3,2.1-0.4C128.4,3.1,131.1,3.6,136.4,5.1L136.4,5.1z M134,5.8
		c-0.7,0.2-1,0.3-1.7,0.6c-5.7-1.6-8.5-2.2-14.2-2.7c0.8-0.2,1.2-0.3,2-0.5C125.7,3.8,128.5,4.3,134,5.8L134,5.8z M132.1,6.5
		c-0.7,0.2-1,0.4-1.7,0.6c-5.8-1.7-8.7-2.2-14.6-2.7c0.8-0.2,1.2-0.3,2-0.5C123.6,4.3,126.4,4.8,132.1,6.5z M130.2,7.2
		c-0.7,0.2-1,0.4-1.7,0.7c-6-1.8-8.9-2.3-15-2.8c0.8-0.2,1.2-0.4,2-0.6C121.5,4.9,124.4,5.5,130.2,7.2z M128.4,7.9
		c-0.7,0.3-1,0.4-1.6,0.7c-6.1-1.8-9.1-2.4-15.3-2.8c0.8-0.3,1.2-0.4,1.9-0.6C119.5,5.6,122.4,6.1,128.4,7.9L128.4,7.9z M126.6,8.7
		c-0.7,0.3-0.9,0.4-1.6,0.7c-6.3-1.9-9.3-2.4-15.7-2.9c0.8-0.3,1.2-0.4,1.9-0.7C117.4,6.3,120.4,6.8,126.6,8.7z M124.7,9.5
		c-0.7,0.3-1,0.5-1.7,0.8c-6.4-1.9-9.5-2.5-16-2.9c0.8-0.3,1.2-0.5,2-0.8C115.4,7,118.5,7.6,124.7,9.5z M122.8,10.4
		c-0.7,0.3-1,0.5-1.7,0.9c-6.6-2-9.7-2.6-16.4-3c0.8-0.3,1.2-0.5,2-0.8C113.3,7.9,116.4,8.5,122.8,10.4L122.8,10.4z M121,11.4
		c-0.7,0.4-1,0.5-1.6,0.9c-6.7-2-10-2.6-16.7-3c0.8-0.4,1.2-0.5,2-0.9C111.2,8.8,114.4,9.4,121,11.4L121,11.4z M119.2,12.4
		c-0.7,0.4-1,0.6-1.6,1c-6.8-2.1-10.2-2.7-17.1-3c0.8-0.4,1.2-0.6,1.9-0.9C109.2,9.8,112.4,10.4,119.2,12.4z M117.4,13.5
		c-0.6,0.4-1,0.6-1.6,1c-7-2.1-10.4-2.7-17.4-3.1c0.8-0.4,1.1-0.6,1.9-1C107.2,10.8,110.5,11.4,117.4,13.5L117.4,13.5z M115.6,14.6
		c-0.6,0.4-0.9,0.6-1.6,1c-7.1-2.2-10.6-2.8-17.8-3.1c0.7-0.4,1.1-0.6,1.9-1C105.2,11.9,108.6,12.5,115.6,14.6L115.6,14.6z
		 M113.4,16.1c-0.5,0.4-0.8,0.6-1.3,0.9c-7.3-2.2-10.8-2.8-18.2-3.1c0.6-0.4,0.9-0.6,1.6-0.9C102.8,13.3,106.3,13.9,113.4,16.1
		L113.4,16.1z M112,17.2c-0.6,0.4-0.9,0.7-1.5,1.1c-7.4-2.3-11-2.8-18.5-3.1c0.7-0.5,1.1-0.7,1.8-1.1
		C101.2,14.3,104.7,14.9,112,17.2L112,17.2z M110.3,18.4c-0.6,0.5-0.9,0.7-1.4,1.2c-7.6-2.3-11.2-2.9-18.8-3.1
		c0.7-0.5,1-0.7,1.7-1.2C99.3,15.6,102.9,16.2,110.3,18.4z M108.7,19.7c-0.6,0.5-0.8,0.7-1.4,1.2c-7.7-2.3-11.4-2.9-19.1-3.1
		c0.7-0.5,1-0.7,1.7-1.2C97.5,16.8,101.1,17.4,108.7,19.7z M107.1,21.1c-0.6,0.5-0.8,0.7-1.4,1.2c-7.8-2.4-11.6-2.9-19.4-3
		c0.7-0.5,1-0.8,1.7-1.3C95.7,18.2,99.4,18.7,107.1,21.1z M105.6,22.5c-0.5,0.5-0.8,0.8-1.3,1.3c-7.9-2.4-11.8-3-19.8-3
		c0.6-0.5,1-0.8,1.6-1.3C94,19.5,97.8,20.1,105.6,22.5z M104.1,23.9c-0.5,0.5-0.8,0.8-1.3,1.3c-8.1-2.4-11.9-3-20-3
		c0.6-0.5,0.9-0.8,1.6-1.3C92.4,20.9,96.2,21.5,104.1,23.9L104.1,23.9z M102.7,25.4c-0.5,0.5-0.8,0.8-1.2,1.4
		c-8.2-2.4-12.1-3-20.3-3c0.6-0.6,0.9-0.8,1.5-1.4C90.8,22.4,94.6,22.9,102.7,25.4z M101.3,26.9c-0.5,0.5-0.7,0.8-1.2,1.4
		c-8.3-2.5-12.3-3-20.7-3c0.6-0.6,0.9-0.9,1.5-1.4C89.2,23.9,93.1,24.4,101.3,26.9z M100,28.4c-0.5,0.6-0.7,0.8-1.2,1.4
		c-8.4-2.5-12.4-3-20.9-2.9c0.6-0.6,0.8-0.9,1.4-1.5C87.7,25.4,91.6,26,100,28.4L100,28.4z M98.7,30c-0.4,0.5-0.6,0.8-1,1.3
		c-8.5-2.5-12.6-3-21.2-2.9c0.4-0.6,0.7-0.9,1.2-1.4C86.2,27,90.2,27.5,98.7,30z M99.5,30.3c8.4,2.6,12.4,4.5,20.1,8.8
		c-0.3,0.6-0.5,0.8-0.8,1.4c-7.8-4.3-11.8-6.2-20.3-8.9C98.9,31.1,99.1,30.8,99.5,30.3L99.5,30.3z M120.5,39.5
		c7.7,4.3,11.2,6.6,18.6,11.5c-0.2,0.6-0.4,0.9-0.6,1.6c-7.5-4.9-11-7.3-18.8-11.6C120,40.4,120.2,40.1,120.5,39.5L120.5,39.5z
		 M139.9,51.5c7.4,4.9,10.9,7.2,18.5,11.3c-0.2,0.7-0.2,1-0.4,1.7c-7.6-4.1-11.2-6.5-18.7-11.4C139.5,52.5,139.6,52.2,139.9,51.5
		L139.9,51.5z M159.2,63.3c7.6,4,11.5,5.8,19.7,8.5c-0.1,0.7-0.1,1-0.1,1.7c-8.3-2.7-12.2-4.5-19.9-8.6
		C158.9,64.3,159,63.9,159.2,63.3L159.2,63.3z M179.7,72.1c8.2,2.7,12.5,3.6,21.6,4.5c0,0.7,0.1,1,0.1,1.7
		c-9.2-0.8-13.5-1.7-21.8-4.4C179.6,73.1,179.6,72.8,179.7,72.1L179.7,72.1z M202.2,76.6c9.1,0.7,11.9,0.6,19.2-1.8
		c0.1,0.6,0.2,0.8,0.4,1.4c-7.4,2.6-10.2,2.8-19.4,2.1C202.3,77.6,202.3,77.3,202.2,76.6L202.2,76.6z M202.2,76.4
		c-0.1-0.8-0.1-1.1-0.1-1.9c8.9,0.8,11.7,0.7,18.9-1.6c0.2,0.6,0.2,1,0.4,1.6C214,77,211.3,77.2,202.2,76.4L202.2,76.4z M202,74.3
		c-0.1-0.7-0.1-1.1-0.1-1.8c8.8,0.9,11.5,0.8,18.6-1.3c0.2,0.6,0.2,1,0.4,1.6C213.7,75,211,75.2,202,74.3L202,74.3z M201.9,72.3
		c-0.1-0.7-0.1-1.1-0.1-1.8c8.6,0.9,11.3,0.9,18.2-1c0.2,0.6,0.2,0.9,0.4,1.6C213.4,73.1,210.7,73.2,201.9,72.3L201.9,72.3z
		 M201.8,70.2c0-0.7-0.1-1.1-0.1-1.8c8.4,1,11.1,1,17.9-0.7c0.1,0.6,0.2,0.9,0.4,1.6C213,71.2,210.4,71.2,201.8,70.2L201.8,70.2z
		 M201.6,68.2c0-0.7-0.1-1.1-0.1-1.8c8.3,1.1,10.9,1.1,17.6-0.5c0.1,0.6,0.2,0.9,0.4,1.6C212.7,69.2,210.1,69.2,201.6,68.2
		L201.6,68.2z M201.5,66.2c0-0.7-0.1-1.1-0.1-1.8c8.1,1.1,10.7,1.2,17.3-0.2c0.1,0.6,0.2,0.9,0.4,1.6
		C212.4,67.3,209.8,67.3,201.5,66.2L201.5,66.2z M201.5,64.2c0-0.7,0-1.1-0.1-1.8c7.9,1.2,10.5,1.3,16.9,0.1
		c0.1,0.6,0.2,0.9,0.4,1.5C212.1,65.5,209.5,65.3,201.5,64.2L201.5,64.2z M201.4,62.2c0-0.7,0-1.1-0.1-1.8
		c7.8,1.2,10.3,1.4,16.6,0.3c0.1,0.6,0.2,0.9,0.4,1.5C211.8,63.6,209.3,63.4,201.4,62.2L201.4,62.2z M201.3,60.3c0-0.7,0-1,0-1.8
		c7.6,1.3,10.1,1.5,16.3,0.5c0.1,0.6,0.2,0.9,0.4,1.5C211.6,61.7,209.1,61.5,201.3,60.3L201.3,60.3z M201.3,58.3c0-0.6,0-0.9,0-1.5
		c7.4,1.3,9.9,1.6,16,0.8c0.1,0.5,0.2,0.8,0.3,1.3C211.3,59.9,208.8,59.6,201.3,58.3L201.3,58.3z M201.2,56.2c0-0.7,0-1,0-1.7
		c7.2,1.4,9.6,1.7,15.5,1.1c0.1,0.6,0.2,0.9,0.3,1.5C211,57.8,208.6,57.5,201.2,56.2L201.2,56.2z M201.2,54.3c0-0.7,0-1,0-1.7
		c7,1.4,9.4,1.8,15.2,1.3c0.1,0.6,0.2,0.9,0.3,1.5C210.8,56,208.4,55.6,201.2,54.3L201.2,54.3z M201.2,52.4c0-0.7,0-1,0-1.7
		c6.8,1.5,9.1,1.9,14.8,1.5c0.1,0.6,0.2,0.9,0.3,1.5C210.6,54.2,208.2,53.8,201.2,52.4z M201.2,50.5c0-0.7,0-1,0-1.7
		c6.6,1.5,8.9,2,14.4,1.7c0.1,0.6,0.2,0.9,0.3,1.5C210.3,52.4,208,52,201.2,50.5L201.2,50.5z M201.2,48.7c0-0.7,0-1,0-1.7
		c6.4,1.5,8.7,2,14.1,2c0.1,0.6,0.2,0.9,0.3,1.5C210.1,50.6,207.9,50.1,201.2,48.7L201.2,48.7z M201.3,46.8c0-0.7,0-1,0-1.6
		c6.2,1.6,8.4,2.1,13.7,2.2c0.1,0.6,0.2,0.9,0.3,1.4C209.9,48.9,207.7,48.4,201.3,46.8L201.3,46.8z M201.3,45c0-0.7,0-1,0-1.6
		c6.1,1.6,8.2,2.2,13.3,2.3c0.1,0.6,0.2,0.8,0.3,1.4C209.7,47.1,207.5,46.6,201.3,45L201.3,45z M201.3,43.2c0-0.6,0-1,0-1.6
		c5.9,1.6,8,2.2,13,2.5c0.1,0.6,0.2,0.8,0.3,1.4C209.5,45.4,207.4,44.8,201.3,43.2z M201.3,41.5c0-0.6,0-0.9,0-1.6
		c5.7,1.7,7.8,2.3,12.6,2.7c0.1,0.5,0.2,0.8,0.3,1.4C209.3,43.7,207.2,43.1,201.3,41.5z M201.3,39.7c0-0.6,0-0.9,0-1.5
		c5.5,1.7,7.5,2.3,12.2,2.9c0.1,0.5,0.2,0.8,0.3,1.4C209.1,42,207,41.4,201.3,39.7L201.3,39.7z M201.4,38c0-0.6,0-0.9,0-1.5
		c5.3,1.7,7.3,2.4,11.9,3.1c0.1,0.5,0.2,0.8,0.3,1.4C208.9,40.4,206.8,39.7,201.4,38L201.4,38z M201.4,35.9c0-0.6,0-0.9,0-1.5
		c5.1,1.7,7,2.4,11.4,3.3c0.1,0.5,0.2,0.8,0.3,1.4C208.6,38.3,206.7,37.6,201.4,35.9z M201.5,34.2c0-0.6,0-0.9,0.1-1.5
		c4.9,1.7,6.8,2.5,11,3.5c0.1,0.5,0.2,0.8,0.3,1.3C208.4,36.7,206.5,35.9,201.5,34.2L201.5,34.2z M201.5,32.6c0-0.6,0-0.9,0.1-1.5
		c4.7,1.7,6.5,2.5,10.6,3.6c0.1,0.5,0.2,0.8,0.3,1.3C208.3,35.1,206.4,34.3,201.5,32.6L201.5,32.6z M201.6,30.9c0-0.6,0-0.9,0.1-1.5
		c4.5,1.8,6.3,2.6,10.2,3.8c0.1,0.5,0.2,0.8,0.3,1.3C208.1,33.4,206.2,32.7,201.6,30.9L201.6,30.9z M201.7,29.3c0-0.6,0-0.9,0.1-1.4
		c4.3,1.8,6.1,2.6,9.9,3.9c0.1,0.5,0.2,0.8,0.3,1.3C207.9,31.9,206.1,31.1,201.7,29.3L201.7,29.3z M201.7,27.7
		c0-0.6,0.1-0.9,0.1-1.4c4.1,1.8,5.8,2.6,9.4,4c0.1,0.5,0.2,0.8,0.3,1.3C207.7,30.3,206,29.5,201.7,27.7L201.7,27.7z M201.8,26.1
		c0-0.6,0.1-0.8,0.1-1.4c3.9,1.8,5.6,2.6,9.1,4.2c0.1,0.5,0.2,0.8,0.3,1.3C207.6,28.7,205.9,27.9,201.8,26.1L201.8,26.1z
		 M201.9,24.6c0-0.6,0.1-0.8,0.1-1.4c3.7,1.8,5.3,2.7,8.7,4.3c0.1,0.5,0.2,0.8,0.3,1.3C207.4,27.2,205.8,26.3,201.9,24.6z M202,23
		c0-0.5,0.1-0.8,0.1-1.4c3.5,1.8,5.1,2.7,8.3,4.4c0.1,0.5,0.2,0.8,0.3,1.3C207.3,25.7,205.7,24.8,202,23z M202.1,21.5
		c0-0.5,0.1-0.8,0.1-1.4c3.3,1.8,4.8,2.7,7.9,4.5c0.1,0.5,0.2,0.8,0.3,1.2C207.2,24.2,205.6,23.3,202.1,21.5z M202.2,20
		c0-0.5,0-0.7,0.1-1.1c3.1,1.8,4.6,2.7,7.5,4.6c0.1,0.4,0.1,0.6,0.2,1.1C207,22.7,205.5,21.8,202.2,20L202.2,20z M137,0.1
		c3.8,0.1,5.7,0.2,9.6,0.6c-0.8,0-1.1-0.1-1.9-0.1c-4.1-0.4-6.1-0.5-10-0.6C135.6,0,136.1,0,137,0.1L137,0.1z M134.4,0
		c3.9,0.1,5.9,0.2,10,0.6c-0.9,0-1.4,0-2.3,0c-4.2-0.4-6.3-0.5-10.4-0.6C132.8,0,133.3,0,134.4,0L134.4,0z M131.5,0.1
		c4.1,0,6.2,0.1,10.4,0.6c-0.9,0-1.4,0-2.2,0c-4.4-0.4-6.6-0.6-10.8-0.5C129.9,0.1,130.4,0.1,131.5,0.1L131.5,0.1z M128.5,0.2
		c4.2,0,6.5,0.1,10.9,0.5c-0.9,0-1.3,0-2.2,0.1c-4.5-0.4-6.8-0.6-11.2-0.5C126.9,0.2,127.5,0.2,128.5,0.2L128.5,0.2z M125.6,0.3
		c4.4-0.1,6.7,0,11.3,0.5c-0.9,0.1-1.3,0.1-2.2,0.1c-4.7-0.5-7.1-0.6-11.7-0.4C124,0.4,124.6,0.4,125.6,0.3L125.6,0.3z M122.7,0.5
		c4.6-0.1,7-0.1,11.7,0.4c-0.9,0.1-1.3,0.1-2.2,0.2c-4.8-0.5-7.3-0.5-12.1-0.4C121.2,0.7,121.7,0.6,122.7,0.5z M119.9,0.8
		c4.7-0.2,7.2-0.1,12.1,0.4c-0.9,0.1-1.3,0.1-2.2,0.2c-5-0.5-7.6-0.5-12.5-0.3C118.3,1,118.8,0.9,119.9,0.8L119.9,0.8z M117,1.2
		c4.9-0.2,7.5-0.2,12.5,0.3c-0.9,0.1-1.3,0.2-2.2,0.3c-5.2-0.5-7.9-0.5-12.9-0.2C115.5,1.4,116,1.3,117,1.2L117,1.2z M114.2,1.6
		c5.1-0.3,7.8-0.3,12.9,0.2c-0.9,0.1-1.3,0.2-2.1,0.3c-5.3-0.5-8.1-0.5-13.3-0.1C112.7,1.8,113.2,1.7,114.2,1.6L114.2,1.6z M111.4,2
		c5.2-0.4,8-0.4,13.4,0.1c-0.8,0.2-1.3,0.2-2.1,0.4c-5.5-0.5-8.3-0.5-13.7,0C109.9,2.3,110.4,2.2,111.4,2z M108.7,2.6
		c5.4-0.4,8.3-0.4,13.8,0c-0.8,0.2-1.2,0.3-2.1,0.4c-5.6-0.5-8.6-0.5-14.1,0C107.2,2.9,107.7,2.8,108.7,2.6z M105.3,3.3
		c5.6-0.5,8.6-0.5,14.3-0.1c-0.8,0.2-1.2,0.3-2.1,0.5c-5.8-0.5-8.9-0.4-14.6,0.2C103.8,3.7,104.3,3.5,105.3,3.3z M102.6,4
		c5.8-0.6,8.9-0.6,14.7-0.2c-0.8,0.2-1.2,0.3-2,0.5c-5.9-0.4-9.1-0.4-15,0.3C101.2,4.4,101.6,4.2,102.6,4L102.6,4z M100,4.7
		c5.9-0.7,9.1-0.7,15-0.3c-0.8,0.2-1.2,0.3-2,0.6c-6.1-0.4-9.4-0.3-15.4,0.4C98.5,5.1,99,5,100,4.7L100,4.7z M97.3,5.5
		c6.1-0.8,9.3-0.8,15.5-0.4c-0.8,0.2-1.2,0.4-2,0.6c-6.2-0.4-9.6-0.3-15.8,0.5C95.9,5.9,96.4,5.8,97.3,5.5L97.3,5.5z M94.8,6.3
		c6.2-0.8,9.6-0.9,15.8-0.5c-0.8,0.3-1.1,0.4-2,0.7c-6.4-0.4-9.8-0.3-16.2,0.6C93.4,6.8,93.8,6.6,94.8,6.3L94.8,6.3z M92.2,7.2
		c6.4-0.9,9.8-1,16.2-0.6c-0.8,0.3-1.2,0.5-2,0.8C99.8,7,96.3,7.1,89.8,8.1C90.7,7.8,91.2,7.6,92.2,7.2z M89.5,8.2
		c6.5-1,10.1-1.1,16.6-0.8c-0.8,0.3-1.2,0.5-2,0.8c-6.7-0.3-10.3-0.2-17,0.9C88.1,8.8,88.5,8.6,89.5,8.2L89.5,8.2z M86.9,9.3
		c6.7-1.1,10.3-1.3,17-0.9c-0.8,0.4-1.2,0.5-2,0.9c-6.8-0.3-10.6-0.1-17.4,1C85.5,9.9,85.9,9.7,86.9,9.3L86.9,9.3z M84.3,10.5
		c6.8-1.2,10.6-1.4,17.4-1.1c-0.8,0.4-1.2,0.6-1.9,0.9C92.8,10,89,10.2,82,11.5C82.9,11.1,83.4,10.9,84.3,10.5z M81.7,11.7
		c7-1.3,10.8-1.5,17.8-1.2c-0.8,0.4-1.2,0.6-1.9,1c-7.1-0.3-11,0-18.2,1.4C80.4,12.3,80.8,12.1,81.7,11.7L81.7,11.7z M79.2,12.9
		c7.1-1.4,11.1-1.6,18.2-1.4c-0.8,0.4-1.1,0.6-1.9,1C88.3,12.3,84.2,12.6,77,14C77.9,13.6,78.3,13.4,79.2,12.9L79.2,12.9z
		 M76.2,14.6c7.3-1.5,11.4-1.8,18.7-1.6c-0.6,0.4-0.9,0.6-1.6,0.9c-7.4-0.2-11.5,0.1-19,1.7C75.1,15.2,75.4,15,76.2,14.6z
		 M74.1,15.8c7.4-1.6,11.6-1.9,19-1.7c-0.7,0.4-1.1,0.7-1.8,1.1c-7.5-0.1-11.8,0.2-19.3,1.9C72.8,16.5,73.2,16.3,74.1,15.8z
		 M71.7,17.2c7.6-1.7,11.8-2,19.4-1.9c-0.7,0.5-1.1,0.7-1.8,1.2c-7.7-0.1-12,0.3-19.7,2C70.4,18,70.9,17.7,71.7,17.2L71.7,17.2z
		 M69.4,18.7c7.7-1.8,12-2.2,19.7-2.1c-0.7,0.5-1,0.7-1.7,1.2c-7.8-0.1-12.2,0.4-20,2.2C68.2,19.5,68.6,19.3,69.4,18.7L69.4,18.7z
		 M67.1,20.2c7.9-1.9,12.3-2.3,20.1-2.2c-0.7,0.5-1,0.8-1.7,1.3c-7.9,0-12.4,0.5-20.4,2.4C65.9,21.1,66.3,20.8,67.1,20.2L67.1,20.2z
		 M64.9,21.9c8-2,12.5-2.5,20.4-2.4c-0.7,0.5-1,0.8-1.6,1.3c-8.1,0-12.6,0.5-20.8,2.6C63.7,22.7,64.1,22.4,64.9,21.9L64.9,21.9z
		 M62.8,23.5c8.2-2.1,12.7-2.6,20.8-2.6c-0.6,0.5-0.9,0.8-1.6,1.3c-8.2,0.1-12.8,0.6-21.1,2.8C61.6,24.4,62,24.1,62.8,23.5
		L62.8,23.5z M60.7,25.2c8.3-2.2,12.9-2.8,21.1-2.8c-0.6,0.5-0.9,0.8-1.5,1.4c-8.3,0.1-13,0.7-21.4,3C59.6,26.1,59.9,25.8,60.7,25.2
		z M58.6,27c8.4-2.3,13.1-2.9,21.5-3c-0.6,0.6-0.9,0.9-1.5,1.4c-8.4,0.2-13.2,0.8-21.8,3.2C57.5,27.9,57.9,27.6,58.6,27L58.6,27z
		 M56.6,28.7c8.5-2.4,13.4-3.1,21.8-3.2c-0.6,0.6-0.8,0.8-1.4,1.5c-8.6,0.2-13.4,0.9-22.1,3.4C55.6,29.7,55.9,29.4,56.6,28.7z
		 M54.7,30.6c8.7-2.5,13.6-3.2,22.1-3.4c-0.5,0.5-0.7,0.8-1.2,1.4c-8.7,0.3-13.6,1-22.4,3.6C53.8,31.5,54.1,31.2,54.7,30.6
		L54.7,30.6z M237.2,65.1c-3.4,5.9-7.3,8.2-14.6,10.8c-0.2-0.6-0.2-0.8-0.4-1.4c7.3-2.6,11-4.7,14.5-10.4
		C236.9,64.5,237,64.7,237.2,65.1L237.2,65.1z M236.6,64c-3.4,5.7-7.2,7.8-14.5,10.3c-0.2-0.6-0.3-1-0.4-1.6
		c7.1-2.4,10.9-4.4,14.3-9.8C236.3,63.4,236.4,63.6,236.6,64L236.6,64z M236,62.8c-3.4,5.4-7.2,7.4-14.3,9.8
		c-0.2-0.6-0.2-0.9-0.4-1.6c7-2.2,10.7-4.1,14.1-9.3C235.6,62.1,235.7,62.4,236,62.8z M235.3,61.6c-3.4,5.1-7.1,7-14.1,9.2
		c-0.2-0.6-0.2-0.9-0.4-1.6c6.9-2,10.5-3.8,14-8.7C235,61,235.1,61.2,235.3,61.6L235.3,61.6z M234.7,60.4c-3.4,4.9-7,6.7-13.9,8.7
		c-0.2-0.6-0.2-0.9-0.4-1.6c6.8-1.9,10.3-3.5,13.8-8.2C234.3,59.8,234.5,60,234.7,60.4L234.7,60.4z M234.1,59.2
		c-3.4,4.6-7,6.3-13.8,8.1c-0.2-0.6-0.2-0.9-0.4-1.6c6.7-1.7,10.1-3.3,13.6-7.6C233.7,58.6,233.8,58.8,234.1,59.2z M233.4,58
		c-3.4,4.3-6.9,5.9-13.6,7.6c-0.2-0.6-0.2-0.9-0.4-1.5c6.6-1.5,10-3,13.4-7.1C233.1,57.4,233.2,57.6,233.4,58L233.4,58z M232.8,56.8
		c-3.4,4.1-6.8,5.5-13.4,7c-0.1-0.6-0.2-0.9-0.4-1.5c6.4-1.4,9.8-2.7,13.2-6.6C232.5,56.2,232.6,56.4,232.8,56.8L232.8,56.8z
		 M232.2,55.7c-3.4,3.8-6.7,5.2-13.2,6.5c-0.1-0.6-0.2-0.9-0.4-1.5c6.3-1.2,9.6-2.5,13-6C231.8,55,231.9,55.3,232.2,55.7L232.2,55.7
		z M231.6,54.5c-3.4,3.5-6.6,4.8-12.9,6c-0.1-0.6-0.2-0.9-0.4-1.5c6.2-1.1,9.4-2.2,12.8-5.5C231.2,53.9,231.3,54.1,231.6,54.5z
		 M230.9,53.3c-3.4,3.3-6.6,4.4-12.7,5.5c-0.1-0.5-0.2-0.8-0.3-1.3c6.1-0.9,9.2-2,12.6-5.1L230.9,53.3z M230.3,52
		c-3.4,3-6.5,4-12.5,4.9c-0.1-0.6-0.2-0.9-0.3-1.5c5.9-0.7,8.9-1.7,12.3-4.4C229.9,51.4,230,51.6,230.3,52L230.3,52z M229.6,50.9
		c-3.3,2.7-6.4,3.7-12.3,4.4c-0.1-0.6-0.2-0.9-0.3-1.5c5.8-0.6,8.8-1.4,12.1-3.9C229.3,50.3,229.4,50.5,229.6,50.9L229.6,50.9z
		 M229,49.8c-3.3,2.5-6.3,3.3-12,3.9c-0.1-0.6-0.2-0.9-0.3-1.5c5.6-0.4,8.5-1.2,11.8-3.4C228.7,49.2,228.8,49.4,229,49.8L229,49.8z
		 M228.4,48.6c-3.3,2.2-6.2,2.9-11.8,3.4c-0.1-0.6-0.2-0.9-0.3-1.5c5.5-0.3,8.3-0.9,11.6-2.9C228.1,48,228.2,48.2,228.4,48.6z
		 M227.8,47.5c-3.3,2-6.1,2.6-11.6,2.9c-0.1-0.6-0.2-0.9-0.3-1.4c5.4-0.2,8.1-0.7,11.4-2.4C227.5,46.9,227.6,47.1,227.8,47.5
		L227.8,47.5z M227.2,46.4c-3.2,1.7-6,2.2-11.3,2.4c-0.1-0.6-0.2-0.9-0.3-1.4c5.2,0,7.9-0.4,11.1-1.9C226.9,45.8,227,46,227.2,46.4z
		 M226.7,45.3c-3.2,1.5-5.9,1.9-11.1,1.9c-0.1-0.6-0.2-0.8-0.3-1.4c5.1,0.1,7.7-0.2,10.9-1.5C226.3,44.7,226.4,44.9,226.7,45.3
		L226.7,45.3z M226.1,44.2c-3.2,1.3-5.8,1.6-10.9,1.4c-0.1-0.6-0.2-0.8-0.3-1.4c5,0.3,7.5,0,10.6-1
		C225.7,43.6,225.8,43.8,226.1,44.2L226.1,44.2z M225.5,43.1c-3.2,1-5.7,1.2-10.6,1c-0.1-0.6-0.2-0.8-0.3-1.4
		c4.8,0.4,7.3,0.3,10.4-0.5C225.1,42.5,225.2,42.7,225.5,43.1L225.5,43.1z M224.8,42c-3.1,0.8-5.6,0.9-10.4,0.5
		c-0.1-0.5-0.2-0.8-0.3-1.4c4.7,0.5,7.1,0.5,10.2-0.1C224.5,41.4,224.6,41.6,224.8,42L224.8,42z M224.2,41c-3.1,0.6-5.5,0.6-10.1,0
		c-0.1-0.5-0.2-0.8-0.3-1.4c4.5,0.7,6.8,0.7,9.9,0.4C223.9,40.4,224,40.6,224.2,41L224.2,41z M223.5,39.6c-3.1,0.3-5.3,0.2-9.8-0.5
		c-0.1-0.5-0.2-0.8-0.3-1.3c4.4,0.8,6.6,1,9.6,0.9C223.2,39.1,223.3,39.3,223.5,39.6z M222.9,38.6c-3,0-5.2-0.1-9.6-1
		c-0.1-0.5-0.2-0.8-0.3-1.3c4.2,0.9,6.3,1.2,9.4,1.4C222.6,38,222.7,38.2,222.9,38.6z M222.3,37.5c-3-0.2-5.1-0.5-9.3-1.4
		c-0.1-0.5-0.2-0.8-0.3-1.3c4.1,1.1,6.1,1.4,9.1,1.8C222,37,222.1,37.2,222.3,37.5z M221.7,36.5c-3-0.4-5-0.8-9.1-1.8
		c-0.1-0.5-0.2-0.8-0.3-1.3c3.9,1.2,5.9,1.6,8.8,2.2C221.4,35.9,221.5,36.1,221.7,36.5z M221.1,35.5c-2.9-0.6-4.9-1.1-8.8-2.3
		c-0.1-0.5-0.2-0.8-0.3-1.3c3.8,1.3,5.7,1.8,8.6,2.6C220.8,34.9,220.9,35.1,221.1,35.5L221.1,35.5z M220.5,34.4
		c-2.9-0.8-4.8-1.4-8.6-2.7c-0.1-0.5-0.2-0.8-0.3-1.3c3.6,1.4,5.4,2,8.3,3C220.2,33.9,220.3,34.1,220.5,34.4L220.5,34.4z M220,33.4
		c-2.9-1.1-4.7-1.7-8.3-3.1c-0.1-0.5-0.2-0.8-0.3-1.3c3.5,1.5,5.2,2.2,8.1,3.5C219.6,32.9,219.7,33,220,33.4L220,33.4z M219.4,32.4
		c-2.8-1.3-4.6-2-8-3.5c-0.1-0.5-0.2-0.8-0.3-1.3c3.3,1.6,5,2.4,7.8,3.9C219.1,31.9,219.2,32,219.4,32.4z M218.8,31.4
		c-2.8-1.5-4.4-2.3-7.8-3.9c-0.1-0.5-0.2-0.8-0.3-1.2c3.2,1.7,4.8,2.6,7.5,4.3C218.5,30.9,218.6,31,218.8,31.4L218.8,31.4z
		 M218.2,30.4c-2.8-1.7-4.3-2.6-7.5-4.3c-0.1-0.5-0.2-0.7-0.3-1.2c3,1.8,4.5,2.8,7.2,4.6C217.9,29.9,218,30,218.2,30.4L218.2,30.4z
		 M217.6,29.4c-2.7-1.9-4.2-2.8-7.2-4.7c-0.1-0.4-0.1-0.6-0.2-1c2.9,1.9,4.3,2.9,7,5C217.4,29,217.5,29.1,217.6,29.4L217.6,29.4z"/>
</g>
<g class="st8">
	<g class="st7">
		<path class="st9" d="M74.6,59.8c8.6-0.9,12.9-1.2,21.3-1.8c0-0.4,0.1-0.6,0.1-1c-8.4,0.4-12.8,0.8-21.4,1.6
			C74.6,59.1,74.6,59.3,74.6,59.8L74.6,59.8z"/>
		<path class="st9" d="M74.7,61.1c8.6-0.9,12.9-1.3,21.1-2.1c0-0.4,0.1-0.6,0.1-1c-8.3,0.6-12.7,1-21.3,1.8
			C74.6,60.4,74.6,60.7,74.7,61.1z"/>
		<path class="st9" d="M50.8,56.8c8.8-1,14.1-1.6,22.9-2.4c0-0.5,0-0.7,0-1.2c-8.9,0.7-14.2,1.3-23,2.4
			C50.7,56.1,50.7,56.4,50.8,56.8z"/>
		<path class="st9" d="M74.8,62.6c8.5-0.9,12.8-1.4,21-2.4c0-0.3,0-0.5,0.1-0.8c-8.2,0.8-12.5,1.3-21.1,2.2
			C74.7,62,74.7,62.2,74.8,62.6L74.8,62.6z"/>
		<path class="st9" d="M75.2,67.8c8.3-1.1,12.3-1.8,20.2-3.3c0-0.4,0-0.6,0-0.9c-8,1.4-12.1,2.1-20.4,3.1
			C75.1,67.1,75.1,67.3,75.2,67.8L75.2,67.8z"/>
		<path class="st9" d="M75.3,69.1c8.2-1.1,12.2-1.8,20.1-3.6c0-0.4,0-0.6,0-0.9c-7.9,1.6-12,2.3-20.2,3.4
			C75.3,68.4,75.3,68.6,75.3,69.1z"/>
		<path class="st9" d="M75.1,66.5c8.3-1,12.5-1.7,20.4-3.1c0-0.4,0-0.6,0.1-0.9c-8.1,1.3-12.2,1.9-20.6,2.9
			C75,65.8,75,66.1,75.1,66.5z"/>
		<path class="st9" d="M74.8,63.9c8.5-1,12.7-1.5,20.8-2.6c0-0.4,0-0.6,0.1-1c-8.2,1-12.4,1.5-20.9,2.4
			C74.8,63.2,74.8,63.4,74.8,63.9z"/>
		<path class="st9" d="M75.5,44.3c9-0.4,13.6-0.1,22.5,1.3c0.1-0.4,0.1-0.6,0.2-1c-8.9-1.5-13.5-1.8-22.5-1.5
			C75.6,43.6,75.6,43.8,75.5,44.3z"/>
		<path class="st9" d="M74.6,55.8c8.8-0.7,13.2-0.9,21.7-1c0.1-0.4,0.1-0.6,0.1-1c-8.6-0.1-13,0.1-21.8,0.8
			C74.6,55,74.6,55.3,74.6,55.8z"/>
		<path class="st9" d="M74.9,48.9c8.9-0.5,13.5-0.4,22.2,0.3c0.1-0.4,0.1-0.6,0.2-1c-8.8-0.9-13.4-1.1-22.3-0.6
			C75,48.2,75,48.4,74.9,48.9z"/>
		<path class="st9" d="M75.1,47.5c8.9-0.5,13.5-0.3,22.3,0.6c0.1-0.4,0.1-0.6,0.2-1c-8.8-1.1-13.4-1.3-22.4-0.9
			C75.2,46.8,75.1,47,75.1,47.5L75.1,47.5z"/>
		<path class="st9" d="M74.8,50.3c8.9-0.6,13.4-0.5,22.1,0.1c0.1-0.4,0.1-0.6,0.2-1c-8.8-0.8-13.3-0.8-22.2-0.3
			C74.9,49.5,74.9,49.8,74.8,50.3z"/>
		<path class="st9" d="M75.3,45.8c8.9-0.4,13.6-0.2,22.4,1c0.1-0.4,0.1-0.6,0.2-1c-8.8-1.3-13.5-1.6-22.4-1.2
			C75.4,45,75.4,45.2,75.3,45.8L75.3,45.8z"/>
		<path class="st9" d="M75.5,70.4c8.2-1.1,12.1-1.9,19.9-3.8c0-0.4,0-0.6,0-0.9c-7.8,1.8-11.8,2.5-20,3.6
			C75.4,69.7,75.5,69.9,75.5,70.4L75.5,70.4z"/>
		<path class="st9" d="M74.6,54.4c8.8-0.7,13.2-0.8,21.8-0.8c0.1-0.4,0.1-0.6,0.2-1c-8.6-0.2-13.1-0.1-21.9,0.5
			C74.6,53.7,74.6,53.9,74.6,54.4L74.6,54.4z"/>
		<path class="st9" d="M74.7,51.7c8.9-0.6,13.4-0.6,22-0.2c0.1-0.4,0.1-0.6,0.2-1c-8.7-0.6-13.2-0.6-22.1,0
			C74.8,50.9,74.8,51.2,74.7,51.7z"/>
		<path class="st9" d="M74.6,57.1c8.7-0.8,13.1-1,21.6-1.3c0.1-0.4,0.1-0.6,0.1-1c-8.5,0.1-12.9,0.3-21.7,1.1
			C74.6,56.4,74.6,56.6,74.6,57.1z"/>
		<path class="st9" d="M74.7,53c8.8-0.7,13.3-0.7,21.9-0.5c0.1-0.4,0.1-0.6,0.2-1c-8.7-0.4-13.2-0.4-22,0.2
			C74.7,52.3,74.7,52.5,74.7,53z"/>
		<path class="st9" d="M74.9,65.2c8.4-1,12.6-1.6,20.6-2.9c0-0.4,0-0.6,0.1-1c-8.1,1.1-12.3,1.7-20.8,2.6
			C74.9,64.5,74.9,64.8,74.9,65.2z"/>
		<path class="st9" d="M51,47.2c9.2-1.7,14.5-2.4,23.6-2.8c0.1-0.5,0.1-0.8,0.2-1.3c-9,0.4-14.4,1-23.6,2.8
			C51.1,46.4,51,46.7,51,47.2L51,47.2z"/>
		<path class="st9" d="M50.8,48.5c9.1-1.6,14.5-2.3,23.5-2.7c0.1-0.5,0.1-0.8,0.2-1.3c-9,0.4-14.4,1.1-23.6,2.8
			C50.9,47.8,50.9,48.1,50.8,48.5L50.8,48.5z"/>
		<path class="st9" d="M50.7,50.2c9.1-1.5,14.4-2.1,23.4-2.7c0.1-0.5,0.1-0.8,0.2-1.3c-9,0.5-14.4,1.1-23.5,2.7
			C50.8,49.5,50.8,49.8,50.7,50.2z"/>
		<path class="st9" d="M51.1,45.8c9.2-1.8,14.6-2.5,23.6-2.8c0.1-0.5,0.1-0.8,0.2-1.3c-9.1,0.3-14.4,1-23.7,2.9
			C51.2,45.1,51.2,45.3,51.1,45.8z"/>
		<path class="st9" d="M51.3,44.4c9.2-1.9,14.6-2.5,23.7-2.9c0.1-0.5,0.1-0.8,0.2-1.3c-9.1,0.3-14.4,0.9-23.7,2.9
			C51.5,43.7,51.4,43.9,51.3,44.4z"/>
		<path class="st9" d="M75.7,71.6c8.1-1.2,12-2,19.7-4.1c0-0.4,0-0.6,0-0.9c-7.7,1.9-11.7,2.7-19.8,3.8
			C75.6,70.9,75.6,71.2,75.7,71.6L75.7,71.6z"/>
		<path class="st9" d="M51.6,43c9.3-2,14.6-2.6,23.7-2.9c0.1-0.5,0.2-0.8,0.3-1.3c-9.1,0.2-14.4,0.9-23.7,3
			C51.7,42.3,51.7,42.5,51.6,43L51.6,43z"/>
		<path class="st9" d="M50.7,51.6c9-1.4,14.4-2,23.3-2.6c0.1-0.5,0.1-0.8,0.1-1.2c-9,0.5-14.3,1.2-23.4,2.7
			C50.7,50.9,50.7,51.1,50.7,51.6L50.7,51.6z"/>
		<path class="st9" d="M50.7,54.2c8.9-1.2,14.2-1.8,23.2-2.5c0-0.5,0-0.7,0.1-1.2c-8.9,0.6-14.3,1.2-23.2,2.5
			C50.6,53.5,50.6,53.8,50.7,54.2L50.7,54.2z"/>
		<path class="st9" d="M50.6,52.9c9-1.3,14.3-2,23.2-2.6c0-0.5,0.1-0.8,0.1-1.2c-9,0.6-14.3,1.2-23.3,2.6
			C50.6,52.2,50.6,52.4,50.6,52.9L50.6,52.9z"/>
		<path class="st9" d="M50.7,55.5c8.8-1.1,14.1-1.7,23-2.4c0-0.5,0-0.7,0.1-1.2c-8.9,0.7-14.2,1.3-23.1,2.5
			C50.7,54.8,50.7,55.1,50.7,55.5L50.7,55.5z"/>
		<path class="st9" d="M76.3,75.2C84.2,74,88,73,95.4,70.5c0-0.3,0-0.5,0-0.8C87.8,72.1,84,73,76.1,74.2
			C76.2,74.6,76.2,74.8,76.3,75.2z"/>
		<path class="st9" d="M51.9,41.6c9.3-2.1,14.7-2.7,23.7-3c0.1-0.5,0.2-0.8,0.3-1.3c-9.1,0.2-14.4,0.8-23.7,3
			C52,40.9,52,41.1,51.9,41.6L51.9,41.6z"/>
		<path class="st9" d="M53.7,34.9c9.4-2.6,14.7-3.2,23.7-3.2c0.1-0.4,0.2-0.6,0.3-1c-9,0-14.3,0.7-23.7,3.3
			C53.8,34.3,53.8,34.5,53.7,34.9L53.7,34.9z"/>
		<path class="st9" d="M75.9,72.9c8-1.2,11.9-2.1,19.5-4.3c0-0.4,0-0.6,0-0.9c-7.6,2.1-11.6,2.9-19.6,4.1
			C75.8,72.2,75.8,72.4,75.9,72.9L75.9,72.9z"/>
		<path class="st9" d="M76.1,74.1c7.9-1.2,11.8-2.2,19.2-4.5c0-0.4,0-0.6,0-0.9c-7.6,2.2-11.4,3.1-19.4,4.3
			C75.9,73.4,76,73.7,76.1,74.1L76.1,74.1z"/>
		<path class="st9" d="M53.2,36.2C62.7,33.8,68,33.1,77,33c0.1-0.5,0.2-0.7,0.3-1.2c-9,0-14.3,0.7-23.7,3.2
			C53.5,35.5,53.4,35.8,53.2,36.2z"/>
		<path class="st9" d="M52.2,40.2c9.3-2.2,14.7-2.8,23.7-3c0.1-0.5,0.2-0.8,0.3-1.3c-9,0.2-14.4,0.8-23.7,3
			C52.4,39.5,52.3,39.7,52.2,40.2L52.2,40.2z"/>
		<path class="st9" d="M52.5,38.8c9.4-2.3,14.7-2.9,23.7-3c0.1-0.5,0.2-0.7,0.3-1.2c-9,0.1-14.4,0.8-23.8,3.1
			C52.7,38.1,52.6,38.4,52.5,38.8L52.5,38.8z"/>
		<path class="st9" d="M52.9,37.5c9.4-2.4,14.7-3,23.8-3.1c0.1-0.5,0.2-0.7,0.3-1.2c-9,0.1-14.3,0.7-23.7,3.2
			C53.1,36.8,53,37.1,52.9,37.5L52.9,37.5z"/>
		<path class="st9" d="M74.6,58.5c8.7-0.8,13-1.1,21.4-1.6c0-0.4,0.1-0.6,0.1-1c-8.5,0.3-12.8,0.5-21.5,1.3
			C74.6,57.7,74.6,58,74.6,58.5z"/>
		<path class="st9" d="M97.7,51.5c8.6,0.5,12.8,0.9,20.8,1.8c0.1-0.2,0.2-0.3,0.3-0.5c-8.1-1.1-12.2-1.7-20.9-2.3
			C97.8,50.9,97.8,51.1,97.7,51.5z"/>
		<path class="st9" d="M97.5,52.6c8.6,0.3,12.7,0.6,20.8,1.2c0.1-0.2,0.2-0.3,0.2-0.5c-8.1-0.8-12.2-1.3-20.8-1.7
			C97.6,52,97.6,52.2,97.5,52.6L97.5,52.6z"/>
		<path class="st9" d="M97.9,50.4c8.7,0.6,12.8,1.2,20.9,2.3c0.1-0.2,0.2-0.3,0.3-0.5c-8.1-1.4-12.3-2-21-2.8
			C98,49.8,97.9,50,97.9,50.4L97.9,50.4z"/>
		<path class="st9" d="M98.1,49.3c8.7,0.8,12.9,1.5,21,2.9c0.1-0.2,0.2-0.3,0.3-0.5c-8.1-1.6-12.3-2.4-21.1-3.4
			C98.2,48.7,98.2,48.9,98.1,49.3L98.1,49.3z"/>
		<path class="st9" d="M98.3,48.2c8.8,1,13,1.8,21.1,3.5c0.1-0.2,0.2-0.3,0.3-0.5c-8.1-1.9-12.3-2.8-21.1-3.9
			C98.4,47.6,98.4,47.8,98.3,48.2z"/>
		<path class="st9" d="M97.3,53.7c8.6,0.1,12.7,0.3,20.6,0.7c0.1-0.2,0.2-0.3,0.2-0.5c-8-0.6-12.2-0.9-20.7-1.2
			C97.4,53.1,97.4,53.3,97.3,53.7L97.3,53.7z"/>
		<path class="st9" d="M98.9,45.8c8.8,1.4,13.1,2.5,21.2,4.7c0.1-0.2,0.2-0.3,0.3-0.5c-8.2-2.4-12.4-3.7-21.2-5.2
			C99,45.2,99,45.4,98.9,45.8L98.9,45.8z"/>
		<path class="st9" d="M97,55.8c8.4-0.2,12.5-0.2,20.4-0.4c0.1-0.2,0.1-0.3,0.2-0.5c-7.9-0.1-12-0.2-20.5-0.1
			C97.1,55.2,97.1,55.4,97,55.8z"/>
		<path class="st9" d="M96.9,56.8c8.4-0.4,12.4-0.5,20.3-0.9c0.1-0.2,0.1-0.3,0.2-0.5c-7.9,0.1-12,0.2-20.4,0.4
			C97,56.3,97,56.5,96.9,56.8L96.9,56.8z"/>
		<path class="st9" d="M97.2,54.7c8.5-0.1,12.6,0,20.5,0.2c0.1-0.2,0.1-0.3,0.2-0.5c-8-0.3-12.1-0.6-20.6-0.7
			C97.3,54.1,97.2,54.3,97.2,54.7L97.2,54.7z"/>
		<path class="st9" d="M96.8,57.9c8.3-0.6,12.3-0.8,20.1-1.4c0.1-0.2,0.1-0.3,0.2-0.5c-7.9,0.4-11.9,0.5-20.3,1
			C96.8,57.4,96.8,57.5,96.8,57.9L96.8,57.9z"/>
		<path class="st9" d="M101.1,38c8.9,2.7,13.2,4.6,21.3,8.6c0.1-0.2,0.2-0.3,0.3-0.5c-8.1-4.2-12.4-6.3-21.3-9.1
			C101.3,37.4,101.2,37.6,101.1,38L101.1,38z"/>
		<path class="st9" d="M101.5,36.9c8.9,2.8,13.2,4.9,21.3,9.2c0.1-0.2,0.2-0.3,0.3-0.5c-8.1-4.5-12.3-6.7-21.3-9.6
			C101.6,36.3,101.6,36.5,101.5,36.9z"/>
		<path class="st9" d="M100.8,39.1c8.9,2.5,13.2,4.3,21.3,8.1c0.1-0.2,0.2-0.3,0.3-0.5c-8.2-4-12.4-5.9-21.3-8.6
			C100.9,38.5,100.9,38.7,100.8,39.1z"/>
		<path class="st9" d="M99.2,44.7c8.8,1.6,13.1,2.8,21.2,5.3c0.1-0.2,0.2-0.3,0.3-0.5c-8.2-2.7-12.4-4-21.3-5.8
			C99.3,44.1,99.2,44.3,99.2,44.7L99.2,44.7z"/>
		<path class="st9" d="M101.8,35.8c8.9,3,13.1,5.2,21.3,9.7c0.1-0.2,0.2-0.2,0.3-0.4c-8.1-4.7-12.3-7-21.2-10.1
			C102,35.4,101.9,35.5,101.8,35.8L101.8,35.8z"/>
		<path class="st9" d="M99.7,42.4c8.9,1.9,13.1,3.4,21.3,6.4c0.1-0.2,0.2-0.3,0.3-0.5c-8.2-3.2-12.4-4.8-21.3-6.9
			C99.9,41.8,99.8,42,99.7,42.4z"/>
		<path class="st9" d="M100.4,40.2c8.9,2.3,13.1,4,21.3,7.5c0.1-0.2,0.2-0.3,0.3-0.5c-8.2-3.7-12.4-5.5-21.3-8
			C100.6,39.6,100.5,39.8,100.4,40.2L100.4,40.2z"/>
		<path class="st9" d="M99.4,43.5c8.9,1.8,13.1,3.1,21.3,5.8c0.1-0.2,0.2-0.3,0.3-0.5c-8.2-3-12.4-4.4-21.3-6.3
			C99.6,43,99.5,43.1,99.4,43.5L99.4,43.5z"/>
		<path class="st9" d="M100.1,41.3c8.9,2.1,13.1,3.7,21.3,7c0.1-0.2,0.2-0.3,0.3-0.5c-8.2-3.5-12.4-5.2-21.3-7.5
			C100.2,40.7,100.2,40.9,100.1,41.3z"/>
		<path class="st9" d="M96.1,70.2c7.4-2.5,11-4.1,18-7.6c0.1-0.2,0.1-0.2,0.2-0.4c-7.1,3.3-10.7,4.8-18.2,7.2
			C96.1,69.8,96.1,69.9,96.1,70.2L96.1,70.2z"/>
		<path class="st9" d="M77.2,35.8c8.9-0.1,13.7,0.6,22.6,3c0.1-0.4,0.2-0.6,0.3-1c-8.9-2.6-13.7-3.3-22.6-3.3
			C77.4,35.1,77.3,35.3,77.2,35.8z"/>
		<path class="st9" d="M77.6,34.4c8.9,0,13.7,0.7,22.6,3.3c0.1-0.4,0.2-0.6,0.3-1c-8.9-2.7-13.7-3.5-22.6-3.5
			C77.8,33.7,77.7,33.9,77.6,34.4L77.6,34.4z"/>
		<path class="st9" d="M77.9,33c8.9,0,13.6,0.8,22.6,3.6c0.1-0.4,0.2-0.6,0.3-1c-8.9-2.9-13.7-3.8-22.6-3.8
			C78.1,32.3,78.1,32.6,77.9,33L77.9,33z"/>
		<path class="st9" d="M78.3,31.7c8.9,0.1,13.6,0.9,22.6,3.8c0.1-0.3,0.2-0.5,0.3-0.8c-8.9-3-13.7-4-22.6-4
			C78.5,31.1,78.5,31.3,78.3,31.7z"/>
		<path class="st9" d="M75.7,42.9c9-0.3,13.6,0,22.5,1.5c0.1-0.4,0.2-0.6,0.3-1c-8.9-1.7-13.6-2.1-22.5-1.8
			C75.9,42.2,75.8,42.4,75.7,42.9L75.7,42.9z"/>
		<path class="st9" d="M76.5,38.7c9-0.2,13.7,0.4,22.6,2.4c0.1-0.4,0.2-0.6,0.3-1c-8.9-2.2-13.6-2.8-22.6-2.7
			C76.7,37.9,76.7,38.1,76.5,38.7L76.5,38.7z"/>
		<path class="st9" d="M76.9,37.2c9-0.1,13.7,0.5,22.6,2.7c0.1-0.4,0.2-0.6,0.3-1c-8.9-2.4-13.6-3.1-22.6-3
			C77.1,36.4,77,36.7,76.9,37.2z"/>
		<path class="st9" d="M76.2,40.1c9-0.2,13.7,0.3,22.6,2.1c0.1-0.4,0.2-0.6,0.3-1c-8.9-2-13.6-2.6-22.6-2.4
			C76.4,39.3,76.3,39.6,76.2,40.1L76.2,40.1z"/>
		<path class="st9" d="M76,41.5c9-0.3,13.6,0.2,22.5,1.8c0.1-0.4,0.2-0.6,0.3-1c-8.9-1.8-13.6-2.3-22.6-2.1
			C76.1,40.7,76.1,41,76,41.5L76,41.5z"/>
		<path class="st9" d="M96.1,69.4c7.5-2.4,11.1-3.9,18.2-7.1c0.1-0.2,0.1-0.3,0.2-0.5c-7.2,3-10.8,4.4-18.4,6.7
			C96.1,68.8,96.1,69,96.1,69.4z"/>
		<path class="st9" d="M96.6,60.1c8.2-0.9,12.1-1.4,19.8-2.5c0.1-0.2,0.1-0.2,0.2-0.4c-7.8,0.9-11.7,1.3-19.9,2.1
			C96.6,59.6,96.6,59.8,96.6,60.1L96.6,60.1z"/>
		<path class="st9" d="M96.4,62.2c8-1.3,11.9-2,19.5-3.6c0.1-0.2,0.1-0.3,0.2-0.5c-7.6,1.4-11.6,2-19.7,3.1
			C96.4,61.6,96.4,61.8,96.4,62.2L96.4,62.2z"/>
		<path class="st9" d="M96.5,61.2c8.1-1.1,12-1.7,19.7-3.1c0.1-0.2,0.1-0.3,0.2-0.5c-7.7,1.2-11.6,1.6-19.8,2.6
			C96.5,60.6,96.5,60.8,96.5,61.2z"/>
		<path class="st9" d="M96.7,59c8.2-0.8,12.2-1.1,20-2c0.1-0.2,0.1-0.3,0.2-0.5c-7.8,0.6-11.8,0.9-20.1,1.5
			C96.7,58.4,96.7,58.6,96.7,59L96.7,59z"/>
		<path class="st9" d="M96.3,63.2c8-1.4,11.8-2.2,19.3-4.1c0.1-0.2,0.1-0.3,0.2-0.5c-7.6,1.6-11.5,2.3-19.5,3.6
			C96.4,62.7,96.3,62.9,96.3,63.2L96.3,63.2z"/>
		<path class="st9" d="M96.3,64.3c7.9-1.6,11.7-2.5,19.2-4.6c0.1-0.2,0.1-0.3,0.2-0.5c-7.5,1.9-11.4,2.7-19.3,4.2
			C96.3,63.7,96.3,63.9,96.3,64.3z"/>
		<path class="st9" d="M96.2,67.3c7.6-2.1,11.3-3.3,18.6-6.1c0.1-0.2,0.1-0.3,0.2-0.5c-7.3,2.6-11.1,3.7-18.8,5.7
			C96.2,66.8,96.2,67,96.2,67.3L96.2,67.3z"/>
		<path class="st9" d="M96.2,66.3c7.7-1.9,11.4-3.1,18.8-5.6c0.1-0.2,0.1-0.3,0.2-0.5c-7.4,2.3-11.2,3.4-19,5.2
			C96.2,65.8,96.2,66,96.2,66.3L96.2,66.3z"/>
		<path class="st9" d="M96.2,65.3c7.8-1.8,11.6-2.8,19-5.1c0.1-0.2,0.1-0.3,0.2-0.5c-7.5,2.1-11.3,3-19.1,4.7
			C96.3,64.8,96.2,64.9,96.2,65.3L96.2,65.3z"/>
		<path class="st9" d="M96.1,68.3c7.6-2.2,11.2-3.6,18.4-6.6c0.1-0.2,0.1-0.3,0.2-0.5c-7.2,2.8-10.9,4.1-18.6,6.2
			C96.1,67.8,96.1,68,96.1,68.3z"/>
		<path class="st9" d="M98.6,46.9c8.8,1.2,13,2.2,21.2,4.1c0.1-0.2,0.2-0.3,0.3-0.5c-8.2-2.2-12.4-3.3-21.2-4.6
			C98.8,46.3,98.7,46.5,98.6,46.9z"/>
		<path class="st9" d="M118,55.9c3.9-0.2,5.8-0.3,9.7-0.5l0.3-0.2c-3.8,0.1-5.8,0.2-9.7,0.2C118.2,55.7,118.1,55.7,118,55.9z"/>
		<path class="st9" d="M118.8,54.4c4,0.2,5.9,0.3,9.8,0.4l0.3-0.2c-3.9-0.3-5.8-0.4-9.8-0.7C119,54.1,118.9,54.2,118.8,54.4
			L118.8,54.4z"/>
		<path class="st9" d="M120.6,51.2c4.1,1,6.1,1.5,10,2.5l0.3-0.2c-3.9-1.1-5.9-1.7-10-2.8C120.8,50.9,120.7,51,120.6,51.2
			L120.6,51.2z"/>
		<path class="st9" d="M118.3,55.4c3.9-0.1,5.9-0.1,9.7-0.2l0.3-0.2c-3.8,0-5.8,0-9.8-0.1C118.4,55.1,118.4,55.2,118.3,55.4z"/>
		<path class="st9" d="M117.5,56.9c3.9-0.4,5.8-0.7,9.6-1.2l0.3-0.2c-3.8,0.4-5.7,0.6-9.6,0.9C117.6,56.7,117.6,56.7,117.5,56.9z"/>
		<path class="st9" d="M117.7,56.4c3.9-0.3,5.8-0.5,9.6-0.8l0.3-0.2c-3.8,0.3-5.7,0.4-9.7,0.6C117.9,56.2,117.8,56.2,117.7,56.4
			L117.7,56.4z"/>
		<path class="st9" d="M117.2,57.5c3.8-0.6,5.7-0.9,9.5-1.5l0.2-0.1c-3.8,0.5-5.7,0.8-9.5,1.3C117.3,57.2,117.3,57.3,117.2,57.5
			L117.2,57.5z"/>
		<path class="st9" d="M120.2,51.8c4.1,0.8,6,1.2,10,2.1l0.3-0.2c-3.9-0.9-5.9-1.4-10-2.4C120.4,51.6,120.4,51.7,120.2,51.8
			L120.2,51.8z"/>
		<path class="st9" d="M120,52.4c4,0.7,6,1.1,9.9,1.8l0.3-0.2c-3.9-0.8-5.9-1.2-10-2C120.1,52.1,120.1,52.2,120,52.4L120,52.4z"/>
		<path class="st9" d="M119.7,52.9c4,0.6,6,0.9,9.9,1.4l0.3-0.2c-3.9-0.7-5.9-1-9.9-1.7C119.8,52.6,119.8,52.7,119.7,52.9
			L119.7,52.9z"/>
		<path class="st9" d="M119.4,53.4c4,0.4,6,0.7,9.9,1.1l0.3-0.2c-3.9-0.5-5.9-0.8-9.9-1.4C119.5,53.1,119.5,53.2,119.4,53.4
			L119.4,53.4z"/>
		<path class="st9" d="M119.1,53.9c4,0.3,6,0.5,9.9,0.8l0.3-0.2c-3.9-0.4-5.9-0.6-9.9-1.1C119.2,53.6,119.2,53.7,119.1,53.9z"/>
		<path class="st9" d="M118.5,54.9c4,0.1,5.9,0.1,9.8,0.1l0.3-0.2c-3.9-0.1-5.8-0.2-9.8-0.4C118.7,54.6,118.6,54.7,118.5,54.9z"/>
		<path class="st9" d="M114.8,62.3c3.5-1.7,5.3-2.7,8.7-4.6l0.2-0.1c-3.5,1.8-5.2,2.7-8.8,4.3C114.9,62.1,114.9,62.2,114.8,62.3z"/>
		<path class="st9" d="M115.5,60.9c3.6-1.4,5.4-2.2,9-3.7c0.1-0.1,0.2-0.1,0.3-0.2c-3.6,1.4-5.4,2.1-9.1,3.4
			C115.6,60.7,115.6,60.7,115.5,60.9z"/>
		<path class="st9" d="M115.3,61.4c3.6-1.5,5.4-2.3,8.9-4c0.1-0.1,0.2-0.1,0.3-0.2c-3.6,1.6-5.3,2.3-9,3.7
			C115.4,61.1,115.4,61.2,115.3,61.4L115.3,61.4z"/>
		<path class="st9" d="M115,61.9c3.6-1.6,5.3-2.5,8.8-4.3c0.1-0.1,0.2-0.1,0.3-0.2c-3.5,1.7-5.3,2.5-8.9,4
			C115.2,61.6,115.1,61.7,115,61.9z"/>
		<path class="st9" d="M116.9,58c3.8-0.7,5.7-1,9.4-1.8l0.3-0.2c-3.8,0.7-5.6,1-9.5,1.6C117.1,57.7,117,57.8,116.9,58L116.9,58z"/>
		<path class="st9" d="M50.9,58.1c8.7-0.9,14-1.5,22.8-2.3c0-0.5,0-0.7,0-1.2C64.8,55.3,59.5,56,50.8,57
			C50.8,57.5,50.8,57.7,50.9,58.1L50.9,58.1z"/>
		<path class="st9" d="M116.5,59c3.8-0.9,5.6-1.4,9.3-2.5l0.3-0.2c-3.7,0.9-5.6,1.4-9.3,2.2C116.6,58.7,116.6,58.8,116.5,59z"/>
		<path class="st9" d="M116.7,58.5c3.8-0.8,5.7-1.2,9.4-2.2l0.3-0.2c-3.7,0.8-5.6,1.2-9.4,1.9C116.8,58.2,116.8,58.3,116.7,58.5z"/>
		<path class="st9" d="M116.2,59.5c3.7-1,5.6-1.6,9.2-2.8l0.3-0.2c-3.7,1-5.5,1.5-9.3,2.5C116.4,59.2,116.3,59.3,116.2,59.5
			L116.2,59.5z"/>
		<path class="st9" d="M115.8,60.4c3.7-1.3,5.5-2,9.1-3.4c0.1-0.1,0.2-0.1,0.3-0.2c-3.6,1.3-5.4,1.9-9.1,3.1
			C115.9,60.2,115.8,60.3,115.8,60.4L115.8,60.4z"/>
		<path class="st9" d="M116,59.9c3.7-1.2,5.5-1.8,9.1-3.1c0.1-0.1,0.2-0.1,0.3-0.2c-3.6,1.2-5.5,1.7-9.2,2.8
			C116.1,59.7,116.1,59.8,116,59.9L116,59.9z"/>
		<path class="st9" d="M123.2,47c4.1,2,6,3.1,9.9,5.2l0.3-0.2c-3.9-2.2-5.9-3.3-9.9-5.5C123.4,46.8,123.4,46.9,123.2,47L123.2,47z"
			/>
		<path class="st9" d="M53,69.4c8,0,13-0.5,21.3-1.5c-0.1-0.5-0.1-0.7-0.1-1.2c-8.4,1-13.5,1.6-21.5,1.6C52.8,68.8,52.9,69,53,69.4z
			"/>
		<path class="st9" d="M52.7,68.2c8-0.1,13.1-0.6,21.5-1.6c-0.1-0.5-0.1-0.7-0.1-1.2c-8.4,1-13.5,1.5-21.7,1.7
			C52.5,67.6,52.5,67.8,52.7,68.2L52.7,68.2z"/>
		<path class="st9" d="M52.4,67c8.1-0.2,13.2-0.7,21.7-1.7c0-0.5-0.1-0.7-0.1-1.2c-8.5,1-13.6,1.5-21.8,1.8
			C52.2,66.4,52.3,66.6,52.4,67z"/>
		<path class="st9" d="M51.8,64.6c8.3-0.4,13.5-1,22-1.9c0-0.4,0-0.6-0.1-1c-8.6,0.9-13.8,1.5-22.2,2C51.7,64,51.7,64.2,51.8,64.6z"
			/>
		<path class="st9" d="M53.7,71.8c7.8,0.3,12.7-0.2,20.9-1.3c-0.1-0.5-0.1-0.7-0.2-1.1c-8.2,1.1-13.3,1.6-21.1,1.4
			C53.5,71.2,53.6,71.4,53.7,71.8z"/>
		<path class="st9" d="M53.4,70.6c7.8,0.1,12.9-0.4,21.1-1.4c-0.1-0.5-0.1-0.7-0.1-1.2c-8.3,1-13.4,1.6-21.3,1.5
			C53.2,70,53.2,70.2,53.4,70.6L53.4,70.6z"/>
		<path class="st9" d="M51.3,62c8.5-0.6,13.7-1.2,22.4-2.1c0-0.5,0-0.7,0-1.2c-8.7,0.8-14,1.4-22.5,2.1C51.2,61.3,51.3,61.5,51.3,62
			L51.3,62z"/>
		<path class="st9" d="M120.9,50.7c4.1,1.1,6.1,1.7,10,2.8l0.3-0.2c-3.9-1.2-5.9-1.9-10-3.1C121.1,50.4,121.1,50.5,120.9,50.7
			L120.9,50.7z"/>
		<path class="st9" d="M51,59.4c8.6-0.8,13.9-1.4,22.7-2.2c0-0.5,0-0.7,0-1.2c-8.8,0.8-14.1,1.4-22.8,2.3C50.9,58.7,51,59,51,59.4
			L51,59.4z"/>
		<path class="st9" d="M54.1,73c7.7,0.4,12.6-0.1,20.7-1.2c-0.1-0.4-0.1-0.7-0.2-1.1c-8.2,1.1-13.2,1.6-20.9,1.3
			C53.9,72.3,54,72.5,54.1,73L54.1,73z"/>
		<path class="st9" d="M51.2,60.7c8.6-0.7,13.8-1.3,22.5-2.2c0-0.5,0-0.7,0-1.2c-8.8,0.8-14,1.4-22.7,2.2
			C51.1,60,51.1,60.2,51.2,60.7L51.2,60.7z"/>
		<path class="st9" d="M51.5,63.2c8.4-0.5,13.6-1.1,22.2-2c0-0.5,0-0.7-0.1-1.2c-8.7,0.9-13.9,1.5-22.3,2.1
			C51.4,62.5,51.5,62.8,51.5,63.2z"/>
		<path class="st9" d="M52.1,65.8C60.3,65.5,65.5,65,74,64c0-0.5-0.1-0.7-0.1-1.2c-8.6,0.9-13.7,1.5-22,1.9
			C51.9,65.2,52,65.4,52.1,65.8z"/>
		<path class="st9" d="M122.9,47.6c4.1,1.9,6.1,2.9,9.9,4.8l0.3-0.2c-3.9-2.1-5.9-3.1-9.9-5.1C123.1,47.3,123,47.4,122.9,47.6
			L122.9,47.6z"/>
		<path class="st9" d="M122.2,48.6c4.1,1.6,6.1,2.5,10,4.2l0.3-0.2c-3.9-1.8-5.9-2.7-10-4.5C122.4,48.3,122.3,48.4,122.2,48.6
			L122.2,48.6z"/>
		<path class="st9" d="M122.6,48.1c4.1,1.8,6.1,2.7,10,4.5l0.3-0.2c-3.9-1.9-5.9-2.9-9.9-4.8C122.8,47.8,122.7,47.9,122.6,48.1z"/>
		<path class="st9" d="M54.5,74.1C62,74.6,67,74.1,75,73c-0.1-0.4-0.1-0.7-0.2-1.1c-8.1,1.1-13,1.6-20.7,1.2
			C54.3,73.5,54.4,73.7,54.5,74.1z"/>
		<path class="st9" d="M121.3,50.2c4.1,1.2,6.1,1.9,10,3.2l0.3-0.2c-3.9-1.4-5.9-2.1-10-3.5C121.4,49.9,121.4,50,121.3,50.2z"/>
		<path class="st9" d="M121.6,49.7c4.1,1.4,6.1,2.1,10,3.5l0.3-0.2c-3.9-1.5-5.9-2.3-10-3.8C121.8,49.4,121.7,49.5,121.6,49.7
			L121.6,49.7z"/>
		<path class="st9" d="M121.9,49.1c4.1,1.5,6.1,2.3,10,3.8l0.3-0.2c-3.9-1.7-5.9-2.5-10-4.1C122.1,48.8,122,48.9,121.9,49.1
			L121.9,49.1z"/>
		<path class="st9" d="M55.3,76.2c7.3,0.7,12.2,0.2,20.1-0.9c-0.1-0.4-0.1-0.6-0.2-1c-7.9,1.2-12.8,1.6-20.3,1
			C55.1,75.7,55.2,75.9,55.3,76.2z"/>
		<path class="st9" d="M123.9,46c4,2.3,6,3.5,9.9,5.8l0.2-0.1c-3.9-2.5-5.8-3.7-9.9-6.1C124.1,45.8,124.1,45.9,123.9,46z"/>
		<path class="st9" d="M55,75.3c7.4,0.6,12.3,0.1,20.3-1c-0.1-0.4-0.1-0.7-0.2-1.1c-8,1.1-12.9,1.6-20.5,1.1
			C54.7,74.7,54.8,74.9,55,75.3L55,75.3z"/>
		<path class="st9" d="M123.6,46.5c4.1,2.1,6,3.3,9.9,5.5l0.3-0.2c-3.9-2.3-5.8-3.5-9.9-5.8C123.8,46.3,123.7,46.4,123.6,46.5
			L123.6,46.5z"/>
		<path class="st10" d="M114.8,62.3c0.1-0.2,0.1-0.2,0.2-0.4c3.6-1.7,5.3-2.5,8.8-4.3l0,0c-3.5,1.8-5.2,2.7-8.8,4.3
			c0.1-0.2,0.1-0.3,0.2-0.4c3.6-1.5,5.4-2.3,8.9-4l0,0c-3.5,1.7-5.3,2.5-8.9,4c0.1-0.2,0.1-0.3,0.2-0.4c3.6-1.4,5.4-2.2,9-3.7l0,0
			c-3.6,1.5-5.3,2.3-9,3.7c0.1-0.2,0.1-0.3,0.2-0.4c3.7-1.3,5.5-2,9.1-3.4l0,0c-3.6,1.4-5.4,2.1-9.1,3.4c0.1-0.2,0.1-0.3,0.2-0.4
			c3.7-1.2,5.5-1.8,9.1-3.1l0,0c-3.6,1.3-5.4,1.9-9.1,3.1c0.1-0.2,0.1-0.3,0.2-0.4c3.7-1.1,5.6-1.6,9.2-2.8l0,0
			c-3.7,1.2-5.5,1.7-9.2,2.8c0.1-0.2,0.1-0.3,0.2-0.4c3.8-0.9,5.6-1.4,9.3-2.5l0,0c-3.7,1-5.5,1.5-9.3,2.5c0.1-0.2,0.1-0.3,0.2-0.4
			c3.8-0.8,5.7-1.3,9.3-2.2l0,0c-3.7,0.9-5.6,1.3-9.4,2.2c0.1-0.2,0.1-0.3,0.2-0.4c3.8-0.7,5.7-1.1,9.4-1.9l0,0
			c-3.7,0.8-5.6,1.2-9.4,1.8c0.1-0.2,0.1-0.3,0.2-0.5c3.8-0.6,5.7-0.9,9.5-1.6l0,0c-3.8,0.7-5.7,1-9.5,1.5c0.1-0.2,0.1-0.2,0.2-0.4
			c3.9-0.5,5.8-0.7,9.5-1.3l0.1-0.1c-3.8,0.5-5.7,0.7-9.6,1.2c0.1-0.2,0.1-0.3,0.2-0.5c3.9-0.3,5.8-0.5,9.6-0.9l0,0
			c-3.8,0.4-5.7,0.5-9.6,0.8c0.1-0.2,0.1-0.3,0.2-0.5c3.9-0.2,5.8-0.3,9.7-0.6l0,0c-3.8,0.2-5.8,0.3-9.7,0.5
			c0.1-0.2,0.1-0.3,0.2-0.5c3.9-0.1,5.9-0.1,9.7-0.2l0,0c-3.8,0.1-5.8,0.2-9.7,0.2c0.1-0.2,0.1-0.3,0.2-0.5c4,0,5.9,0.1,9.8,0.1l0,0
			c-3.8,0-5.8,0-9.8-0.1c0.1-0.2,0.2-0.3,0.2-0.5c4,0.2,5.9,0.3,9.8,0.4l0,0c-3.9-0.2-5.8-0.2-9.8-0.4c0.1-0.2,0.2-0.3,0.2-0.5
			c4,0.3,6,0.5,9.8,0.7l0,0c-3.9-0.3-5.8-0.5-9.8-0.8c0.1-0.2,0.2-0.3,0.2-0.5c4,0.4,6,0.7,9.9,1.1l0,0c-3.9-0.4-5.9-0.7-9.9-1.1
			c0.1-0.2,0.2-0.3,0.3-0.5c4,0.5,6,0.8,9.9,1.4l0,0c-3.9-0.5-5.9-0.8-9.9-1.4c0.1-0.2,0.2-0.3,0.3-0.5c4,0.7,6,1,9.9,1.7l0,0
			c-3.9-0.7-5.9-1-9.9-1.8c0.1-0.2,0.2-0.3,0.3-0.5c4.1,0.8,6,1.2,10,2l0,0c-3.9-0.8-5.9-1.2-10-2.1c0.1-0.2,0.2-0.3,0.3-0.5
			c4.1,0.9,6.1,1.4,10,2.4l0.1-0.1c-3.9-1-5.9-1.5-10-2.5c0.1-0.2,0.2-0.3,0.3-0.5c4.1,1.1,6.1,1.7,10,2.8l0,0
			c-3.9-1.1-5.9-1.7-10-2.8c0.1-0.2,0.2-0.3,0.3-0.5c4.1,1.2,6.1,1.9,10,3.1l0,0c-3.9-1.3-5.9-1.9-10-3.2c0.1-0.2,0.2-0.3,0.3-0.5
			c4.1,1.4,6.1,2.1,10,3.5l0,0c-3.9-1.4-5.9-2.1-10-3.5c0.1-0.2,0.2-0.3,0.3-0.5c4.1,1.5,6.1,2.3,10,3.8l0,0
			c-3.9-1.5-5.9-2.3-10-3.8c0.1-0.2,0.2-0.3,0.3-0.5c4.1,1.6,6.1,2.5,10,4.1l0,0c-3.9-1.7-5.9-2.5-10-4.2c0.1-0.2,0.2-0.3,0.3-0.5
			c4.1,1.8,6.1,2.7,10,4.5l0,0c-3.9-1.8-5.9-2.8-10-4.5c0.1-0.2,0.2-0.3,0.3-0.5c4.1,1.9,6.1,2.9,9.9,4.8l0,0c-3.9-2-5.9-3-9.9-4.8
			c0.1-0.2,0.2-0.3,0.3-0.5c4.1,2,6,3.1,9.9,5.1l0,0c-3.9-2.1-5.9-3.2-9.9-5.2c0.1-0.2,0.2-0.3,0.3-0.5c4.1,2.1,6,3.2,9.9,5.5l0,0
			c-3.9-2.2-5.9-3.3-9.9-5.5c0.1-0.2,0.2-0.3,0.3-0.5c4,2.3,6,3.4,9.9,5.8l0,0c-3.9-2.4-5.8-3.5-9.9-5.8c0.1-0.2,0.2-0.2,0.3-0.4
			c4,2.4,6,3.6,9.9,6.1l0.1-0.1C99.7,30.7,65.7,21,30.9,44.6c1.1,0.2,1.1,0.3,1,0.4c6.3-5.8,11.2-7.9,20.9-10.8
			c-0.1,0.4-0.2,0.6-0.3,1c-9.8,2.8-14.6,4.8-21,10.4v0.1c6.4-5.5,11.2-7.5,21-10.3c-0.2,0.5-0.2,0.7-0.4,1.2
			c-9.7,2.7-14.6,4.6-21.1,9.8v0.1c6.4-5.2,11.3-7.1,21.1-9.8c-0.1,0.5-0.2,0.7-0.3,1.2C42,40.3,37.1,42.1,30.6,47v0.1
			c6.5-4.8,11.4-6.7,21.1-9.2c-0.1,0.5-0.2,0.7-0.3,1.2c-9.7,2.4-14.7,4.2-21.2,8.7v0.1c6.5-4.5,11.5-6.2,21.2-8.7
			c-0.1,0.5-0.2,0.7-0.3,1.2c-9.7,2.3-14.7,4-21.2,8.2v0.1c6.6-4.2,11.6-5.8,21.2-8.1c-0.1,0.5-0.2,0.8-0.3,1.3
			c-9.7,2.2-14.7,3.7-21.3,7.7v0.1c6.6-3.9,11.6-5.4,21.3-7.6c-0.1,0.5-0.2,0.8-0.2,1.2c-9.6,2.1-14.7,3.5-21.3,7.2v0.1
			c6.7-3.6,11.7-5,21.3-7.1c-0.1,0.5-0.1,0.8-0.2,1.2c-9.6,2-14.7,3.3-21.4,6.6v0.1c6.7-3.3,11.7-4.5,21.4-6.6
			c-0.1,0.5-0.1,0.7-0.2,1.2c-9.6,1.9-14.7,3.1-21.4,6.1v0.1c6.7-3,11.8-4.1,21.4-6c-0.1,0.5-0.1,0.7-0.2,1.2
			c-9.5,1.8-14.6,2.9-21.4,5.6l0,0c6.7-2.7,11.8-3.7,21.4-5.5c0,0.5-0.1,0.7-0.1,1.2c-9.5,1.7-14.6,2.7-21.4,5c0,0.1,0,0.2,0,0.3
			c6.8-2.2,11.9-3.2,21.4-4.9c0,0.5,0,0.7-0.1,1.2c-9.5,1.6-14.6,2.4-21.4,4.4v0.1c6.8-1.9,11.9-2.8,21.4-4.3c0,0.5,0,0.7,0,1.2
			c-9.4,1.5-14.5,2.2-21.3,3.8c0,0,0,0,0,0.1c6.8-1.6,11.9-2.3,21.3-3.8c0,0.5,0,0.7,0,1.2c-9.4,1.4-14.5,2-21.3,3.3v0.1
			c6.8-1.3,12-1.9,21.3-3.2c0,0.5,0,0.7,0,1.2c-9.3,1.3-14.5,1.8-21.3,2.8v0.1c6.8-1,12-1.5,21.3-2.7c0,0.5,0,0.7,0,1.2
			C40.6,57,35.4,57.3,28.6,58v0.1c6.8-0.7,12-1,21.2-2.2c0,0.5,0,0.7,0.1,1.2c-9.2,1-14.3,1.3-21.1,1.7v0.1c6.8-0.3,12-0.6,21.1-1.6
			c0,0.5,0,0.7,0.1,1.2c-9.1,0.9-14.3,1.1-21.1,1.1v0.1c6.8,0,12-0.1,21.1-1.1c0,0.5,0.1,0.7,0.1,1.1c-9,0.8-14.2,0.8-21,0.6v0.1
			c6.8,0.3,12,0.3,21-0.5c0.1,0.5,0.1,0.7,0.2,1.1c-9,0.7-14.1,0.6-20.9,0v0.1c6.8,0.7,11.9,0.7,20.9,0c0.1,0.5,0.1,0.7,0.2,1.1
			c-8.9,0.6-14,0.4-20.8-0.6v0.1c6.8,1,11.9,1.2,20.8,0.6c0.1,0.5,0.1,0.7,0.2,1.1c-8.8,0.5-14,0.2-20.7-1.1c0,0.1,0.1,0.1,0.1,0.2
			c6.8,1.4,11.9,1.7,20.7,1.3c0.1,0.4,0.1,0.6,0.2,1c-8.7,0.3-13.9-0.1-20.6-1.8v0.1c6.7,1.7,11.9,2.1,20.6,1.8
			c0.1,0.4,0.1,0.7,0.2,1.1c-8.6,0.2-13.8-0.3-20.5-2.3v0.1c6.7,2,11.9,2.6,20.5,2.4c0.1,0.4,0.2,0.7,0.3,1.1
			c-8.5,0.1-13.7-0.6-20.4-2.9v0.1c6.7,2.3,11.8,3,20.3,3c0.1,0.4,0.2,0.6,0.3,1.1c-8.4,0-13.6-0.8-20.2-3.5v0.1
			c6.6,2.7,11.8,3.5,20.2,3.5c0.1,0.4,0.2,0.6,0.3,1.1c-8.4-0.2-13.5-1.1-20.1-4.1v0.1c6.6,3,11.7,3.9,20.1,4.1
			c0.1,0.4,0.2,0.6,0.3,1.1c-8.2-0.3-13.4-1.3-20-4.6v0.1c6.6,3.3,11.7,4.4,19.9,4.7c0.1,0.4,0.2,0.6,0.3,1
			c-8.2-0.4-13.2-1.6-19.8-5.2l0.1,0.1c6.5,3.7,11.6,4.8,19.8,5.3c0.1,0.4,0.2,0.6,0.4,1c-8-0.5-13.1-1.8-19.6-5.8l0.1,0.1
			c6.5,4,11.6,5.3,19.6,5.9c0.2,0.4,0.2,0.6,0.4,1c-8-0.7-13-2.1-19.5-6.4l0.1,0.1c6.5,4.4,11.5,5.8,19.5,6.5c0.2,0.4,0.2,0.6,0.4,1
			c-7.8-0.8-12.9-2.3-19.3-7l0.1,0.1c6.4,4.7,11.5,6.2,19.3,7.1c0.1,0.3,0.2,0.5,0.3,0.9c-7.8-0.9-12.8-2.5-19.2-7.5
			c0.1,0.1,0.1,0.1,0.2,0.2c29.5,15.8,60.3,3.6,87.8-11l0.1-0.1C120,59.6,118.3,60.5,114.8,62.3L114.8,62.3z M75.4,75.3
			c-7.9,1.2-12.8,1.6-20.1,0.9c-0.1-0.3-0.2-0.5-0.3-0.9c7.4,0.6,12.3,0.2,20.3-1C75.3,74.8,75.4,75,75.4,75.3z M75.2,74.2
			c-8,1.2-12.8,1.6-20.3,1c-0.2-0.4-0.2-0.6-0.4-1c7.5,0.5,12.5,0,20.5-1.1C75.1,73.6,75.2,73.8,75.2,74.2L75.2,74.2z M75,73
			c-8,1.1-13,1.6-20.5,1.1c-0.2-0.4-0.2-0.6-0.4-1c7.6,0.4,12.6-0.1,20.7-1.2C74.9,72.3,74.9,72.6,75,73z M74.8,71.7
			c-8.1,1.1-13.1,1.6-20.7,1.2c-0.1-0.4-0.2-0.6-0.3-1c7.7,0.3,12.7-0.2,20.9-1.3C74.7,71.1,74.8,71.3,74.8,71.7L74.8,71.7z
			 M74.6,70.5c-8.2,1.1-13.2,1.6-20.9,1.3c-0.1-0.4-0.2-0.6-0.3-1.1c7.8,0.2,12.9-0.4,21.1-1.4C74.6,69.8,74.6,70,74.6,70.5z
			 M74.5,69.2c-8.2,1.1-13.3,1.6-21.1,1.4c-0.1-0.4-0.2-0.6-0.3-1.1c7.9,0,13-0.5,21.3-1.5C74.4,68.5,74.4,68.7,74.5,69.2L74.5,69.2
			z M74.3,67.9C66,69,60.9,69.5,53,69.4c-0.1-0.4-0.2-0.6-0.3-1.1c8-0.1,13.1-0.6,21.5-1.6C74.2,67.2,74.3,67.4,74.3,67.9z
			 M74.2,66.6c-8.4,1-13.5,1.6-21.5,1.6c-0.1-0.4-0.2-0.7-0.3-1.1c8.1-0.2,13.2-0.7,21.7-1.7C74.1,65.9,74.1,66.2,74.2,66.6
			L74.2,66.6z M74,65.3c-8.4,1-13.5,1.5-21.7,1.7c-0.1-0.4-0.2-0.7-0.3-1.1c8.2-0.3,13.4-0.8,21.8-1.8C74,64.6,74,64.8,74,65.3z
			 M73.9,64c-8.5,1-13.6,1.5-21.9,1.8c-0.1-0.4-0.2-0.7-0.2-1.1c8.3-0.4,13.5-1,22-1.9C73.9,63.3,73.9,63.5,73.9,64z M73.8,62.7
			c-8.6,0.9-13.7,1.5-22,1.9c-0.1-0.4-0.1-0.6-0.2-1c8.4-0.5,13.5-1.1,22.2-2C73.8,62.1,73.8,62.3,73.8,62.7z M73.8,61.2
			c-8.6,0.9-13.8,1.5-22.2,2c-0.1-0.5-0.1-0.7-0.2-1.1c8.5-0.6,13.7-1.2,22.4-2.1C73.7,60.5,73.8,60.7,73.8,61.2z M73.7,59.9
			C65,60.8,59.8,61.3,51.3,62c-0.1-0.5-0.1-0.7-0.2-1.1c8.5-0.7,13.8-1.3,22.5-2.1C73.7,59.2,73.7,59.4,73.7,59.9L73.7,59.9z
			 M73.7,58.5c-8.7,0.8-14,1.4-22.5,2.2c-0.1-0.5-0.1-0.7-0.1-1.1c8.6-0.8,13.9-1.4,22.6-2.2C73.7,57.8,73.7,58.1,73.7,58.5
			L73.7,58.5z M73.7,57.2c-8.8,0.8-14,1.4-22.7,2.2c0-0.5-0.1-0.7-0.1-1.2c8.7-0.9,14-1.5,22.8-2.3C73.7,56.5,73.7,56.7,73.7,57.2
			L73.7,57.2z M73.7,55.8c-8.8,0.8-14.1,1.4-22.8,2.3c0-0.5-0.1-0.7-0.1-1.2c8.8-1,14.1-1.6,22.9-2.4C73.7,55.1,73.7,55.3,73.7,55.8
			L73.7,55.8z M73.7,54.5c-8.8,0.7-14.1,1.3-22.9,2.4c0-0.5,0-0.7-0.1-1.2c8.8-1.1,14.1-1.7,23-2.4C73.7,53.7,73.7,54,73.7,54.5z
			 M73.7,53.1c-8.9,0.7-14.2,1.3-23,2.4c0-0.5,0-0.7,0-1.2c8.9-1.2,14.2-1.8,23.1-2.5C73.8,52.4,73.7,52.6,73.7,53.1L73.7,53.1z
			 M73.8,51.7c-8.9,0.7-14.2,1.3-23.2,2.5c0-0.5,0-0.7,0-1.2c9-1.3,14.3-1.9,23.2-2.5C73.8,51,73.8,51.2,73.8,51.7L73.8,51.7z
			 M73.9,50.3c-8.9,0.6-14.3,1.2-23.2,2.6c0-0.5,0-0.7,0-1.2c9-1.4,14.4-2,23.3-2.6C73.9,49.6,73.9,49.9,73.9,50.3L73.9,50.3z
			 M74,49c-9,0.6-14.3,1.2-23.3,2.6c0-0.5,0-0.7,0-1.2c9.1-1.5,14.4-2.1,23.4-2.7C74.1,48.2,74,48.5,74,49L74,49z M74.1,47.6
			c-9,0.5-14.3,1.2-23.4,2.7c0-0.5,0-0.7,0.1-1.2c9.1-1.6,14.5-2.2,23.5-2.7C74.2,46.8,74.2,47.1,74.1,47.6z M74.3,45.8
			c-9,0.5-14.4,1.1-23.5,2.7c0-0.5,0.1-0.7,0.1-1.2c9.2-1.7,14.5-2.3,23.6-2.8C74.4,45.1,74.4,45.3,74.3,45.8L74.3,45.8z M74.5,44.4
			c-9,0.4-14.4,1.1-23.6,2.8c0-0.5,0.1-0.7,0.2-1.2c9.2-1.8,14.6-2.4,23.6-2.8C74.6,43.6,74.6,43.9,74.5,44.4L74.5,44.4z M74.8,43
			c-9.1,0.4-14.4,1-23.6,2.8c0.1-0.5,0.1-0.7,0.2-1.2c9.2-1.9,14.6-2.5,23.7-2.9C74.9,42.2,74.8,42.5,74.8,43z M75,41.5
			c-9.1,0.3-14.4,1-23.7,2.9c0.1-0.5,0.1-0.8,0.2-1.2c9.3-2,14.7-2.6,23.7-2.9C75.2,40.8,75.1,41,75,41.5z M75.3,40.1
			C66.2,40.4,60.9,41,51.6,43c0.1-0.5,0.1-0.8,0.2-1.3c9.3-2.1,14.7-2.7,23.7-3C75.4,39.3,75.4,39.6,75.3,40.1L75.3,40.1z
			 M75.6,38.7c-9.1,0.2-14.4,0.9-23.7,3c0.1-0.5,0.2-0.8,0.3-1.3c9.3-2.2,14.7-2.8,23.7-3C75.8,37.9,75.7,38.2,75.6,38.7L75.6,38.7z
			 M75.9,37.2c-9.1,0.2-14.4,0.8-23.7,3c0.1-0.5,0.2-0.8,0.3-1.2c9.4-2.2,14.7-2.9,23.7-3C76.1,36.5,76,36.7,75.9,37.2L75.9,37.2z
			 M76.3,35.8c-9,0.2-14.4,0.8-23.7,3c0.1-0.5,0.2-0.7,0.3-1.2c9.4-2.3,14.7-3,23.7-3.1C76.5,35.1,76.4,35.3,76.3,35.8L76.3,35.8z
			 M76.6,34.4c-9,0.1-14.4,0.8-23.8,3.1c0.1-0.5,0.2-0.7,0.3-1.2c9.4-2.5,14.7-3.1,23.7-3.2C76.8,33.7,76.7,33.9,76.6,34.4
			L76.6,34.4z M77,33.1c-9,0.1-14.3,0.7-23.7,3.2c0.1-0.5,0.2-0.7,0.4-1.2c9.4-2.5,14.7-3.2,23.7-3.2C77.2,32.3,77.1,32.6,77,33.1z
			 M77.4,31.7c-9,0-14.3,0.7-23.7,3.2c0.1-0.4,0.2-0.6,0.3-1c9.4-2.6,14.7-3.3,23.7-3.3C77.6,31.1,77.5,31.3,77.4,31.7L77.4,31.7z
			 M95.3,70.5C87.9,73,84.1,74,76.2,75.2c-0.1-0.4-0.1-0.6-0.2-1c7.9-1.2,11.8-2.2,19.2-4.5C95.3,70,95.3,70.2,95.3,70.5z
			 M95.3,69.6C87.8,72,84,72.9,76.1,74.1C76,73.7,76,73.5,75.9,73c8-1.2,11.9-2.1,19.4-4.3C95.3,69.1,95.3,69.3,95.3,69.6L95.3,69.6
			z M95.3,68.6c-7.6,2.2-11.4,3.1-19.5,4.3c-0.1-0.4-0.1-0.7-0.2-1.1c8.1-1.2,12-2,19.6-4.1C95.3,68.1,95.3,68.2,95.3,68.6
			L95.3,68.6z M95.3,67.6c-7.7,2.1-11.6,2.9-19.7,4.1c-0.1-0.4-0.1-0.7-0.2-1.1c8.1-1.1,12.1-1.9,19.8-3.8
			C95.4,67,95.3,67.2,95.3,67.6L95.3,67.6z M95.4,66.5c-7.7,1.9-11.7,2.7-19.9,3.8c-0.1-0.5-0.1-0.7-0.2-1.1
			c8.2-1.1,12.2-1.9,20-3.6C95.4,66,95.4,66.2,95.4,66.5L95.4,66.5z M95.4,65.5c-7.8,1.7-11.8,2.5-20.1,3.6
			c-0.1-0.5-0.1-0.7-0.1-1.2c8.3-1.1,12.3-1.8,20.2-3.4C95.4,64.9,95.4,65.1,95.4,65.5z M95.4,64.5c-7.9,1.6-12,2.3-20.2,3.3
			c-0.1-0.5-0.1-0.7-0.1-1.2c8.3-1,12.4-1.7,20.4-3.1C95.5,63.9,95.5,64.1,95.4,64.5L95.4,64.5z M95.5,63.4
			c-8,1.4-12.1,2.1-20.4,3.1C75,66,75,65.8,75,65.3c8.4-1,12.6-1.6,20.6-2.9C95.5,62.9,95.5,63,95.5,63.4z M95.5,62.4
			c-8.1,1.3-12.2,1.9-20.6,2.9c0-0.5-0.1-0.7-0.1-1.2c8.4-1,12.7-1.5,20.8-2.6C95.6,61.8,95.6,62,95.5,62.4z M95.6,61.3
			c-8.1,1.1-12.3,1.6-20.8,2.6c0-0.5-0.1-0.7-0.1-1.2c8.5-0.9,12.8-1.4,20.9-2.4C95.7,60.7,95.6,60.9,95.6,61.3z M95.7,60.2
			c-8.2,0.9-12.4,1.4-21,2.4c0-0.4,0-0.6-0.1-1c8.6-0.9,12.8-1.3,21.1-2.2C95.7,59.7,95.7,59.9,95.7,60.2L95.7,60.2z M95.8,59
			c-8.3,0.8-12.6,1.2-21.1,2.1c0-0.5,0-0.7-0.1-1.2c8.6-0.9,12.9-1.2,21.3-1.8C95.8,58.5,95.8,58.7,95.8,59z M95.9,58
			c-8.3,0.6-12.7,1-21.3,1.8c0-0.5,0-0.7,0-1.2c8.7-0.8,13-1.1,21.4-1.6C96,57.4,95.9,57.6,95.9,58L95.9,58z M96,56.9
			c-8.4,0.4-12.8,0.7-21.4,1.6c0-0.5,0-0.7,0-1.2c8.7-0.8,13.1-1,21.6-1.3C96.1,56.3,96,56.5,96,56.9z M96.1,55.8
			c-8.5,0.3-12.8,0.5-21.6,1.3c0-0.5,0-0.7,0-1.2c8.8-0.8,13.2-1,21.7-1.1C96.2,55.2,96.2,55.4,96.1,55.8z M96.3,54.7
			c-8.5,0.1-12.9,0.3-21.7,1c0-0.5,0-0.7,0-1.2c8.8-0.7,13.2-0.8,21.8-0.8C96.3,54.1,96.3,54.3,96.3,54.7z M96.4,53.6
			c-8.6-0.1-13,0.1-21.8,0.8c0-0.5,0-0.7,0-1.2c8.8-0.7,13.3-0.8,21.9-0.5C96.5,53,96.5,53.2,96.4,53.6L96.4,53.6z M96.6,52.5
			C88,52.3,83.5,52.4,74.7,53c0-0.5,0-0.7,0.1-1.2c8.9-0.6,13.4-0.7,22-0.2C96.7,52,96.6,52.2,96.6,52.5z M96.8,51.5
			c-8.7-0.4-13.2-0.4-22,0.2c0-0.5,0.1-0.7,0.1-1.2c8.9-0.6,13.4-0.5,22.1,0C96.9,50.9,96.8,51,96.8,51.5z M97,50.4
			c-8.7-0.6-13.2-0.6-22.1-0.1c0-0.5,0.1-0.7,0.1-1.2c8.9-0.5,13.5-0.4,22.2,0.3C97.1,49.8,97,50,97,50.4z M97.2,49.2
			c-8.8-0.8-13.3-0.9-22.2-0.3c0.1-0.5,0.1-0.8,0.1-1.2c8.9-0.5,13.5-0.3,22.3,0.6C97.3,48.6,97.2,48.8,97.2,49.2z M97.4,48.1
			C88.6,47.2,84,47,75.1,47.5c0.1-0.5,0.1-0.8,0.2-1.3c8.9-0.4,13.6-0.2,22.4,0.9C97.5,47.5,97.5,47.7,97.4,48.1L97.4,48.1z
			 M97.7,46.7c-8.8-1.2-13.4-1.4-22.4-1c0.1-0.5,0.1-0.8,0.2-1.3c9-0.4,13.6-0.1,22.4,1.2C97.8,46.1,97.8,46.3,97.7,46.7L97.7,46.7z
			 M97.9,45.6c-8.8-1.3-13.5-1.6-22.4-1.3c0.1-0.5,0.1-0.8,0.2-1.3c9-0.3,13.6,0,22.5,1.5C98.1,45,98,45.2,97.9,45.6z M98.2,44.5
			C89.3,43,84.7,42.6,75.7,43c0.1-0.5,0.1-0.8,0.2-1.3c9-0.3,13.6,0.1,22.5,1.8C98.3,43.9,98.3,44.1,98.2,44.5L98.2,44.5z
			 M98.5,43.4c-8.9-1.7-13.6-2.1-22.5-1.8c0.1-0.5,0.1-0.8,0.2-1.3c9-0.2,13.7,0.3,22.6,2.1C98.7,42.8,98.6,43,98.5,43.4L98.5,43.4z
			 M98.8,42.2c-8.9-1.9-13.6-2.4-22.6-2.1c0.1-0.5,0.2-0.8,0.3-1.3c9-0.2,13.7,0.4,22.6,2.4C99,41.6,98.9,41.8,98.8,42.2L98.8,42.2z
			 M99.1,41.1c-8.9-2-13.6-2.6-22.6-2.4c0.1-0.5,0.2-0.8,0.3-1.3c9-0.1,13.7,0.5,22.6,2.7C99.3,40.5,99.3,40.7,99.1,41.1L99.1,41.1z
			 M99.5,40c-8.9-2.2-13.6-2.8-22.6-2.7c0.1-0.5,0.2-0.8,0.3-1.3c8.9-0.1,13.7,0.6,22.6,3C99.6,39.3,99.6,39.5,99.5,40z M99.8,38.8
			c-8.9-2.4-13.6-3.1-22.6-3c0.1-0.5,0.2-0.7,0.3-1.2c8.9,0,13.7,0.7,22.6,3.3C100,38.2,99.9,38.4,99.8,38.8z M100.2,37.7
			c-8.9-2.6-13.7-3.3-22.6-3.3c0.1-0.5,0.2-0.7,0.3-1.2c8.9,0,13.6,0.8,22.6,3.5C100.4,37.1,100.3,37.3,100.2,37.7L100.2,37.7z
			 M100.5,36.6c-8.9-2.8-13.7-3.5-22.6-3.6c0.1-0.5,0.2-0.7,0.3-1.2c8.9,0.1,13.6,0.9,22.6,3.8C100.7,36,100.7,36.2,100.5,36.6
			L100.5,36.6z M100.9,35.5c-8.9-2.9-13.7-3.8-22.6-3.8c0.1-0.4,0.2-0.6,0.3-1c8.9,0.1,13.6,1,22.6,4C101.1,35,101,35.2,100.9,35.5z
			 M114.1,62.7c-7.1,3.4-10.6,5-18,7.6c0-0.3,0-0.5,0-0.8c7.4-2.4,11.1-3.9,18.2-7.2C114.2,62.5,114.2,62.6,114.1,62.7L114.1,62.7z
			 M114.3,62.3c-7.1,3.2-10.7,4.7-18.2,7.1c0-0.4,0-0.5,0-0.9c7.5-2.3,11.2-3.6,18.4-6.7C114.4,62,114.4,62.1,114.3,62.3z
			 M114.5,61.7c-7.2,3-10.8,4.4-18.4,6.6c0-0.4,0-0.5,0-0.9c7.6-2.1,11.3-3.4,18.6-6.2C114.6,61.5,114.6,61.6,114.5,61.7z
			 M114.7,61.2c-7.3,2.8-11,4-18.6,6.1c0-0.4,0-0.6,0-0.9c7.7-1.9,11.4-3.1,18.8-5.7C114.9,61,114.8,61.1,114.7,61.2L114.7,61.2z
			 M115,60.7c-7.3,2.5-11.1,3.7-18.8,5.6c0-0.4,0-0.6,0-0.9c7.8-1.8,11.6-2.8,19-5.2C115.1,60.4,115,60.5,115,60.7L115,60.7z
			 M115.2,60.2c-7.4,2.3-11.2,3.3-19,5.1c0-0.4,0-0.6,0.1-0.9c7.9-1.6,11.7-2.5,19.1-4.7C115.3,59.9,115.3,60,115.2,60.2L115.2,60.2
			z M115.4,59.7c-7.5,2.1-11.3,3-19.2,4.6c0-0.4,0-0.5,0.1-0.9c7.9-1.5,11.8-2.3,19.3-4.2C115.6,59.4,115.5,59.5,115.4,59.7z
			 M115.7,59.2c-7.5,1.8-11.4,2.7-19.3,4.1c0-0.4,0-0.6,0.1-0.9c8-1.3,11.9-2,19.5-3.6C115.8,58.9,115.7,59,115.7,59.2L115.7,59.2z
			 M115.9,58.6c-7.6,1.6-11.5,2.3-19.5,3.6c0-0.4,0-0.6,0.1-0.9c8.1-1.1,12-1.7,19.7-3.1C116,58.4,116,58.5,115.9,58.6L115.9,58.6z
			 M116.1,58.1c-7.7,1.4-11.6,2-19.7,3.1c0-0.4,0-0.6,0.1-0.9c8.2-1,12.1-1.5,19.8-2.6C116.3,57.8,116.2,57.9,116.1,58.1z
			 M116.4,57.6c-7.7,1.1-11.7,1.6-19.8,2.5c0-0.3,0-0.5,0.1-0.8c8.2-0.8,12.2-1.2,19.9-2.1C116.5,57.4,116.4,57.4,116.4,57.6
			L116.4,57.6z M116.7,57c-7.8,0.8-11.7,1.2-20,2c0-0.4,0.1-0.6,0.1-0.9c8.3-0.6,12.3-0.8,20.1-1.5C116.8,56.7,116.7,56.8,116.7,57
			L116.7,57z M116.9,56.5c-7.8,0.6-11.8,0.8-20.1,1.4c0-0.4,0.1-0.6,0.1-1c8.4-0.4,12.4-0.6,20.3-1C117,56.2,117,56.3,116.9,56.5
			L116.9,56.5z M117.2,56c-7.9,0.4-11.9,0.5-20.3,0.9c0.1-0.4,0.1-0.6,0.1-1c8.4-0.3,12.5-0.3,20.4-0.4
			C117.3,55.7,117.3,55.8,117.2,56L117.2,56z M117.4,55.4c-7.9,0.1-12,0.1-20.4,0.4c0.1-0.4,0.1-0.6,0.1-1c8.5-0.1,12.6,0,20.5,0.1
			C117.6,55.1,117.5,55.2,117.4,55.4z M117.7,54.9c-7.9-0.1-12-0.2-20.5-0.2c0.1-0.4,0.1-0.6,0.1-1c8.5,0.1,12.7,0.3,20.6,0.7
			C117.8,54.6,117.8,54.7,117.7,54.9L117.7,54.9z M118,54.4c-8-0.4-12.1-0.6-20.6-0.7c0.1-0.4,0.1-0.6,0.2-1
			c8.6,0.3,12.7,0.6,20.7,1.2C118.1,54.1,118.1,54.2,118,54.4L118,54.4z M118.2,53.8c-8-0.6-12.2-1-20.8-1.2c0.1-0.4,0.1-0.6,0.2-1
			c8.6,0.4,12.8,0.9,20.8,1.7C118.4,53.5,118.3,53.6,118.2,53.8L118.2,53.8z M118.5,53.3c-8.1-0.9-12.2-1.3-20.8-1.8
			c0.1-0.4,0.1-0.6,0.2-1c8.7,0.6,12.8,1.2,20.9,2.3C118.7,53,118.6,53.1,118.5,53.3z M118.8,52.8c-8.1-1.1-12.2-1.7-20.9-2.3
			c0.1-0.4,0.1-0.6,0.2-1c8.7,0.8,12.9,1.5,21,2.8C119,52.5,118.9,52.6,118.8,52.8L118.8,52.8z M119.1,52.2
			c-8.1-1.4-12.3-2.1-21-2.9c0.1-0.4,0.1-0.6,0.2-1c8.8,1,12.9,1.8,21.1,3.4C119.2,51.9,119.2,52,119.1,52.2L119.1,52.2z
			 M119.4,51.7c-8.1-1.6-12.3-2.5-21.1-3.5c0.1-0.4,0.1-0.6,0.2-1c8.8,1.1,13,2.1,21.1,3.9C119.5,51.4,119.5,51.5,119.4,51.7z
			 M119.8,51c-8.2-2-12.4-2.9-21.2-4.1c0.1-0.4,0.1-0.6,0.2-1c8.8,1.4,13,2.5,21.2,4.6C119.9,50.7,119.9,50.8,119.8,51z M120.1,50.5
			c-8.2-2.2-12.4-3.3-21.2-4.7c0.1-0.4,0.1-0.6,0.2-1c8.8,1.5,13.1,2.8,21.2,5.2C120.2,50.2,120.2,50.3,120.1,50.5L120.1,50.5z
			 M120.4,49.9c-8.2-2.5-12.4-3.7-21.2-5.3c0.1-0.4,0.2-0.6,0.3-1c8.9,1.7,13.1,3.1,21.3,5.8C120.5,49.6,120.5,49.7,120.4,49.9
			L120.4,49.9z M120.7,49.4c-8.2-2.7-12.4-4.1-21.3-5.8c0.1-0.4,0.2-0.6,0.3-1c8.9,1.9,13.1,3.4,21.3,6.3
			C120.9,49.1,120.8,49.2,120.7,49.4L120.7,49.4z M121,48.8c-8.2-3-12.4-4.4-21.3-6.4c0.1-0.4,0.2-0.6,0.3-1
			c8.9,2.1,13.1,3.7,21.3,6.9C121.2,48.5,121.1,48.6,121,48.8z M121.4,48.3c-8.2-3.2-12.4-4.8-21.3-7c0.1-0.4,0.2-0.6,0.3-1
			c8.9,2.3,13.1,4,21.3,7.5C121.5,48,121.5,48.1,121.4,48.3z M121.7,47.7c-8.2-3.5-12.4-5.2-21.3-7.5c0.1-0.4,0.2-0.6,0.3-1
			c8.9,2.5,13.2,4.3,21.3,8C121.9,47.4,121.8,47.5,121.7,47.7L121.7,47.7z M122,47.2c-8.2-3.8-12.4-5.6-21.3-8.1
			c0.1-0.4,0.2-0.6,0.3-1c8.9,2.7,13.2,4.6,21.3,8.6C122.2,46.9,122.2,47,122,47.2z M122.4,46.6c-8.2-4-12.4-6-21.3-8.6
			c0.1-0.4,0.2-0.6,0.3-1c8.9,2.8,13.2,4.9,21.3,9.1C122.6,46.3,122.5,46.4,122.4,46.6L122.4,46.6z M122.7,46.1
			c-8.1-4.3-12.4-6.3-21.3-9.2c0.1-0.4,0.2-0.6,0.3-1c8.9,3,13.1,5.2,21.3,9.7C122.9,45.8,122.8,45.9,122.7,46.1z M123.1,45.5
			c-8.1-4.5-12.3-6.7-21.3-9.7c0.1-0.3,0.2-0.5,0.3-0.8c8.9,3.2,13.1,5.4,21.2,10.1C123.2,45.3,123.2,45.4,123.1,45.5L123.1,45.5z"
			/>
	</g>
</g>
<text transform="matrix(1 0 0 1 82.36 141.98)" class="st11 st12 st13">TEEBEDS</text>
<path class="st14" d="M437.6,59.5h-68.3v161H354v-161h-68.4V45.4h152V59.5z"/>
<path class="st14" d="M465,222.9c-18.1,0-32.8-5.9-44.1-17.7c-11.3-11.8-16.9-26.9-16.9-45.3v-6.5c0-18.5,5.7-33.8,17.1-45.9
	c11.4-12,25.6-18.1,42.4-18.1c17,0,30.1,5,39.3,15c9.3,10,13.9,23.5,13.9,40.5V156h-97.3v3.9c0,14.7,4,26.8,12.1,36.5
	s19.2,14.5,33.4,14.5c8.5,0,16.4-1.3,23.5-3.9c7.1-2.6,13.1-6,17.8-10.4l6.6,9.7c-4.9,4.8-11.4,8.7-19.3,11.8
	C485.7,221.4,476.2,222.9,465,222.9z M463.6,101.6c-11.9,0-21.7,3.9-29.3,11.8c-7.7,7.8-12.1,17.8-13.4,29.8l0.4,0.7h80.1v-3
	c0-11.4-3.3-20.8-9.8-28.2C485.1,105.3,475.8,101.6,463.6,101.6z"/>
<path class="st14" d="M587.1,222.9c-18.1,0-32.8-5.9-44.1-17.7s-16.9-26.9-16.9-45.3v-6.5c0-18.5,5.7-33.8,17.1-45.9
	c11.4-12,25.6-18.1,42.4-18.1c17,0,30.1,5,39.3,15c9.3,10,13.9,23.5,13.9,40.5V156h-97.3v3.9c0,14.7,4,26.8,12.1,36.5
	s19.2,14.5,33.4,14.5c8.5,0,16.4-1.3,23.5-3.9c7.2-2.6,13.1-6,17.8-10.4l6.6,9.7c-4.9,4.8-11.4,8.7-19.3,11.8
	C607.8,221.4,598.2,222.9,587.1,222.9z M585.7,101.6c-11.9,0-21.7,3.9-29.3,11.8c-7.7,7.8-12.1,17.8-13.4,29.8l0.4,0.7h80.1v-3
	c0-11.4-3.3-20.8-9.8-28.2S597.8,101.6,585.7,101.6z"/>
<path class="st14" d="M865.2,224.1c-20.1,0-35.7-5.9-47-17.7c-11.2-11.8-16.9-27.3-16.9-46.6v-5.2c0-18.5,5.8-33.7,17.4-45.8
	c11.6-12.1,25.7-18.1,42.4-18.1c18.7,0,32.7,5.3,42.1,16c9.3,10.7,14,24.9,14,42.7v12.4h-89.4l-0.4,0.6c0,12.9,3.1,23.4,9.3,31.4
	s15.7,12.1,28.4,12.1c8.6,0,16.2-1.1,22.7-3.4c6.5-2.3,12.1-5.4,16.7-9.3l10,15.2c-5,4.4-11.6,8.2-19.8,11.2
	C886.6,222.6,876.7,224.1,865.2,224.1z M861.2,109c-8.9,0-16.2,3.1-22,9.5c-5.8,6.3-9.4,14.4-10.7,24.2l0.3,0.6h63.1v-1.9
	c0-9.4-2.5-17.1-7.5-23.2C879.3,112.1,871.6,109,861.2,109z"/>
<path class="st14" d="M926.5,159.7c0-20.7,5.4-37.4,16.3-50c10.9-12.7,26.1-19,45.7-19c9.3,0,17.5,1.4,24.6,4.2
	c7.2,2.8,13.3,6.8,18.4,12.1V36.2h28.8v185.4h-22.1l-4.4-16.3c-5.2,6.2-11.6,10.9-19.2,14c-7.6,3.2-16.4,4.8-26.5,4.8
	c-19.3,0-34.4-5.7-45.3-17.1c-10.9-11.4-16.4-26.3-16.4-44.9L926.5,159.7L926.5,159.7z M955.3,162.2c0,13,3.3,23.4,9.8,31.2
	s16.7,11.7,30.4,11.7c8.6,0,15.8-1.6,21.6-4.8c5.9-3.2,10.6-7.6,14.3-13.3v-60c-3.7-5.3-8.5-9.5-14.4-12.7c-5.9-3.1-13-4.7-21.3-4.7
	c-13.8,0-24.1,4.6-30.6,13.9c-6.6,9.3-9.9,21.3-9.9,36.1L955.3,162.2L955.3,162.2z"/>
<path class="st14" d="M791.9,162.2c0,18.5-5.5,33.5-16.4,44.9c-10.9,11.4-26,17.1-45.3,17.1c-10,0-18.9-1.6-26.5-4.8
	s-14-7.8-19.2-14l-4.4,16.3H658V36.2h28.8v70.7c5.1-5.3,11.2-9.4,18.4-12.1c7.2-2.8,15.4-4.2,24.6-4.2c19.6,0,34.8,6.3,45.7,19
	s16.3,29.4,16.3,50v2.6H791.9z M763.1,159.7c0-14.8-3.3-26.9-9.9-36.1c-6.6-9.3-16.8-13.9-30.6-13.9c-8.3,0-15.4,1.6-21.3,4.7
	c-5.9,3.1-10.7,7.4-14.4,12.7v60c3.7,5.7,8.5,10.1,14.3,13.3s13.1,4.8,21.6,4.8c13.7,0,23.9-3.9,30.4-11.7s9.8-18.2,9.8-31.2v-2.6
	H763.1z"/>
<path class="st14" d="M1151.5,187c0-5.2-2.1-9.3-6.4-12.6c-4.3-3.2-12.3-6.1-24.2-8.6c-16.5-3.2-29.1-7.8-37.9-13.7
	s-13.2-13.7-13.2-23.5c0-10.5,4.8-19.4,14.5-26.9c9.7-7.4,22.2-11.2,37.7-11.2c15.8,0,28.7,4,38.5,11.9s14.5,17.2,14.1,27.7
	l-0.3,0.7H1150c0-5.5-2.6-10.6-7.9-15.1s-12-6.8-20.1-6.8c-9,0-15.7,1.9-20.1,5.6s-6.7,8.2-6.7,13.3s1.9,9,5.7,11.8
	c3.8,2.8,11.7,5.3,23.7,7.6c17.1,3.3,30.2,8,39,14.1c8.9,6.1,13.3,14.1,13.3,23.9c0,11.4-5,20.7-15.1,27.9
	c-10,7.2-23.2,10.8-39.3,10.8c-17.8,0-31.9-4.2-42.1-12.5c-10.3-8.3-15.1-18-14.6-29.1l0.3-0.7h24.3c0.4,8.3,3.8,14.4,10.1,18.2
	c6.3,3.8,13.7,5.8,22.1,5.8c9,0,16.1-1.8,21.3-5.3C1148.9,197,1151.5,192.5,1151.5,187z"/>
</svg>
